<?xml version="1.0" standalone="no"?>
<!DOCTYPE svg PUBLIC "-//W3C//DTD SVG 1.1//EN" "http://www.w3.org/Graphics/SVG/1.1/DTD/svg11.dtd" >
<svg xmlns="http://www.w3.org/2000/svg" xmlns:xlink="http://www.w3.org/1999/xlink" version="1.1">
<metadata>
Created by FontForge 20190801 at Sun Aug  1 21:12:07 2010
 By Jimmy Wärting
Copyright (c) 2010 by Stereotypes.de. All rights reserved.
</metadata>
<defs>
<font id="StRyde-Bold" horiz-adv-x="600" >
  <font-face 
    font-family="St Ryde Bold"
    font-weight="700"
    font-stretch="normal"
    units-per-em="1000"
    panose-1="2 0 5 3 2 0 0 2 0 3"
    ascent="800"
    descent="-200"
    x-height="500"
    cap-height="700"
    bbox="-82.0646 -322 1242 944"
    underline-thickness="80"
    underline-position="-240"
    stemh="138"
    stemv="148"
    unicode-range="U+000D-FB02"
  />
<missing-glyph horiz-adv-x="0" 
d="M80 0v700h626v-700h-626zM116 666v-632h557v632h-557zM228 322c0 89 73 162 162 162s162 -73 162 -162s-73 -162 -162 -162s-162 73 -162 162z" />
    <glyph glyph-name="fi" unicode="fi" horiz-adv-x="633" 
d="M388 383h-165v-337c0 -42 -39 -47 -84 -47c-22 0 -50 6 -62 16v368h-44c-8 14 -13 30 -13 51c0 35 13 66 57 66v54c0 111 54 160 149 160c103 0 122 -30 122 -73c0 -30 -7 -51 -15 -63h-64c-27 0 -46 -10 -46 -44v-34h226c55 0 106 -17 106 -117v-247c0 -21 7 -30 22 -30
h33c5 -11 8 -22 8 -43c0 -38 -29 -63 -105 -63c-66 0 -101 25 -101 112v240c0 24 -11 31 -24 31zM389 629c0 53 25 80 80 80c53 0 80 -27 80 -80c0 -54 -27 -80 -80 -80c-54 0 -80 27 -80 80z" />
    <glyph glyph-name="fl" unicode="fl" horiz-adv-x="657" 
d="M223 534v-34h96c11 -10 15 -26 15 -45c0 -27 -9 -72 -56 -72h-55v-337c0 -42 -39 -47 -84 -47c-22 0 -50 6 -62 16v368h-44c-8 14 -13 30 -13 51c0 35 13 66 57 66v54c0 111 54 160 149 160c103 0 122 -30 122 -73c0 -30 -7 -51 -15 -63h-64c-27 0 -46 -10 -46 -44z
M534 638v-470c0 -39 16 -52 46 -52h66c4 -12 6 -21 6 -40c0 -37 -34 -76 -136 -76c-88 0 -122 56 -122 137v543c15 13 30 23 69 22c53 -2 71 -30 71 -64z" />
    <glyph glyph-name=".notdef" horiz-adv-x="0" 
d="M80 0v700h626v-700h-626zM116 666v-632h557v632h-557zM228 322c0 89 73 162 162 162s162 -73 162 -162s-73 -162 -162 -162s-162 73 -162 162z" />
    <glyph glyph-name=".null" horiz-adv-x="0" 
 />
    <glyph glyph-name=".null" horiz-adv-x="0" 
 />
    <glyph glyph-name="CR" unicode="&#xd;" horiz-adv-x="0" 
 />
    <glyph glyph-name="space" unicode=" " horiz-adv-x="180" 
 />
    <glyph glyph-name="exclam" unicode="!" horiz-adv-x="248" 
d="M119 701c37 0 79 -12 79 -51v-437c-9 -9 -42 -18 -75 -18c-43 0 -73 21 -73 80v413c13 8 32 13 69 13zM53 72c0 48 22 72 72 72c48 0 72 -24 72 -72c0 -49 -24 -72 -72 -72c-49 0 -72 24 -72 72z" />
    <glyph glyph-name="quotedbl" unicode="&#x22;" horiz-adv-x="396" 
d="M220 463v195c0 33 20 43 58 43c48 0 68 -18 68 -69c0 -140 -27 -187 -68 -187c-29 0 -44 7 -58 18zM50 463v195c0 33 20 43 58 43c48 0 68 -18 68 -69c0 -140 -27 -187 -68 -187c-29 0 -44 7 -58 18z" />
    <glyph glyph-name="numbersign" unicode="#" horiz-adv-x="777" 
d="M690 385h-77l-23 -129h117c7 -10 14 -26 14 -52c0 -31 -11 -86 -72 -86h-83l-25 -142c-11 -9 -36 -16 -70 -16c-31 0 -80 9 -69 68l16 90h-132l-25 -142c-11 -9 -36 -16 -70 -16c-31 0 -80 9 -69 68l16 90h-107c-9 19 -16 37 -16 63c0 43 7 75 74 75h73l22 129h-112
c-9 19 -16 37 -16 63c0 43 7 75 74 75h79l31 177c15 8 30 13 67 13s81 -12 75 -51l-25 -139h132l31 177c15 8 30 13 67 13s81 -12 75 -51l-25 -139h111c7 -10 14 -26 14 -52c0 -31 -11 -86 -72 -86zM333 385l-23 -129h132l22 129h-131z" />
    <glyph glyph-name="dollar" unicode="$" horiz-adv-x="571" 
d="M301 823c28 0 43 -10 42 -39l-2 -77c75 -7 111 -29 137 -54c19 -19 26 -43 26 -65c0 -27 -13 -49 -27 -70c-32 16 -77 31 -138 36l-3 -148c134 -32 194 -77 197 -201c2 -112 -60 -199 -204 -213l-1 -114c-10 -6 -22 -9 -49 -9c-31 0 -51 10 -50 59v64
c-76 5 -127 22 -159 47c-28 21 -36 44 -36 74c0 28 10 57 19 72c46 -24 110 -41 179 -47l2 142c-136 30 -193 88 -193 217c0 116 71 196 201 210l2 103c13 8 34 13 57 13zM384 197c0 25 -9 44 -50 59l-2 -115c40 11 52 36 52 56zM189 495c0 -22 10 -43 48 -61l2 116
c-32 -8 -50 -26 -50 -55z" />
    <glyph glyph-name="percent" unicode="%" horiz-adv-x="902" 
d="M579 700c43 0 63 -19 49 -56l-244 -635c-12 -6 -16 -11 -49 -11c-42 0 -64 18 -43 74l233 621c16 5 27 7 54 7zM538 203c0 152 78 211 169 211c96 0 174 -59 174 -211c0 -150 -77 -207 -171 -207c-95 0 -172 60 -172 207zM639 200c0 -92 41 -124 71 -124
c38 0 68 29 68 124c0 98 -36 130 -71 130c-31 0 -68 -32 -68 -130zM28 490c0 152 78 211 169 211c96 0 174 -59 174 -211c0 -150 -77 -207 -171 -207c-95 0 -172 60 -172 207zM129 487c0 -92 41 -124 71 -124c38 0 68 29 68 124c0 98 -36 130 -71 130
c-31 0 -68 -32 -68 -130z" />
    <glyph glyph-name="ampersand" unicode="&#x26;" horiz-adv-x="789" 
d="M686 321h-68c-12 -58 -31 -114 -59 -162c21 -5 44 -8 67 -8h106c10 -16 15 -39 15 -69c0 -60 -39 -82 -108 -82c-63 0 -124 16 -179 44c-48 -34 -106 -54 -176 -54c-147 0 -231 107 -231 230c0 119 67 182 137 211c-2 12 -2 25 -2 38c0 159 78 229 226 229
c120 0 164 -29 164 -80c0 -28 -3 -52 -14 -70h-133c-63 0 -91 -23 -91 -92c0 -99 43 -191 116 -247c26 32 47 71 60 112h-92c-9 19 -13 37 -13 60c0 44 17 71 63 71h241c7 -10 16 -35 16 -64c0 -45 -16 -67 -45 -67zM344 128c-56 54 -100 121 -127 192
c-24 -22 -32 -52 -32 -94c0 -53 38 -106 108 -106c17 0 35 2 51 8z" />
    <glyph glyph-name="quotesingle" unicode="'" horiz-adv-x="226" 
d="M50 463v195c0 33 20 43 58 43c48 0 68 -18 68 -69c0 -140 -27 -187 -68 -187c-29 0 -44 7 -58 18z" />
    <glyph glyph-name="parenleft" unicode="(" horiz-adv-x="312" 
d="M29 313c0 272 99 399 190 399c39 0 74 -21 82 -63c-55 -49 -126 -124 -126 -335c0 -202 61 -288 133 -351c-11 -40 -39 -63 -83 -63c-98 0 -196 148 -196 413z" />
    <glyph glyph-name="parenright" unicode=")" horiz-adv-x="312" 
d="M308 299c0 -272 -99 -399 -190 -399c-39 0 -74 21 -82 63c55 49 126 124 126 335c0 202 -61 288 -133 351c11 40 39 63 83 63c98 0 196 -148 196 -413z" />
    <glyph glyph-name="asterisk" unicode="*" horiz-adv-x="499" 
d="M382 431l-35 8l54 -63c-6 -12 -15 -31 -46 -51c-21 -14 -83 -33 -99 26l-11 41l-34 -85c-21 2 -36 3 -59 16c-37 21 -75 51 -28 98l23 23l-83 -13c-11 18 -19 37 -19 63c0 43 9 90 74 75l31 -7l-57 65c12 17 27 34 49 47c37 22 84 38 102 -26l10 -37l29 85
c12 2 32 2 67 -18c19 -11 68 -55 26 -98l-24 -25l84 14c7 -10 18 -26 18 -66c0 -26 -13 -85 -72 -72z" />
    <glyph glyph-name="plus" unicode="+" horiz-adv-x="499" 
d="M320 413v-80h120c7 -10 14 -36 14 -69c0 -37 -11 -69 -56 -69h-78v-123c-19 -9 -44 -13 -70 -13c-43 0 -68 14 -68 74v62h-124c-9 19 -13 37 -13 71c0 30 12 67 46 67h91v121c10 7 41 14 72 14c33 0 66 -11 66 -55z" />
    <glyph glyph-name="comma" unicode="," horiz-adv-x="229" 
d="M108 0c-49 0 -68 24 -68 72s22 72 72 72c48 0 77 -26 77 -102c0 -115 -36 -162 -77 -162c-29 0 -40 8 -43 28c26 14 39 74 39 92z" />
    <glyph glyph-name="hyphen" unicode="-" horiz-adv-x="420" 
d="M302 195h-240c-9 19 -16 37 -16 68c0 40 16 70 67 70h246c8 -12 14 -34 14 -65c0 -42 -15 -73 -71 -73z" />
    <glyph glyph-name="period" unicode="." horiz-adv-x="224" 
d="M40 72c0 48 22 72 72 72c48 0 72 -24 72 -72c0 -49 -24 -72 -72 -72c-49 0 -72 24 -72 72z" />
    <glyph glyph-name="slash" unicode="/" horiz-adv-x="307" 
d="M209 713c37 0 81 -12 75 -51l-121 -686c-11 -9 -36 -16 -70 -16c-31 0 -80 9 -69 68l118 672c15 8 30 13 67 13z" />
    <glyph glyph-name="zero" unicode="0" horiz-adv-x="603" 
d="M40 274c0 207 119 285 259 285c147 0 264 -78 264 -285c0 -203 -117 -281 -260 -281c-146 0 -263 82 -263 281zM187 268c0 -113 63 -153 116 -153c62 0 111 34 111 153c0 127 -57 163 -115 163c-53 0 -112 -36 -112 -163z" />
    <glyph glyph-name="one" unicode="1" horiz-adv-x="532" 
d="M226 537c15 12 32 19 67 19c34 0 77 -12 77 -51l-1 -370h137c7 -10 16 -27 16 -56c0 -45 -16 -79 -45 -79h-384c-9 19 -16 37 -16 63c0 43 7 72 74 72h74v219c-42 -20 -85 -31 -112 -31c-29 0 -63 15 -63 61c0 28 9 44 19 62c48 17 124 33 157 91z" />
    <glyph glyph-name="two" unicode="2" horiz-adv-x="513" 
d="M36 458c0 54 71 99 205 99c160 0 225 -75 225 -168c0 -116 -123 -199 -251 -270h257c6 -9 11 -32 11 -53c0 -22 -2 -66 -44 -66h-396c-7 17 -13 32 -13 74c0 43 8 73 45 103c91 62 239 138 239 186c0 34 -25 47 -83 47c-57 0 -115 -16 -153 -39c-23 19 -42 49 -42 87z
" />
    <glyph glyph-name="three" unicode="3" horiz-adv-x="523" 
d="M316 337c0 43 -26 68 -86 68c-58 0 -116 -18 -158 -49c-23 18 -39 42 -39 82c0 59 69 120 206 120c162 0 225 -87 225 -190c0 -72 -43 -138 -102 -151v-3c60 -8 117 -63 117 -155c0 -98 -66 -200 -236 -200c-163 0 -219 70 -219 125c0 45 14 68 46 87
c34 -38 87 -74 166 -74c61 0 99 31 99 75c0 49 -24 74 -89 74h-37c-21 0 -33 25 -33 59c0 29 3 41 11 55c66 1 129 27 129 77z" />
    <glyph glyph-name="four" unicode="4" horiz-adv-x="578" 
d="M391 371c38 0 65 -12 65 -51l1 -197h92c7 -10 14 -30 14 -64c0 -40 -16 -59 -45 -59h-61l1 -118c-14 -7 -42 -11 -76 -11c-35 0 -60 16 -60 51l-1 78h-294c-8 11 -11 28 -11 46c0 17 6 43 13 67l131 434c16 8 43 14 82 14c36 0 55 -24 46 -54l-110 -384h143l-1 229
c16 10 41 19 71 19z" />
    <glyph glyph-name="five" unicode="5" horiz-adv-x="537" 
d="M443 415h-251l-8 -127c25 7 55 12 93 12c115 0 225 -54 225 -216c0 -123 -88 -224 -247 -224c-169 0 -230 68 -230 124c0 33 19 61 53 82c28 -33 84 -80 172 -80c66 0 111 33 111 103c0 66 -54 92 -138 92c-46 0 -78 -7 -132 -7c-27 0 -43 24 -41 63l14 299
c20 12 43 17 86 17h322c7 -10 16 -30 16 -59c0 -45 -16 -79 -45 -79z" />
    <glyph glyph-name="six" unicode="6" horiz-adv-x="556" 
d="M40 360c0 217 111 334 280 334c93 0 177 -22 177 -85c0 -33 -16 -70 -37 -80c-32 14 -82 27 -136 27c-95 0 -132 -48 -140 -160c39 17 81 28 125 28c128 0 222 -47 222 -202c0 -115 -61 -232 -236 -232c-143 0 -255 84 -255 370zM292 313c-43 0 -80 -11 -108 -25
c7 -122 38 -168 108 -168c62 0 98 36 98 97c0 73 -35 96 -98 96z" />
    <glyph glyph-name="seven" unicode="7" horiz-adv-x="500" 
d="M200 -137c-46 0 -63 23 -53 53l165 495h-296c-7 10 -16 30 -16 71c0 33 16 71 45 71h425c8 -14 10 -32 10 -52c0 -19 -4 -48 -14 -77l-191 -549c-14 -7 -35 -12 -75 -12z" />
    <glyph glyph-name="eight" unicode="8" horiz-adv-x="555" 
d="M35 203c0 71 37 127 92 160c-39 32 -66 78 -66 143c0 119 71 185 211 185c143 0 218 -59 218 -185c0 -58 -28 -102 -68 -132c60 -28 98 -77 98 -174c0 -105 -71 -210 -236 -210c-172 0 -249 90 -249 213zM382 203c0 61 -58 79 -137 103c-45 -17 -69 -54 -69 -101
c0 -51 42 -87 106 -87s100 32 100 85zM190 506c0 -67 56 -87 111 -98c32 16 63 45 63 95c0 52 -38 76 -85 76c-50 0 -89 -26 -89 -73z" />
    <glyph glyph-name="nine" unicode="9" horiz-adv-x="552" 
d="M512 196c0 -240 -111 -343 -258 -343c-132 0 -210 45 -210 102c0 35 14 58 31 73c32 -14 99 -37 149 -37c97 0 135 44 143 157c-39 -22 -81 -34 -128 -34c-103 0 -214 53 -214 199c0 138 67 244 232 244c146 0 255 -71 255 -361zM255 235c50 0 85 9 112 25
c-7 118 -40 167 -99 167c-65 0 -106 -32 -106 -100c0 -66 40 -92 93 -92z" />
    <glyph glyph-name="colon" unicode=":" horiz-adv-x="224" 
d="M40 72c0 48 22 72 72 72c48 0 72 -24 72 -72c0 -49 -24 -72 -72 -72c-49 0 -72 24 -72 72zM40 427c0 48 22 72 72 72c48 0 72 -24 72 -72c0 -49 -24 -72 -72 -72c-49 0 -72 24 -72 72z" />
    <glyph glyph-name="semicolon" unicode=";" horiz-adv-x="229" 
d="M108 0c-49 0 -68 24 -68 72s22 72 72 72c48 0 77 -26 77 -102c0 -115 -36 -162 -77 -162c-29 0 -40 8 -43 28c26 14 39 74 39 92zM40 427c0 48 22 72 72 72c48 0 72 -24 72 -72c0 -49 -24 -72 -72 -72c-49 0 -72 24 -72 72z" />
    <glyph glyph-name="less" unicode="&#x3c;" horiz-adv-x="346" 
d="M66 334l176 159c10 4 21 6 34 6c28 0 50 -28 50 -56c0 -21 -14 -39 -26 -51l-151 -142l160 -153c3 -7 9 -16 9 -37c0 -37 -35 -58 -58 -58c-19 0 -35 9 -53 27l-163 155c-9 16 -24 32 -24 66c0 39 12 55 46 84z" />
    <glyph glyph-name="equal" unicode="=" horiz-adv-x="499" 
d="M388 71h-327c-9 19 -16 37 -16 73c0 34 16 65 57 65h338c9 -17 14 -42 14 -68c0 -31 -11 -70 -66 -70zM388 287h-327c-9 19 -16 37 -16 73c0 34 16 65 57 65h338c9 -17 14 -42 14 -68c0 -31 -11 -70 -66 -70z" />
    <glyph glyph-name="greater" unicode="&#x3e;" horiz-adv-x="346" 
d="M280 167l-176 -159c-10 -4 -21 -6 -34 -6c-28 0 -50 28 -50 56c0 21 14 39 26 51l151 142l-160 153c-3 7 -9 16 -9 37c0 37 35 58 58 58c19 0 35 -9 53 -27l163 -155c9 -16 24 -32 24 -66c0 -39 -12 -55 -46 -84z" />
    <glyph glyph-name="question" unicode="?" horiz-adv-x="498" 
d="M316 460c0 55 -27 80 -87 80c-58 0 -115 -26 -154 -59c-23 18 -42 48 -42 88c0 59 69 120 206 120c162 0 225 -87 225 -190c0 -98 -49 -182 -190 -200l9 -98c-10 -13 -30 -19 -67 -19s-60 22 -62 52l-6 96c-1 21 4 41 14 54c52 2 154 21 154 76zM154 72c0 48 22 72 72 72
c48 0 72 -24 72 -72c0 -49 -24 -72 -72 -72c-49 0 -72 24 -72 72z" />
    <glyph glyph-name="at" unicode="@" horiz-adv-x="848" 
d="M626 -29c16 -10 28 -25 28 -50c0 -27 -13 -44 -40 -58c-25 -13 -78 -33 -180 -33c-250 0 -409 154 -409 402c0 228 165 392 399 392c239 0 399 -158 399 -383c0 -167 -91 -241 -220 -241c-62 0 -96 26 -108 62c-42 -33 -92 -60 -145 -60c-69 0 -114 55 -114 144
c0 74 49 117 145 121l107 5c-7 37 -30 52 -64 52c-53 0 -109 -8 -133 -16c-8 10 -13 30 -13 54c0 66 108 84 155 83c63 -1 163 -16 163 -156v-170c0 -23 16 -26 34 -26c45 0 74 46 74 151c0 150 -112 261 -280 261c-161 0 -280 -121 -280 -274c0 -183 112 -284 291 -284
c115 0 150 10 191 24zM387 111c34 0 58 6 103 31v46l-101 -12c-30 -4 -38 -15 -38 -32c0 -19 12 -33 36 -33z" />
    <glyph glyph-name="A" unicode="A" horiz-adv-x="660" 
d="M87 0c-38 0 -58 6 -72 20l233 657c21 12 40 23 87 23c43 0 66 -20 77 -49l233 -620c-15 -26 -48 -31 -75 -31c-40 0 -71 15 -86 61l-27 73h-258l-28 -85c-12 -37 -35 -49 -84 -49zM322 496l-81 -239h170z" />
    <glyph glyph-name="B" unicode="B" horiz-adv-x="662" 
d="M154 700h210c105 0 215 -48 215 -209c0 -48 -18 -86 -46 -116c51 -32 89 -88 89 -179c0 -138 -109 -196 -219 -196h-250c-38 0 -73 8 -73 67v622c13 8 37 11 74 11zM360 297h-132v-178h131c72 0 115 19 115 85s-49 93 -114 93zM344 579h-116v-166h112c62 2 99 26 99 85
c0 57 -45 81 -95 81z" />
    <glyph glyph-name="C" unicode="C" horiz-adv-x="609" 
d="M532 184c24 0 57 -18 57 -61c0 -36 -15 -57 -51 -82c-25 -17 -86 -51 -192 -51c-172 0 -306 106 -306 359c0 257 130 361 299 361c117 0 152 -21 194 -49c27 -18 43 -40 43 -76c0 -37 -18 -62 -41 -76c-40 31 -107 61 -189 61c-83 0 -160 -52 -160 -225
c0 -169 79 -221 168 -221c72 0 138 27 178 60z" />
    <glyph glyph-name="D" unicode="D" horiz-adv-x="676" 
d="M154 700h141c209 0 341 -103 341 -365c0 -244 -135 -335 -328 -335h-155c-38 0 -73 8 -73 67v621c13 7 37 12 74 12zM294 564h-66v-437h75c118 0 185 61 185 205c0 170 -81 232 -194 232z" />
    <glyph glyph-name="E" unicode="E" horiz-adv-x="603" 
d="M473 286h-245v-148h319c7 -10 16 -30 16 -59c0 -45 -16 -79 -45 -79h-375c-31 0 -63 8 -63 67v620c13 8 32 13 69 13h398c7 -10 16 -30 16 -59c0 -45 -16 -79 -45 -79h-290v-139h270c7 -10 16 -37 16 -66c0 -45 -16 -71 -41 -71z" />
    <glyph glyph-name="F" unicode="F" horiz-adv-x="586" 
d="M473 276h-245v-261c-9 -9 -51 -15 -85 -15c-31 0 -63 8 -63 67v620c13 8 32 13 69 13h386c7 -10 16 -30 16 -59c0 -45 -16 -79 -45 -79h-278v-148h274c7 -10 16 -30 16 -59c0 -45 -16 -79 -45 -79z" />
    <glyph glyph-name="G" unicode="G" horiz-adv-x="663" 
d="M492 274h-160c-9 19 -15 32 -15 59c0 29 7 56 74 56h133c75 0 89 -28 89 -108v-268c-16 -10 -32 -13 -66 -13c-31 0 -55 8 -55 55v14c-43 -52 -97 -79 -165 -79c-153 0 -287 106 -287 359c0 257 133 361 321 361c156 0 215 -74 215 -122c0 -38 -30 -59 -56 -66
c-42 40 -83 56 -158 56c-97 0 -185 -60 -185 -233c0 -169 88 -234 166 -234c67 0 114 31 149 91v72z" />
    <glyph glyph-name="H" unicode="H" horiz-adv-x="711" 
d="M562 700c38 0 69 -12 69 -51v-636c-10 -7 -47 -13 -70 -13c-42 0 -79 9 -79 68v227h-254v-279c-9 -9 -51 -16 -85 -16c-31 0 -63 9 -63 68v619c16 8 50 13 81 13c37 0 67 -12 67 -51v-219h254v257c14 7 50 13 80 13z" />
    <glyph glyph-name="I" unicode="I" horiz-adv-x="308" 
d="M162 700c36 0 66 -12 66 -51v-633c-19 -10 -43 -16 -81 -16c-39 0 -67 15 -67 68v619c17 8 45 13 82 13z" />
    <glyph glyph-name="J" unicode="J" horiz-adv-x="416" 
d="M272 700c41 0 64 -14 64 -55v-481c0 -109 -58 -164 -156 -164c-116 0 -160 35 -160 83c0 22 1 34 10 50h104c46 0 65 18 65 54v500c17 9 39 13 73 13z" />
    <glyph glyph-name="K" unicode="K" horiz-adv-x="630" 
d="M157 700c40 0 67 -11 67 -50v-238c94 78 180 199 202 277c15 8 35 11 64 11s54 -23 54 -52c0 -15 -4 -39 -13 -57c-36 -69 -86 -145 -166 -214c66 -62 119 -250 185 -250h38c7 -8 12 -23 12 -48c0 -47 -30 -79 -97 -79c-125 0 -150 186 -237 305l-42 -24v-266
c-17 -10 -47 -15 -81 -15c-38 0 -63 13 -63 67v619c18 8 46 14 77 14z" />
    <glyph glyph-name="L" unicode="L" horiz-adv-x="539" 
d="M153 700c33 0 75 -11 75 -50v-512h280c7 -10 16 -30 16 -59c0 -45 -16 -79 -76 -79h-305c-39 0 -63 17 -63 64v624c14 6 41 12 73 12z" />
    <glyph glyph-name="M" unicode="M" horiz-adv-x="880" 
d="M435 29c-41 0 -71 13 -93 79l-104 316l-24 -369c-3 -41 -30 -55 -78 -55c-27 0 -56 4 -71 11l48 588c5 61 39 101 103 101c34 0 49 -4 69 -11l150 -455l102 385c16 60 46 81 94 81c45 0 63 -4 90 -15l94 -665c-17 -12 -46 -20 -79 -20c-41 0 -74 10 -79 55l-36 369
l-87 -315c-21 -78 -56 -80 -99 -80z" />
    <glyph glyph-name="N" unicode="N" horiz-adv-x="715" 
d="M493 38l-272 392l7 -415c-9 -9 -51 -16 -85 -16c-31 0 -63 9 -63 68v620c19 8 49 13 80 13c33 0 56 -18 69 -38l266 -394l-4 414c15 12 37 19 72 19c34 0 77 -12 77 -51v-638c-12 -7 -37 -12 -76 -12c-32 0 -55 15 -71 38z" />
    <glyph glyph-name="O" unicode="O" horiz-adv-x="682" 
d="M40 349c0 257 135 361 300 361c172 0 302 -104 302 -361c0 -258 -133 -359 -301 -359c-169 0 -301 106 -301 359zM186 345c0 -169 77 -231 155 -231c88 0 153 58 153 231s-70 236 -154 236c-79 0 -154 -63 -154 -236z" />
    <glyph glyph-name="P" unicode="P" horiz-adv-x="629" 
d="M154 700h210c105 0 215 -53 215 -214c0 -199 -133 -235 -227 -235h-124v-238c-14 -8 -48 -13 -82 -13c-36 0 -66 13 -66 67v622c19 8 37 11 74 11zM344 581h-116v-205h102c68 0 109 26 109 98c0 76 -45 107 -95 107z" />
    <glyph glyph-name="Q" unicode="Q" horiz-adv-x="682" 
d="M40 349c0 257 135 361 300 361c172 0 302 -104 302 -361c0 -156 -49 -255 -124 -308c28 -41 56 -61 94 -61h50c6 -9 12 -28 12 -56c0 -54 -35 -94 -104 -94c-83 0 -141 77 -178 164c-17 -2 -34 -4 -51 -4c-169 0 -301 106 -301 359zM186 345c0 -169 77 -231 155 -231
c88 0 153 58 153 231s-70 236 -154 236c-79 0 -154 -63 -154 -236z" />
    <glyph glyph-name="R" unicode="R" horiz-adv-x="672" 
d="M154 700h210c105 0 215 -53 215 -205c0 -101 -65 -168 -140 -197c49 -69 89 -171 143 -171h38c7 -8 12 -23 12 -48c0 -47 -30 -79 -97 -79c-124 0 -141 166 -225 282h-82v-268c-12 -9 -48 -14 -75 -14c-38 0 -73 8 -73 67v622c15 8 42 11 74 11zM344 584h-116v-189h102
c68 0 109 36 109 98c0 57 -45 91 -95 91z" />
    <glyph glyph-name="S" unicode="S" horiz-adv-x="580" 
d="M291 710c114 0 161 -26 193 -57c19 -19 26 -43 26 -65c0 -27 -13 -49 -27 -70c-40 21 -102 38 -191 38c-60 0 -97 -20 -97 -61c0 -32 21 -61 118 -82c155 -33 223 -75 226 -208c3 -122 -72 -215 -247 -215c-109 0 -176 19 -216 49c-28 21 -36 44 -36 74c0 28 10 57 19 72
c57 -29 142 -49 228 -49c82 0 103 34 103 61c0 36 -18 59 -121 77c-157 28 -222 86 -222 223c0 129 87 213 244 213z" />
    <glyph glyph-name="T" unicode="T" horiz-adv-x="573" 
d="M518 562h-159v-550c-15 -8 -42 -12 -82 -12c-34 0 -62 15 -62 67v495h-189c-9 19 -16 43 -16 70c0 34 15 68 66 68h471c7 -10 16 -30 16 -59c0 -45 -16 -79 -45 -79z" />
    <glyph glyph-name="U" unicode="U" horiz-adv-x="674" 
d="M460 271v416c13 8 38 13 75 13c41 0 73 -12 73 -51l1 -394c0 -182 -101 -265 -273 -265s-265 83 -265 265l-1 433c13 8 45 12 77 12c43 0 71 -11 71 -50v-379c0 -96 37 -149 118 -149c92 0 124 52 124 149z" />
    <glyph glyph-name="V" unicode="V" horiz-adv-x="644" 
d="M103 700c38 0 64 -13 76 -48l162 -448c92 156 146 387 153 480c22 11 43 16 81 16c27 0 54 -14 54 -38c0 -12 -1 -33 -11 -85c-13 -68 -91 -319 -236 -567c-20 -7 -36 -10 -60 -10c-35 0 -56 16 -71 57l-236 627c17 9 50 16 88 16z" />
    <glyph glyph-name="W" unicode="W" horiz-adv-x="972" 
d="M471 700c38 0 64 -13 76 -48l152 -448c92 156 116 387 123 480c22 11 43 16 81 16c27 0 54 -14 54 -38c0 -12 -1 -33 -11 -85c-13 -68 -61 -319 -206 -567c-20 -7 -36 -10 -60 -10c-35 0 -56 16 -71 57l-94 261c-39 -99 -88 -211 -143 -306c-20 -7 -36 -10 -60 -10
c-35 0 -56 16 -71 57l-226 625c17 9 50 16 88 16s64 -13 76 -48l152 -446c46 78 87 201 115 302l-63 176c17 9 50 16 88 16z" />
    <glyph glyph-name="X" unicode="X" horiz-adv-x="670" 
d="M114 700c59 0 86 -23 119 -70l104 -149l112 167c22 35 51 52 103 52c48 0 70 -12 81 -29l-211 -312l233 -334c-24 -18 -43 -25 -99 -25c-43 0 -92 23 -122 65l-118 169l-124 -190c-18 -29 -59 -44 -101 -44c-43 0 -62 11 -76 28l212 332l-211 303c16 21 43 37 98 37z" />
    <glyph glyph-name="Y" unicode="Y" horiz-adv-x="589" 
d="M379 246v-230c-12 -8 -40 -16 -82 -16s-65 13 -65 46v192c-87 144 -182 308 -217 444c19 10 48 18 81 18c39 0 60 -10 71 -48c28 -102 83 -201 142 -302c69 120 126 265 145 343c15 5 42 7 70 7c30 0 50 -20 50 -51c0 -72 -118 -289 -195 -403z" />
    <glyph glyph-name="Z" unicode="Z" horiz-adv-x="613" 
d="M550 574l-326 -451h357c6 -12 12 -29 12 -60c0 -30 -12 -63 -56 -63h-505c-9 17 -12 29 -12 52c0 26 7 48 22 68l326 446h-305c-9 19 -16 36 -16 66c0 33 16 68 48 68h473c7 -10 10 -26 10 -49c0 -29 -9 -51 -28 -77z" />
    <glyph glyph-name="bracketleft" unicode="[" horiz-adv-x="388" 
d="M57 -30v722c19 13 49 20 88 20h188c7 -10 16 -30 16 -60c0 -45 -16 -80 -45 -80h-105v-533h134c7 -10 16 -30 16 -59c0 -46 -16 -80 -45 -80h-231c-9 19 -16 43 -16 70z" />
    <glyph glyph-name="backslash" unicode="\" horiz-adv-x="307" 
d="M94 713c37 0 52 -5 67 -13l118 -672c11 -59 -38 -68 -69 -68c-34 0 -59 7 -70 16l-121 686c-6 39 38 51 75 51z" />
    <glyph glyph-name="bracketright" unicode="]" horiz-adv-x="388" 
d="M349 641v-722c-19 -13 -49 -20 -88 -20h-188c-7 10 -16 30 -16 60c0 45 16 80 45 80h105v533h-134c-7 10 -16 30 -16 59c0 46 16 80 45 80h231c9 -19 16 -43 16 -70z" />
    <glyph glyph-name="asciicircum" unicode="^" horiz-adv-x="481" 
d="M404 584c-3 -19 -14 -33 -29 -40c-8 -4 -17 -5 -26 -5c-35 0 -80 37 -122 71c-42 -34 -88 -71 -122 -71c-9 0 -18 1 -26 5c-15 7 -26 21 -29 40c25 9 118 130 174 130c60 0 150 -119 180 -130z" />
    <glyph glyph-name="underscore" unicode="_" horiz-adv-x="593" 
d="M521 -210h-485c-9 19 -16 44 -16 70c0 31 15 68 59 68h480c7 -10 14 -39 14 -65c0 -31 -11 -73 -52 -73z" />
    <glyph glyph-name="grave" unicode="`" horiz-adv-x="530" 
d="M357 579c-5 -28 -27 -45 -55 -45c-53 0 -132 87 -183 119c2 31 18 56 63 56c56 0 150 -120 175 -130z" />
    <glyph glyph-name="a" unicode="a" horiz-adv-x="495" 
d="M79 359c-7 16 -17 37 -17 59c0 76 106 92 172 92c126 0 194 -61 194 -178v-211c0 -14 6 -26 16 -26h28c4 -5 8 -19 8 -43c0 -32 -25 -52 -98 -52c-33 0 -62 23 -74 51c-43 -35 -94 -61 -146 -61c-91 0 -142 63 -142 163c0 92 55 154 164 155l117 1c-6 47 -30 70 -79 70
c-50 0 -107 -7 -143 -20zM189 112c38 0 67 7 114 35v65l-109 -12c-34 -4 -47 -22 -47 -46c0 -22 15 -42 42 -42z" />
    <glyph glyph-name="b" unicode="b" horiz-adv-x="511" 
d="M181 645v-182c33 28 72 47 112 47c115 0 183 -84 183 -245c0 -187 -103 -275 -234 -275c-78 0 -124 16 -171 52c-12 9 -26 29 -26 49v592c17 10 39 17 69 17c37 0 67 -15 67 -55zM255 363c-26 0 -52 -7 -74 -20v-199c15 -11 39 -21 69 -21c59 0 89 54 89 122
c0 73 -28 118 -84 118z" />
    <glyph glyph-name="c" unicode="c" horiz-adv-x="448" 
d="M419 420c0 -19 -12 -50 -32 -73c-46 12 -67 20 -116 20s-100 -30 -100 -124c0 -81 46 -122 105 -122c55 0 96 14 130 32c9 -11 17 -31 17 -60c0 -34 -14 -58 -39 -74c-17 -11 -60 -29 -120 -29c-144 0 -229 103 -229 254c0 201 127 266 232 266c66 0 95 -14 123 -33
c15 -10 29 -26 29 -57z" />
    <glyph glyph-name="d" unicode="d" horiz-adv-x="548" 
d="M444 0c-35 0 -65 15 -85 40c-38 -34 -80 -50 -138 -50c-92 0 -186 72 -186 250c0 183 95 270 198 270c40 0 72 -11 98 -29v170c0 31 20 49 57 49c40 0 65 -9 78 -19v-544c0 -24 9 -33 26 -33h32c5 -14 9 -22 9 -44c0 -31 -23 -60 -89 -60zM256 123c30 0 54 4 75 14v204
c-21 15 -42 19 -74 19c-45 0 -82 -37 -82 -113c0 -81 26 -124 81 -124z" />
    <glyph glyph-name="e" unicode="e" horiz-adv-x="499" 
d="M454 208h-277c12 -62 49 -88 100 -88c60 0 128 14 158 34c11 -10 24 -29 24 -57c0 -32 -14 -51 -32 -63c-39 -27 -75 -44 -164 -44c-146 0 -228 111 -228 266c0 163 113 254 235 254c124 0 194 -89 194 -225c0 -28 -3 -56 -10 -77zM269 382c-34 0 -76 -26 -91 -81h160
c0 55 -24 81 -69 81z" />
    <glyph glyph-name="f" unicode="f" horiz-adv-x="348" 
d="M223 534v-34h96c11 -10 15 -26 15 -45c0 -27 -9 -72 -56 -72h-55v-337c0 -42 -39 -47 -84 -47c-22 0 -50 6 -62 16v368h-44c-8 14 -13 30 -13 51c0 35 13 66 57 66v54c0 111 54 160 149 160c103 0 122 -30 122 -73c0 -30 -7 -51 -15 -63h-64c-27 0 -46 -10 -46 -44z" />
    <glyph glyph-name="g" unicode="g" horiz-adv-x="511" 
d="M447 397h-31c8 -24 13 -51 13 -82c0 -139 -89 -193 -198 -193c-26 0 -50 3 -72 10c-3 -8 -4 -16 -4 -24c0 -28 21 -40 54 -40h134c81 0 131 -37 131 -120c0 -122 -104 -194 -247 -194c-108 0 -197 45 -197 110c0 22 15 52 37 73c40 -39 87 -61 158 -61
c83 0 123 28 123 53c0 12 -13 21 -34 21h-125c-108 0 -155 39 -155 110c0 46 24 87 48 116c-30 31 -48 77 -48 139c0 138 89 195 197 195c48 0 91 -11 126 -35c9 14 25 25 48 25h74c7 -9 12 -24 12 -46c0 -30 -7 -57 -44 -57zM177 311c0 -60 26 -81 55 -81c28 0 52 19 52 81
c0 63 -24 84 -52 84c-29 0 -55 -21 -55 -84z" />
    <glyph glyph-name="h" unicode="h" horiz-adv-x="529" 
d="M115 700c37 0 66 -13 66 -52v-201c37 38 83 63 138 63c87 0 144 -49 144 -174v-216c0 -17 7 -24 17 -24h27c5 -8 7 -17 7 -34c0 -34 -35 -62 -112 -62c-48 0 -82 26 -82 97v200c0 44 -18 66 -57 66c-27 0 -56 -13 -82 -32v-318c-13 -8 -41 -13 -75 -13
c-31 0 -66 9 -66 68v616c15 9 43 16 75 16z" />
    <glyph glyph-name="i" unicode="i" horiz-adv-x="302" 
d="M118 500c55 0 106 -17 106 -117v-247c0 -21 7 -30 22 -30h33c5 -11 8 -22 8 -43c0 -38 -29 -63 -105 -63c-66 0 -101 25 -101 112v231c0 24 -11 31 -24 31h-29c-6 12 -8 27 -8 51c0 53 37 75 98 75zM58 629c0 53 25 80 80 80c53 0 80 -27 80 -80c0 -54 -27 -80 -80 -80
c-54 0 -80 27 -80 80z" />
    <glyph glyph-name="j" unicode="j" horiz-adv-x="281" 
d="M124 500c66 0 94 -28 94 -108v-407c0 -112 -44 -165 -134 -165c-71 0 -129 13 -129 69c0 22 1 38 10 58h74c34 0 46 30 46 66v330c0 24 -11 31 -24 31h-35c-4 15 -8 29 -8 58c0 42 36 68 106 68zM61 629c0 53 25 80 80 80c53 0 80 -27 80 -80c0 -54 -27 -80 -80 -80
c-54 0 -80 27 -80 80z" />
    <glyph glyph-name="k" unicode="k" horiz-adv-x="506" 
d="M112 701c34 0 77 -12 77 -51v-335c67 53 94 114 103 171c13 7 38 14 61 14c45 0 73 -16 73 -63c0 -51 -61 -128 -126 -158c47 -37 83 -140 144 -140h46c7 -9 11 -30 11 -54c0 -49 -37 -85 -92 -85c-116 0 -150 157 -220 224v-209c-12 -8 -47 -15 -81 -15
c-31 0 -63 8 -63 67v615c15 12 32 19 67 19z" />
    <glyph glyph-name="l" unicode="l" horiz-adv-x="308" 
d="M185 638v-470c0 -39 16 -52 46 -52h66c4 -12 6 -21 6 -40c0 -37 -34 -76 -136 -76c-88 0 -122 56 -122 137v543c15 13 30 23 69 22c53 -2 71 -30 71 -64z" />
    <glyph glyph-name="m" unicode="m" horiz-adv-x="886" 
d="M134 500c47 0 91 -28 105 -81c48 63 95 91 160 91c49 0 94 -25 113 -86c47 53 102 86 162 86c72 0 136 -43 136 -158v-231c0 -17 8 -26 21 -26h33c4 -7 7 -13 7 -33c0 -38 -41 -62 -115 -62c-63 0 -92 26 -92 97v215c0 29 -12 46 -43 46c-35 0 -70 -11 -99 -32v-205
c0 -17 4 -26 19 -26h33c3 -7 5 -17 5 -34c0 -41 -42 -61 -118 -61c-58 0 -88 26 -88 97v215c0 29 -11 46 -43 46c-28 0 -60 -12 -86 -30v-314c-16 -10 -44 -14 -83 -14c-36 0 -69 15 -69 74v269c0 21 -9 31 -28 31h-31c-8 17 -13 32 -13 56c0 48 45 70 114 70z" />
    <glyph glyph-name="n" unicode="n" horiz-adv-x="607" 
d="M130 500c46 0 89 -27 106 -71c46 52 96 81 159 81c75 0 136 -43 136 -158v-231c0 -17 8 -26 21 -26h34c4 -7 6 -13 6 -33c0 -38 -40 -62 -114 -62c-64 0 -92 26 -92 97v215c0 29 -18 49 -49 49c-34 0 -65 -13 -93 -34v-313c-16 -10 -44 -14 -83 -14c-36 0 -69 15 -69 74
v269c0 21 -9 31 -28 31h-31c-8 17 -13 32 -13 56c0 48 36 70 110 70z" />
    <glyph glyph-name="o" unicode="o" horiz-adv-x="553" 
d="M35 248c0 185 106 262 241 262c139 0 242 -77 242 -262c0 -186 -106 -258 -242 -258c-137 0 -241 76 -241 258zM187 246c0 -95 42 -128 89 -128c52 0 88 31 88 128s-38 133 -88 133c-48 0 -89 -36 -89 -133z" />
    <glyph glyph-name="p" unicode="p" horiz-adv-x="567" 
d="M128 500c44 0 78 -25 93 -65c39 45 87 75 138 75c102 0 171 -69 172 -252c1 -171 -91 -268 -192 -268c-41 0 -77 13 -108 37v-183c-16 -10 -38 -14 -77 -14c-37 0 -70 15 -70 74v439c0 21 -8 31 -27 31h-29c-8 17 -13 32 -13 56c0 48 36 70 113 70zM310 358
c-28 0 -53 -10 -79 -27v-172c18 -18 45 -32 72 -32c56 0 85 47 85 115c0 86 -28 116 -78 116z" />
    <glyph glyph-name="q" unicode="q" horiz-adv-x="563" 
d="M342 -117v147c-35 -25 -74 -40 -122 -40c-113 0 -185 87 -185 256c0 176 87 264 211 264c53 0 91 -25 121 -60c23 31 60 50 102 50c56 0 79 -22 79 -63c0 -31 -3 -49 -9 -63h-32c-21 0 -31 -11 -31 -34v-495c-12 -7 -36 -15 -70 -15c-41 0 -64 17 -64 53zM254 124
c33 0 61 7 88 22v183c-22 22 -51 34 -89 34c-39 0 -80 -31 -80 -117c0 -80 28 -122 81 -122z" />
    <glyph glyph-name="r" unicode="r" horiz-adv-x="455" 
d="M115 500c47 0 90 -10 107 -60c38 40 89 70 133 70c68 0 95 -38 95 -111c0 -86 -36 -117 -91 -117c-19 0 -40 8 -51 17c0 29 -7 47 -29 47c-19 0 -33 -1 -49 -12v-320c-10 -9 -43 -14 -80 -14c-33 0 -67 8 -67 67v276c0 24 -10 31 -24 31h-34c-7 20 -10 36 -10 60
c0 34 39 66 100 66z" />
    <glyph glyph-name="s" unicode="s" horiz-adv-x="446" 
d="M226 510c127 0 171 -50 171 -93c0 -32 -4 -62 -17 -78c-29 16 -104 28 -156 28c-43 0 -60 -10 -60 -25c0 -16 16 -26 74 -33c125 -16 178 -64 178 -158c0 -99 -61 -161 -188 -161c-133 0 -198 37 -198 93c0 34 6 56 21 75c39 -19 113 -37 168 -37c52 0 66 12 66 27
c0 18 -21 29 -81 36c-130 17 -165 67 -165 162c0 101 64 164 187 164z" />
    <glyph glyph-name="t" unicode="t" horiz-adv-x="386" 
d="M304 383h-75v-210c0 -40 13 -52 42 -52h86c5 -12 9 -20 9 -42c0 -43 -24 -79 -146 -79c-71 0 -128 34 -128 145v238h-59c-8 14 -13 30 -13 51c0 42 11 66 49 66h23v106c15 8 44 15 75 15c36 0 62 -15 62 -57v-64h116c11 -10 15 -26 15 -45c0 -27 -9 -72 -56 -72z" />
    <glyph glyph-name="u" unicode="u" horiz-adv-x="611" 
d="M480 0c-34 0 -77 11 -96 59c-41 -43 -92 -69 -154 -69c-67 0 -139 43 -139 158v198c0 21 -8 28 -23 28h-45c-5 16 -8 29 -7 57c2 47 57 69 117 69c74 0 110 -24 110 -93v-219c0 -29 20 -49 43 -49c42 0 67 12 89 38v307c19 10 52 16 83 16c50 0 71 -19 71 -55l1 -298
c0 -24 12 -31 26 -31h36c2 -8 4 -17 4 -45c0 -41 -33 -71 -116 -71z" />
    <glyph glyph-name="v" unicode="v" horiz-adv-x="521" 
d="M92 500c64 0 89 -28 100 -60l86 -254c42 55 74 133 74 172c0 22 -11 30 -26 30h-29c-4 10 -8 29 -8 55c0 35 34 57 92 57c81 0 110 -37 110 -106c0 -78 -65 -229 -147 -344c-25 -35 -45 -50 -88 -50c-18 0 -40 4 -54 12l-127 347c-7 19 -19 29 -33 29h-16
c-6 14 -11 29 -11 56c0 30 29 56 77 56z" />
    <glyph glyph-name="w" unicode="w" horiz-adv-x="795" 
d="M502 12l-71 209c-18 -53 -41 -104 -68 -147c-34 -54 -55 -74 -97 -74c-25 0 -42 5 -54 12l-125 357c-4 12 -12 19 -25 19h-39c-5 15 -8 29 -8 50c0 39 38 62 112 62c57 0 78 -24 90 -59l78 -232c37 49 66 113 66 152c0 12 -6 27 -20 27h-27c-5 12 -9 27 -9 47
c0 37 39 65 106 65c40 0 65 -20 74 -50l77 -243c39 50 62 111 62 156c0 15 -13 25 -23 25h-26c-4 11 -8 27 -8 48c0 37 41 64 102 64c73 0 96 -43 96 -103c0 -81 -60 -235 -116 -325c-27 -44 -53 -72 -96 -72c-25 0 -38 4 -51 12z" />
    <glyph glyph-name="x" unicode="x" horiz-adv-x="533" 
d="M134 500c56 0 82 -22 110 -70l33 -57l38 68c19 34 57 59 85 59c76 0 97 -47 92 -89l-145 -159l51 -87c24 -42 43 -52 64 -52h43c7 -12 8 -25 8 -44c0 -43 -38 -69 -113 -69c-42 0 -82 21 -108 64l-41 68l-55 -79c-24 -35 -60 -53 -94 -53c-51 0 -78 41 -82 90l160 160
l-74 122c-6 9 -17 16 -34 16h-40c-4 13 -6 26 -6 41c0 45 50 71 108 71z" />
    <glyph glyph-name="y" unicode="y" horiz-adv-x="560" 
d="M217 419l77 -241c4 -14 11 -23 19 -28c41 84 73 164 73 209c0 18 -8 29 -24 29h-31c-5 11 -9 30 -9 50c0 38 44 62 96 62c82 0 112 -39 112 -101c0 -94 -85 -278 -159 -411c-69 -124 -154 -158 -256 -158c-54 0 -84 20 -84 64c0 15 2 29 11 50h94c44 0 78 22 115 86
c-32 8 -57 34 -68 71l-95 261c-6 19 -15 26 -29 26h-35c-7 15 -9 34 -9 50c0 37 37 62 103 62c56 0 83 -27 99 -81z" />
    <glyph glyph-name="z" unicode="z" horiz-adv-x="494" 
d="M30 55c0 22 3 39 17 56l221 272h-205c-8 14 -13 30 -13 51c0 35 5 66 55 66h333c5 -11 9 -26 9 -49c0 -26 -10 -43 -23 -60l-210 -269h239c6 -11 11 -25 11 -60c0 -27 -8 -62 -54 -62h-366c-8 14 -14 34 -14 55z" />
    <glyph glyph-name="braceleft" unicode="{" horiz-adv-x="391" 
d="M238 712c81 0 123 -24 123 -83c0 -19 -3 -34 -7 -46h-87c-34 0 -52 -22 -52 -57v-133c0 -73 -38 -89 -53 -91v-7c14 -1 53 -22 53 -93v-113c0 -48 21 -65 51 -65h87c5 -9 8 -24 8 -42c0 -53 -35 -82 -132 -82c-62 0 -141 33 -141 128v157c0 48 -20 55 -40 58
c-18 2 -28 23 -28 58c0 20 2 40 8 48c29 1 60 10 60 54v155c0 120 74 154 150 154z" />
    <glyph glyph-name="bar" unicode="|" horiz-adv-x="288" 
d="M147 713c42 0 71 -12 71 -51v-746c-19 -10 -45 -16 -85 -16c-37 0 -63 18 -63 59v741c14 8 45 13 77 13z" />
    <glyph glyph-name="braceright" unicode="}" horiz-adv-x="391" 
d="M143 -100c-81 0 -123 24 -123 83c0 19 3 34 7 46h87c34 0 52 22 52 57v133c0 73 38 89 53 91v7c-14 1 -53 22 -53 93v113c0 48 -21 65 -51 65h-87c-5 9 -8 24 -8 42c0 53 35 82 132 82c62 0 141 -33 141 -128v-157c0 -48 20 -55 40 -58c18 -2 28 -23 28 -58
c0 -20 -2 -40 -8 -48c-29 -1 -60 -10 -60 -54v-155c0 -120 -74 -154 -150 -154z" />
    <glyph glyph-name="asciitilde" unicode="~" horiz-adv-x="484" 
d="M142 681c66 0 103 -28 156 -28c40 0 58 16 60 23c13 -5 30 -30 30 -57c0 -36 -25 -62 -73 -62c-55 0 -123 27 -179 27c-23 0 -41 -9 -44 -24c-22 6 -28 29 -28 51c0 29 21 70 78 70z" />
    <glyph glyph-name="uni00A0" unicode="&#xa0;" horiz-adv-x="180" 
 />
    <glyph glyph-name="exclamdown" unicode="&#xa1;" horiz-adv-x="248" 
d="M129 -201c-37 0 -79 12 -79 51v437c9 9 42 18 75 18c43 0 73 -21 73 -80v-413c-13 -8 -32 -13 -69 -13zM195 428c0 -48 -22 -72 -72 -72c-48 0 -72 24 -72 72c0 49 24 72 72 72c49 0 72 -24 72 -72z" />
    <glyph glyph-name="cent" unicode="&#xa2;" horiz-adv-x="476" 
d="M424 420c0 -19 -12 -50 -32 -73c-25 6 -46 12 -68 15l-6 -238c36 6 69 16 93 29c9 -11 17 -31 17 -60c0 -34 -14 -58 -39 -74c-13 -8 -38 -19 -74 -25l-3 -93c-7 -7 -28 -11 -54 -11c-24 1 -41 8 -40 42l2 62c-114 21 -180 117 -180 250c0 176 98 248 193 263l3 89
c10 6 26 10 46 9c28 -1 49 -10 48 -41l-3 -59c30 -5 49 -16 68 -28c15 -10 29 -26 29 -57zM164 243c0 -59 24 -96 59 -113l6 231c-36 -12 -65 -46 -65 -118z" />
    <glyph glyph-name="sterling" unicode="&#xa3;" horiz-adv-x="592" 
d="M532 0h-500c-7 20 -13 37 -13 69c0 33 9 63 40 69c29 6 49 21 59 124h-66c-9 19 -16 37 -16 63c0 43 7 75 67 75h21v8c0 169 94 286 231 286c125 0 192 -19 192 -82c0 -33 -16 -70 -37 -80c-32 14 -65 24 -144 24c-83 0 -99 -68 -99 -146v-10h164c7 -10 14 -26 14 -52
c0 -31 -11 -86 -72 -86h-115c-4 -47 -12 -94 -36 -124h339c7 -10 16 -30 16 -59c0 -45 -16 -79 -45 -79z" />
    <glyph glyph-name="currency" unicode="&#xa4;" horiz-adv-x="515" 
d="M68 252c0 23 4 45 12 66l-7 5c-32 22 -54 62 -51 90c6 75 55 92 96 84l67 -74c21 8 43 13 67 13c19 0 38 -3 55 -9l8 14c19 34 57 59 85 59c76 0 97 -47 92 -89l-74 -81c12 -24 18 -50 18 -78c0 -22 -4 -42 -11 -61l24 -20c33 -27 48 -65 45 -99c-5 -50 -48 -74 -97 -74
l-72 85c-23 -10 -47 -15 -73 -15c-15 0 -29 2 -42 5l-14 -20c-24 -35 -60 -53 -94 -53c-51 0 -78 41 -82 90l71 72c-15 27 -23 57 -23 90zM172 252c0 -44 36 -80 80 -80s80 36 80 80s-36 80 -80 80s-80 -36 -80 -80z" />
    <glyph glyph-name="yen" unicode="&#xa5;" 
d="M374 246v-36h152c7 -8 14 -21 14 -41c0 -25 -11 -69 -72 -69h-94v-84c-12 -8 -40 -16 -82 -16s-65 13 -65 46v54h-146c-9 15 -16 29 -16 50c0 35 7 60 62 60h100v28l-9 14h-137c-9 15 -16 29 -16 56c0 29 7 57 60 54l32 -2c-58 110 -107 223 -132 322c19 10 40 18 73 18
c39 0 60 -10 71 -48c30 -107 75 -210 134 -316c71 123 126 276 146 357c15 5 34 7 62 7c30 0 50 -20 50 -51c0 -52 -58 -180 -119 -290l84 3c7 -8 14 -21 14 -41c0 -25 -23 -69 -84 -69h-78c-2 -2 -3 -4 -4 -6z" />
    <glyph glyph-name="brokenbar" unicode="&#xa6;" horiz-adv-x="288" 
d="M139 713c37 0 79 -12 79 -51v-305c-9 -9 -51 -16 -85 -16c-31 0 -63 9 -63 68v291c13 8 32 13 69 13zM139 272c37 0 79 -12 79 -51v-305c-9 -9 -51 -16 -85 -16c-31 0 -63 9 -63 68v291c13 8 32 13 69 13z" />
    <glyph glyph-name="section" unicode="&#xa7;" horiz-adv-x="586" 
d="M304 719c116 0 186 -42 186 -89c0 -44 -20 -66 -40 -83c-30 16 -97 35 -155 35c-80 0 -97 -16 -97 -33c0 -22 31 -38 126 -56c114 -21 214 -68 214 -162c0 -49 -24 -92 -57 -137c19 -20 31 -43 32 -71c2 -108 -89 -167 -227 -167c-144 0 -217 59 -217 93c0 48 9 55 28 74
c37 -20 118 -36 181 -36c68 0 102 10 102 28c0 24 -47 39 -141 59c-126 27 -203 71 -203 162c0 52 36 90 66 117c-23 24 -34 55 -34 97c0 95 67 169 236 169zM251 385c-24 6 -45 12 -64 19c-15 -18 -28 -40 -28 -59c0 -27 52 -55 140 -72c30 -6 60 -14 87 -23
c15 22 25 42 25 58c0 32 -59 52 -160 77z" />
    <glyph glyph-name="dieresis" unicode="&#xa8;" horiz-adv-x="488" 
d="M52 631c0 48 22 72 72 72c48 0 72 -24 72 -72c0 -49 -24 -72 -72 -72c-49 0 -72 24 -72 72zM256 631c0 48 22 72 72 72c48 0 72 -24 72 -72c0 -49 -24 -72 -72 -72c-49 0 -72 24 -72 72z" />
    <glyph glyph-name="copyright" unicode="&#xa9;" horiz-adv-x="770" 
d="M25 350c0 218 139 360 360 360c219 0 360 -142 360 -360c0 -219 -141 -360 -360 -360c-221 0 -360 141 -360 360zM146 351c0 -146 93 -240 239 -240s239 94 239 240c0 145 -93 239 -239 239s-239 -94 -239 -239zM497 474c0 -14 -15 -44 -29 -59c-30 8 -44 14 -77 14
s-66 -21 -66 -84c0 -53 30 -81 70 -81c36 0 63 10 86 21c6 -6 19 -27 19 -48c0 -25 -10 -42 -28 -53c-12 -9 -43 -22 -88 -22c-104 0 -165 75 -165 184c0 146 92 193 168 193c48 0 69 -10 89 -24c11 -7 21 -18 21 -41z" />
    <glyph glyph-name="ordfeminine" unicode="&#xaa;" horiz-adv-x="257" 
d="M50 514c-6 6 -14 14 -14 42c0 35 62 45 89 44c38 -1 99 -9 99 -92v-90c0 -7 2 -14 6 -14c5 0 7 1 11 2c4 -2 8 -12 8 -21c0 -28 -16 -36 -45 -36c-31 0 -43 12 -47 27c-20 -16 -42 -28 -70 -28c-48 0 -76 31 -76 83c0 43 30 68 89 70l52 2c-5 15 -16 21 -33 21
c-31 0 -53 -6 -69 -10zM104 416c17 0 29 4 51 15v20l-49 -6c-16 -2 -20 -7 -20 -15s6 -14 18 -14z" />
    <glyph glyph-name="guillemotleft" unicode="&#xab;" horiz-adv-x="509" 
d="M47 317l119 138c10 4 21 6 29 6c40 0 64 -34 64 -62c0 -21 -7 -35 -18 -48l-89 -108l100 -129c3 -7 5 -13 5 -28c0 -36 -38 -56 -65 -56c-19 0 -37 7 -53 27l-99 127c-9 16 -15 37 -15 66c0 27 8 50 22 67zM272 317l119 138c10 4 21 6 29 6c40 0 64 -34 64 -62
c0 -21 -7 -35 -18 -48l-89 -108l100 -129c3 -7 5 -13 5 -28c0 -36 -38 -56 -65 -56c-19 0 -37 7 -53 27l-99 127c-9 16 -15 37 -15 66c0 27 8 50 22 67z" />
    <glyph glyph-name="logicalnot" unicode="&#xac;" horiz-adv-x="514" 
d="M369 117c-31 0 -63 9 -63 68v108h-245c-9 19 -16 37 -16 73c0 34 16 65 57 65h338c9 -17 14 -42 14 -68v-230c-9 -9 -51 -16 -85 -16z" />
    <glyph glyph-name="uni00AD" unicode="&#xad;" horiz-adv-x="420" 
d="M302 195h-240c-9 19 -16 37 -16 68c0 40 16 70 67 70h246c8 -12 14 -34 14 -65c0 -42 -15 -73 -71 -73z" />
    <glyph glyph-name="registered" unicode="&#xae;" horiz-adv-x="572" 
d="M25 443c0 158 101 261 261 261c159 0 261 -103 261 -261c0 -159 -102 -261 -261 -261c-160 0 -261 102 -261 261zM105 444c0 -111 70 -182 181 -182s181 71 181 182c0 110 -70 181 -181 181s-181 -71 -181 -181zM216 570h80c39 0 87 -20 87 -79c0 -35 -22 -59 -48 -72
c15 -20 27 -46 45 -46h17c4 -4 6 -11 6 -23c0 -23 -15 -39 -47 -39c-54 0 -54 52 -86 98h-16v-91c-6 -5 -25 -7 -39 -7c-19 0 -37 4 -37 33v221c8 4 22 5 38 5zM286 513h-32v-49h27c22 0 31 12 31 26c0 11 -15 23 -26 23z" />
    <glyph glyph-name="macron" unicode="&#xaf;" horiz-adv-x="464" 
d="M341 558h-262c-9 14 -16 28 -16 47c0 33 7 57 74 57h262c7 -8 14 -20 14 -39c0 -24 -11 -65 -72 -65z" />
    <glyph glyph-name="degree" unicode="&#xb0;" horiz-adv-x="349" 
d="M20 545c0 85 69 155 154 155s155 -70 155 -155s-70 -154 -155 -154s-154 69 -154 154zM105 546c0 -39 31 -70 70 -70s70 31 70 70s-31 70 -70 70s-70 -31 -70 -70z" />
    <glyph glyph-name="plusminus" unicode="&#xb1;" horiz-adv-x="499" 
d="M320 468v-80h120c7 -10 14 -36 14 -69c0 -37 -11 -69 -56 -69h-78v-123c-19 -9 -44 -13 -70 -13c-43 0 -68 14 -68 74v62h-124c-9 19 -13 37 -13 71c0 30 12 67 46 67h91v121c10 7 41 14 72 14c33 0 66 -11 66 -55zM388 -19h-327c-9 15 -16 30 -16 58s16 52 57 52h338
c9 -13 14 -33 14 -54c0 -25 -11 -56 -66 -56z" />
    <glyph glyph-name="twosuperior" unicode="&#xb2;" horiz-adv-x="359" 
d="M27 626c0 37 49 72 142 72c110 0 155 -53 155 -123c0 -76 -85 -152 -173 -203v-4l178 4c4 -7 7 -26 7 -45c0 -29 -7 -42 -31 -42h-273c-5 11 -9 21 -9 49s5 47 31 67c62 47 165 123 165 158c0 30 -18 43 -58 43c-39 0 -79 -14 -105 -33c-16 12 -29 32 -29 57z" />
    <glyph glyph-name="threesuperior" unicode="&#xb3;" horiz-adv-x="347" 
d="M203 563c0 24 -15 37 -51 37s-73 -10 -102 -27c-15 12 -26 27 -26 53c0 36 45 72 134 72c107 0 147 -52 147 -114c0 -43 -28 -83 -65 -91v-1c38 -5 75 -38 75 -93c0 -58 -43 -120 -154 -120c-105 0 -143 40 -143 74c0 28 10 43 31 56c24 -22 59 -42 107 -42
c36 0 59 17 59 41c0 27 -13 40 -54 40h-24c-14 0 -22 16 -22 38c0 18 2 26 7 35c40 1 81 14 81 42z" />
    <glyph glyph-name="acute" unicode="&#xb4;" horiz-adv-x="517" 
d="M119 582c25 10 119 130 175 130c45 0 61 -25 63 -56c-51 -32 -130 -119 -183 -119c-28 0 -50 17 -55 45z" />
    <glyph glyph-name="mu" unicode="&#xb5;" horiz-adv-x="578" 
d="M477 0c-34 0 -77 11 -96 59c-33 -34 -72 -58 -118 -66c-12 -2 -24 -3 -36 -3v-145c-10 -9 -35 -15 -72 -15c-33 0 -67 10 -67 68v448c0 21 -8 28 -23 28h-45c-5 16 -8 29 -7 57c2 47 57 69 117 69c74 0 110 -25 110 -93v-146c0 -52 -10 -122 43 -122c42 0 67 12 89 38
v307c19 10 52 16 83 16c50 0 71 -18 71 -55c0 -99 1 -199 1 -298c0 -24 12 -31 26 -31h36c2 -8 4 -17 4 -45c0 -21 -8 -38 -27 -51s-48 -20 -89 -20z" />
    <glyph glyph-name="paragraph" unicode="&#xb6;" horiz-adv-x="793" 
d="M718 562h-60v-719c-10 -7 -38 -13 -61 -13c-42 0 -79 9 -79 68v664h-88l-1 -592c0 -87 -72 -119 -140 -119c-40 0 -74 35 -74 74c37 13 75 22 75 73v182c-144 0 -260 115 -260 260c0 143 116 260 260 260h457c7 -10 16 -30 16 -59c0 -45 -16 -79 -45 -79z" />
    <glyph glyph-name="periodcentered" unicode="&#xb7;" horiz-adv-x="224" 
d="M40 264c0 48 22 72 72 72c48 0 72 -24 72 -72c0 -49 -24 -72 -72 -72c-49 0 -72 24 -72 72z" />
    <glyph glyph-name="cedilla" unicode="&#xb8;" horiz-adv-x="545" 
d="M292 -113c0 26 -44 35 -70 35c-5 6 -9 16 -9 25l1 70l76 -1l-5 -46c62 -12 79 -44 79 -90c0 -52 -33 -92 -104 -92c-64 0 -96 29 -96 56c0 19 8 33 20 41c17 -15 44 -28 71 -28c28 0 37 13 37 30z" />
    <glyph glyph-name="onesuperior" unicode="&#xb9;" horiz-adv-x="357" 
d="M318 285h-270c-6 12 -11 24 -11 40c0 28 5 48 51 48h62v200c-24 -15 -51 -22 -72 -22c-25 0 -42 14 -42 44c0 18 3 28 10 39c42 3 93 29 104 60c10 4 32 7 51 7c30 0 48 -11 48 -33v-295h89c4 -6 11 -19 11 -37c0 -29 -11 -51 -31 -51z" />
    <glyph glyph-name="ordmasculine" unicode="&#xba;" horiz-adv-x="277" 
d="M15 474c0 92 55 129 122 129c70 0 125 -37 125 -129s-55 -127 -124 -127s-123 37 -123 127zM101 473c0 -42 19 -57 37 -57c21 0 36 13 36 57s-17 59 -37 59c-18 0 -36 -15 -36 -59z" />
    <glyph glyph-name="guillemotright" unicode="&#xbb;" horiz-adv-x="509" 
d="M237 174l-119 -138c-10 -4 -21 -6 -29 -6c-40 0 -64 34 -64 62c0 21 7 35 18 48l89 108l-100 129c-3 7 -5 13 -5 28c0 36 38 56 65 56c19 0 37 -7 53 -27l99 -127c9 -16 15 -37 15 -66c0 -27 -8 -50 -22 -67zM462 174l-119 -138c-10 -4 -21 -6 -29 -6
c-40 0 -64 34 -64 62c0 21 7 35 18 48l89 108l-100 129c-3 7 -5 13 -5 28c0 36 38 56 65 56c19 0 37 -7 53 -27l99 -127c9 -16 15 -37 15 -66c0 -27 -8 -50 -22 -67z" />
    <glyph glyph-name="onequarter" unicode="&#xbc;" horiz-adv-x="919" 
d="M602 700c43 0 63 -19 49 -56l-244 -635c-12 -6 -16 -11 -49 -11c-42 0 -64 18 -43 74l233 621c16 5 27 7 54 7zM318 285h-270c-6 12 -11 24 -11 40c0 28 5 48 51 48h62v200c-24 -15 -51 -22 -72 -22c-25 0 -42 14 -42 44c0 18 3 28 10 39c42 3 93 29 104 60
c10 4 32 7 51 7c30 0 48 -11 48 -33v-295h89c4 -6 11 -19 11 -37c0 -29 -11 -51 -31 -51zM793 302c26 0 45 -8 45 -33v-114h60c5 -6 10 -19 10 -41c0 -26 -11 -38 -31 -38h-38v-69c-9 -4 -29 -7 -52 -7c-24 0 -41 10 -41 32l-1 44h-188c-6 7 -8 18 -8 29s4 28 9 43l84 257
c11 5 29 9 56 9c25 0 38 -15 32 -34l-69 -225h84l-1 134c11 7 28 13 49 13z" />
    <glyph glyph-name="onehalf" unicode="&#xbd;" horiz-adv-x="946" 
d="M602 700c43 0 63 -19 49 -56l-244 -635c-12 -6 -16 -11 -49 -11c-42 0 -64 18 -43 74l233 621c16 5 27 7 54 7zM318 285h-270c-6 12 -11 24 -11 40c0 28 5 48 51 48h62v200c-24 -15 -51 -22 -72 -22c-25 0 -42 14 -42 44c0 18 3 28 10 39c42 3 93 29 104 60
c10 4 32 7 51 7c30 0 48 -11 48 -33v-295h89c4 -6 11 -19 11 -37c0 -29 -11 -51 -31 -51zM614 341c0 37 49 72 142 72c110 0 155 -53 155 -123c0 -76 -85 -152 -173 -203v-4l178 4c4 -7 7 -26 7 -45c0 -29 -7 -42 -31 -42h-273c-5 11 -9 21 -9 49s5 47 31 67
c62 47 165 123 165 158c0 30 -18 43 -58 43c-39 0 -79 -14 -105 -33c-16 12 -29 32 -29 57z" />
    <glyph glyph-name="threequarters" unicode="&#xbe;" horiz-adv-x="867" 
d="M550 700c43 0 63 -19 49 -56l-244 -635c-12 -6 -16 -11 -49 -11c-42 0 -64 18 -43 74l233 621c16 5 27 7 54 7zM203 563c0 24 -15 37 -51 37s-73 -10 -102 -27c-15 12 -26 27 -26 53c0 36 45 72 134 72c107 0 147 -52 147 -114c0 -43 -28 -83 -65 -91v-1
c38 -5 75 -38 75 -93c0 -58 -43 -120 -154 -120c-105 0 -143 40 -143 74c0 28 10 43 31 56c24 -22 59 -42 107 -42c36 0 59 17 59 41c0 27 -13 40 -54 40h-24c-14 0 -22 16 -22 38c0 18 2 26 7 35c40 1 81 14 81 42zM741 302c26 0 45 -8 45 -33v-114h60c5 -6 10 -19 10 -41
c0 -26 -11 -38 -31 -38h-38v-69c-9 -4 -29 -7 -52 -7c-24 0 -41 10 -41 32l-1 44h-188c-6 7 -8 18 -8 29s4 28 9 43l84 257c11 5 29 9 56 9c25 0 38 -15 32 -34l-69 -225h84l-1 134c11 7 28 13 49 13z" />
    <glyph glyph-name="questiondown" unicode="&#xbf;" horiz-adv-x="498" 
d="M181 40c0 -55 27 -80 87 -80c58 0 115 26 154 59c23 -18 42 -48 42 -88c0 -59 -69 -120 -206 -120c-162 0 -225 87 -225 190c0 98 49 182 190 200l-9 98c10 13 30 19 67 19s60 -22 62 -52l6 -96c1 -21 -4 -41 -14 -54c-52 -2 -154 -21 -154 -76zM343 428
c0 -48 -22 -72 -72 -72c-48 0 -72 24 -72 72c0 49 24 72 72 72c49 0 72 -24 72 -72z" />
    <glyph glyph-name="Agrave" unicode="&#xc0;" horiz-adv-x="660" 
d="M87 0c-38 0 -58 6 -72 20l233 657c21 12 40 23 87 23c43 0 66 -20 77 -49l233 -620c-15 -26 -48 -31 -75 -31c-40 0 -71 15 -86 61l-27 73h-258l-28 -85c-12 -37 -35 -49 -84 -49zM322 496l-81 -239h170zM449 779c-5 -28 -27 -45 -55 -45c-53 0 -132 87 -183 119
c2 31 18 56 63 56c56 0 150 -120 175 -130z" />
    <glyph glyph-name="Aacute" unicode="&#xc1;" horiz-adv-x="660" 
d="M87 0c-38 0 -58 6 -72 20l233 657c21 12 40 23 87 23c43 0 66 -20 77 -49l233 -620c-15 -26 -48 -31 -75 -31c-40 0 -71 15 -86 61l-27 73h-258l-28 -85c-12 -37 -35 -49 -84 -49zM322 496l-81 -239h170zM211 782c25 10 119 130 175 130c45 0 61 -25 63 -56
c-51 -32 -130 -119 -183 -119c-28 0 -50 17 -55 45z" />
    <glyph glyph-name="Acircumflex" unicode="&#xc2;" horiz-adv-x="660" 
d="M87 0c-38 0 -58 6 -72 20l233 657c21 12 40 23 87 23c43 0 66 -20 77 -49l233 -620c-15 -26 -48 -31 -75 -31c-40 0 -71 15 -86 61l-27 73h-258l-28 -85c-12 -37 -35 -49 -84 -49zM322 496l-81 -239h170zM507 784c-3 -19 -14 -33 -29 -40c-8 -4 -17 -5 -26 -5
c-35 0 -80 37 -122 71c-42 -34 -88 -71 -122 -71c-9 0 -18 1 -26 5c-15 7 -26 21 -29 40c25 9 118 130 174 130c60 0 150 -119 180 -130z" />
    <glyph glyph-name="Atilde" unicode="&#xc3;" horiz-adv-x="660" 
d="M87 0c-38 0 -58 6 -72 20l233 657c21 12 40 23 87 23c43 0 66 -20 77 -49l233 -620c-15 -26 -48 -31 -75 -31c-40 0 -71 15 -86 61l-27 73h-258l-28 -85c-12 -37 -35 -49 -84 -49zM322 496l-81 -239h170zM246 881c66 0 103 -28 156 -28c40 0 58 16 60 23
c13 -5 30 -30 30 -57c0 -36 -25 -62 -73 -62c-55 0 -123 27 -179 27c-23 0 -41 -9 -44 -24c-22 6 -28 29 -28 51c0 29 21 70 78 70z" />
    <glyph glyph-name="Adieresis" unicode="&#xc4;" horiz-adv-x="660" 
d="M87 0c-38 0 -58 6 -72 20l233 657c21 12 40 23 87 23c43 0 66 -20 77 -49l233 -620c-15 -26 -48 -31 -75 -31c-40 0 -71 15 -86 61l-27 73h-258l-28 -85c-12 -37 -35 -49 -84 -49zM322 496l-81 -239h170zM156 831c0 48 22 72 72 72c48 0 72 -24 72 -72
c0 -49 -24 -72 -72 -72c-49 0 -72 24 -72 72zM360 831c0 48 22 72 72 72c48 0 72 -24 72 -72c0 -49 -24 -72 -72 -72c-49 0 -72 24 -72 72z" />
    <glyph glyph-name="Aring" unicode="&#xc5;" horiz-adv-x="660" 
d="M87 0c-38 0 -58 6 -72 20l233 657c21 12 40 23 87 23c43 0 66 -20 77 -49l233 -620c-15 -26 -48 -31 -75 -31c-40 0 -71 15 -86 61l-27 73h-258l-28 -85c-12 -37 -35 -49 -84 -49zM322 496l-81 -239h170zM236 834c0 62 32 94 94 94s94 -32 94 -94s-32 -94 -94 -94
s-94 32 -94 94zM295 834c0 -23 12 -35 35 -35s35 12 35 35s-12 35 -35 35s-35 -12 -35 -35z" />
    <glyph glyph-name="AE" unicode="&#xc6;" horiz-adv-x="946" 
d="M861 0h-375c-31 0 -63 8 -63 67v67h-213l-32 -85c-12 -37 -35 -49 -84 -49c-38 0 -65 6 -79 20l254 656c23 16 55 24 90 24h531c7 -10 16 -30 16 -59c0 -45 -16 -79 -45 -79h-290v-139h270c7 -10 16 -37 16 -66c0 -45 -16 -71 -41 -71h-245v-148h319c7 -10 16 -30 16 -59
c0 -45 -16 -79 -45 -79zM370 562l-113 -301h166v301h-53z" />
    <glyph glyph-name="Ccedilla" unicode="&#xc7;" horiz-adv-x="609" 
d="M532 184c24 0 57 -18 57 -61c0 -36 -15 -57 -51 -82c-25 -17 -86 -51 -192 -51c-172 0 -306 106 -306 359c0 257 130 361 299 361c117 0 152 -21 194 -49c27 -18 43 -40 43 -76c0 -37 -18 -62 -41 -76c-40 31 -107 61 -189 61c-83 0 -160 -52 -160 -225
c0 -169 79 -221 168 -221c72 0 138 27 178 60zM377 -113c0 26 -44 35 -70 35c-5 6 -9 16 -9 25l1 70l76 -1l-5 -46c62 -12 79 -44 79 -90c0 -52 -33 -92 -104 -92c-64 0 -96 29 -96 56c0 19 8 33 20 41c17 -15 44 -28 71 -28c28 0 37 13 37 30z" />
    <glyph glyph-name="Egrave" unicode="&#xc8;" horiz-adv-x="603" 
d="M473 286h-245v-148h319c7 -10 16 -30 16 -59c0 -45 -16 -79 -45 -79h-375c-31 0 -63 8 -63 67v620c13 8 32 13 69 13h398c7 -10 16 -30 16 -59c0 -45 -16 -79 -45 -79h-290v-139h270c7 -10 16 -37 16 -66c0 -45 -16 -71 -41 -71zM437 779c-5 -28 -27 -45 -55 -45
c-53 0 -132 87 -183 119c2 31 18 56 63 56c56 0 150 -120 175 -130z" />
    <glyph glyph-name="Eacute" unicode="&#xc9;" horiz-adv-x="603" 
d="M473 286h-245v-148h319c7 -10 16 -30 16 -59c0 -45 -16 -79 -45 -79h-375c-31 0 -63 8 -63 67v620c13 8 32 13 69 13h398c7 -10 16 -30 16 -59c0 -45 -16 -79 -45 -79h-290v-139h270c7 -10 16 -37 16 -66c0 -45 -16 -71 -41 -71zM197 782c25 10 119 130 175 130
c45 0 61 -25 63 -56c-51 -32 -130 -119 -183 -119c-28 0 -50 17 -55 45z" />
    <glyph glyph-name="Ecircumflex" unicode="&#xca;" horiz-adv-x="603" 
d="M473 286h-245v-148h319c7 -10 16 -30 16 -59c0 -45 -16 -79 -45 -79h-375c-31 0 -63 8 -63 67v620c13 8 32 13 69 13h398c7 -10 16 -30 16 -59c0 -45 -16 -79 -45 -79h-290v-139h270c7 -10 16 -37 16 -66c0 -45 -16 -71 -41 -71zM497 784c-3 -19 -14 -33 -29 -40
c-8 -4 -17 -5 -26 -5c-35 0 -80 37 -122 71c-42 -34 -88 -71 -122 -71c-9 0 -18 1 -26 5c-15 7 -26 21 -29 40c25 9 118 130 174 130c60 0 150 -119 180 -130z" />
    <glyph glyph-name="Edieresis" unicode="&#xcb;" horiz-adv-x="603" 
d="M473 286h-245v-148h319c7 -10 16 -30 16 -59c0 -45 -16 -79 -45 -79h-375c-31 0 -63 8 -63 67v620c13 8 32 13 69 13h398c7 -10 16 -30 16 -59c0 -45 -16 -79 -45 -79h-290v-139h270c7 -10 16 -37 16 -66c0 -45 -16 -71 -41 -71zM157 831c0 48 22 72 72 72
c48 0 72 -24 72 -72c0 -49 -24 -72 -72 -72c-49 0 -72 24 -72 72zM361 831c0 48 22 72 72 72c48 0 72 -24 72 -72c0 -49 -24 -72 -72 -72c-49 0 -72 24 -72 72z" />
    <glyph glyph-name="Igrave" unicode="&#xcc;" horiz-adv-x="308" 
d="M162 700c36 0 66 -12 66 -51v-633c-19 -10 -43 -16 -81 -16c-39 0 -67 15 -67 68v619c17 8 45 13 82 13zM273 779c-5 -28 -27 -45 -55 -45c-53 0 -132 87 -183 119c2 31 18 56 63 56c56 0 150 -120 175 -130z" />
    <glyph glyph-name="Iacute" unicode="&#xcd;" horiz-adv-x="308" 
d="M162 700c36 0 66 -12 66 -51v-633c-19 -10 -43 -16 -81 -16c-39 0 -67 15 -67 68v619c17 8 45 13 82 13zM35 782c25 10 119 130 175 130c45 0 61 -25 63 -56c-51 -32 -130 -119 -183 -119c-28 0 -50 17 -55 45z" />
    <glyph glyph-name="Icircumflex" unicode="&#xce;" horiz-adv-x="308" 
d="M162 700c36 0 66 -12 66 -51v-633c-19 -10 -43 -16 -81 -16c-39 0 -67 15 -67 68v619c17 8 45 13 82 13zM331 784c-3 -19 -14 -33 -29 -40c-8 -4 -17 -5 -26 -5c-35 0 -80 37 -122 71c-42 -34 -88 -71 -122 -71c-9 0 -18 1 -26 5c-15 7 -26 21 -29 40
c25 9 118 130 174 130c60 0 150 -119 180 -130z" />
    <glyph glyph-name="Idieresis" unicode="&#xcf;" horiz-adv-x="308" 
d="M162 700c36 0 66 -12 66 -51v-633c-19 -10 -43 -16 -81 -16c-39 0 -67 15 -67 68v619c17 8 45 13 82 13zM-20 831c0 48 22 72 72 72c48 0 72 -24 72 -72c0 -49 -24 -72 -72 -72c-49 0 -72 24 -72 72zM184 831c0 48 22 72 72 72c48 0 72 -24 72 -72c0 -49 -24 -72 -72 -72
c-49 0 -72 24 -72 72z" />
    <glyph glyph-name="Eth" unicode="&#xd0;" horiz-adv-x="676" 
d="M154 700h141c209 0 341 -103 341 -365c0 -244 -135 -335 -328 -335h-155c-38 0 -73 8 -73 67v202h-65c-9 19 -16 37 -16 68c0 40 16 70 67 70h14v281c13 7 37 12 74 12zM304 269h-76v-142h75c118 0 185 61 185 205c0 170 -81 232 -194 232h-66v-157h133
c8 -12 14 -34 14 -65c0 -44 -16 -73 -71 -73z" />
    <glyph glyph-name="Ntilde" unicode="&#xd1;" horiz-adv-x="715" 
d="M493 38l-272 392l7 -415c-9 -9 -51 -16 -85 -16c-31 0 -63 9 -63 68v620c19 8 49 13 80 13c33 0 56 -18 69 -38l266 -394l-4 414c15 12 37 19 72 19c34 0 77 -12 77 -51v-638c-12 -7 -37 -12 -76 -12c-32 0 -55 15 -71 38zM273 881c66 0 103 -28 156 -28
c40 0 58 16 60 23c13 -5 30 -30 30 -57c0 -36 -25 -62 -73 -62c-55 0 -123 27 -179 27c-23 0 -41 -9 -44 -24c-22 6 -28 29 -28 51c0 29 21 70 78 70z" />
    <glyph glyph-name="Ograve" unicode="&#xd2;" horiz-adv-x="682" 
d="M40 349c0 257 135 361 300 361c172 0 302 -104 302 -361c0 -258 -133 -359 -301 -359c-169 0 -301 106 -301 359zM186 345c0 -169 77 -231 155 -231c88 0 153 58 153 231s-70 236 -154 236c-79 0 -154 -63 -154 -236zM460 779c-5 -28 -27 -45 -55 -45
c-53 0 -132 87 -183 119c2 31 18 56 63 56c56 0 150 -120 175 -130z" />
    <glyph glyph-name="Oacute" unicode="&#xd3;" horiz-adv-x="682" 
d="M40 349c0 257 135 361 300 361c172 0 302 -104 302 -361c0 -258 -133 -359 -301 -359c-169 0 -301 106 -301 359zM186 345c0 -169 77 -231 155 -231c88 0 153 58 153 231s-70 236 -154 236c-79 0 -154 -63 -154 -236zM222 782c25 10 119 130 175 130c45 0 61 -25 63 -56
c-51 -32 -130 -119 -183 -119c-28 0 -50 17 -55 45z" />
    <glyph glyph-name="Ocircumflex" unicode="&#xd4;" horiz-adv-x="682" 
d="M40 349c0 257 135 361 300 361c172 0 302 -104 302 -361c0 -258 -133 -359 -301 -359c-169 0 -301 106 -301 359zM186 345c0 -169 77 -231 155 -231c88 0 153 58 153 231s-70 236 -154 236c-79 0 -154 -63 -154 -236zM518 784c-3 -19 -14 -33 -29 -40
c-8 -4 -17 -5 -26 -5c-35 0 -80 37 -122 71c-42 -34 -88 -71 -122 -71c-9 0 -18 1 -26 5c-15 7 -26 21 -29 40c25 9 118 130 174 130c60 0 150 -119 180 -130z" />
    <glyph glyph-name="Otilde" unicode="&#xd5;" horiz-adv-x="682" 
d="M40 349c0 257 135 361 300 361c172 0 302 -104 302 -361c0 -258 -133 -359 -301 -359c-169 0 -301 106 -301 359zM186 345c0 -169 77 -231 155 -231c88 0 153 58 153 231s-70 236 -154 236c-79 0 -154 -63 -154 -236zM257 881c66 0 103 -28 156 -28c40 0 58 16 60 23
c13 -5 30 -30 30 -57c0 -36 -25 -62 -73 -62c-55 0 -123 27 -179 27c-23 0 -41 -9 -44 -24c-22 6 -28 29 -28 51c0 29 21 70 78 70z" />
    <glyph glyph-name="Odieresis" unicode="&#xd6;" horiz-adv-x="682" 
d="M40 349c0 257 135 361 300 361c172 0 302 -104 302 -361c0 -258 -133 -359 -301 -359c-169 0 -301 106 -301 359zM186 345c0 -169 77 -231 155 -231c88 0 153 58 153 231s-70 236 -154 236c-79 0 -154 -63 -154 -236zM167 831c0 48 22 72 72 72c48 0 72 -24 72 -72
c0 -49 -24 -72 -72 -72c-49 0 -72 24 -72 72zM371 831c0 48 22 72 72 72c48 0 72 -24 72 -72c0 -49 -24 -72 -72 -72c-49 0 -72 24 -72 72z" />
    <glyph glyph-name="multiply" unicode="&#xd7;" horiz-adv-x="466" 
d="M189 407l44 -45l85 85c12 -2 28 -8 47 -27c22 -21 53 -68 10 -111l-44 -44l85 -85c-7 -20 -15 -37 -34 -56c-30 -30 -58 -48 -105 -1l-44 44l-85 -85c-20 7 -38 15 -56 33c-31 30 -48 58 -1 105l44 44l-85 86c2 12 9 29 27 47c22 22 69 53 112 10z" />
    <glyph glyph-name="Oslash" unicode="&#xd8;" horiz-adv-x="682" 
d="M40 349c0 257 135 361 300 361c39 0 75 -6 109 -17l51 109c15 5 31 5 46 5c32 0 53 -21 53 -37c0 -8 -1 -14 -5 -23l-52 -109c62 -57 100 -151 100 -289c0 -258 -133 -359 -301 -359c-35 0 -69 5 -100 14l-59 -125c-13 -3 -23 -4 -36 -4c-26 0 -59 17 -59 38
c0 9 2 18 7 29l53 113c-66 56 -107 152 -107 294zM186 345c0 -64 10 -113 28 -148l177 375c-16 6 -33 9 -51 9c-79 0 -154 -63 -154 -236zM494 345c0 60 -9 107 -23 142l-174 -366c14 -5 29 -7 44 -7c88 0 153 58 153 231z" />
    <glyph glyph-name="Ugrave" unicode="&#xd9;" horiz-adv-x="674" 
d="M460 271v416c13 8 38 13 75 13c41 0 73 -12 73 -51l1 -394c0 -182 -101 -265 -273 -265s-265 83 -265 265l-1 433c13 8 45 12 77 12c43 0 71 -11 71 -50v-379c0 -96 37 -149 118 -149c92 0 124 52 124 149zM456 779c-5 -28 -27 -45 -55 -45c-53 0 -132 87 -183 119
c2 31 18 56 63 56c56 0 150 -120 175 -130z" />
    <glyph glyph-name="Uacute" unicode="&#xda;" horiz-adv-x="674" 
d="M460 271v416c13 8 38 13 75 13c41 0 73 -12 73 -51l1 -394c0 -182 -101 -265 -273 -265s-265 83 -265 265l-1 433c13 8 45 12 77 12c43 0 71 -11 71 -50v-379c0 -96 37 -149 118 -149c92 0 124 52 124 149zM218 782c25 10 119 130 175 130c45 0 61 -25 63 -56
c-51 -32 -130 -119 -183 -119c-28 0 -50 17 -55 45z" />
    <glyph glyph-name="Ucircumflex" unicode="&#xdb;" horiz-adv-x="674" 
d="M460 271v416c13 8 38 13 75 13c41 0 73 -12 73 -51l1 -394c0 -182 -101 -265 -273 -265s-265 83 -265 265l-1 433c13 8 45 12 77 12c43 0 71 -11 71 -50v-379c0 -96 37 -149 118 -149c92 0 124 52 124 149zM514 784c-3 -19 -14 -33 -29 -40c-8 -4 -17 -5 -26 -5
c-35 0 -80 37 -122 71c-42 -34 -88 -71 -122 -71c-9 0 -18 1 -26 5c-15 7 -26 21 -29 40c25 9 118 130 174 130c60 0 150 -119 180 -130z" />
    <glyph glyph-name="Udieresis" unicode="&#xdc;" horiz-adv-x="674" 
d="M460 271v416c13 8 38 13 75 13c41 0 73 -12 73 -51l1 -394c0 -182 -101 -265 -273 -265s-265 83 -265 265l-1 433c13 8 45 12 77 12c43 0 71 -11 71 -50v-379c0 -96 37 -149 118 -149c92 0 124 52 124 149zM163 831c0 48 22 72 72 72c48 0 72 -24 72 -72
c0 -49 -24 -72 -72 -72c-49 0 -72 24 -72 72zM367 831c0 48 22 72 72 72c48 0 72 -24 72 -72c0 -49 -24 -72 -72 -72c-49 0 -72 24 -72 72z" />
    <glyph glyph-name="Yacute" unicode="&#xdd;" horiz-adv-x="589" 
d="M379 246v-230c-12 -8 -40 -16 -82 -16s-65 13 -65 46v192c-87 144 -182 308 -217 444c19 10 48 18 81 18c39 0 60 -10 71 -48c28 -102 83 -201 142 -302c69 120 126 265 145 343c15 5 42 7 70 7c30 0 50 -20 50 -51c0 -72 -118 -289 -195 -403zM175 782
c25 10 119 130 175 130c45 0 61 -25 63 -56c-51 -32 -130 -119 -183 -119c-28 0 -50 17 -55 45z" />
    <glyph glyph-name="Thorn" unicode="&#xde;" horiz-adv-x="604" 
d="M158 700c32 0 60 -14 60 -43v-69h136c105 0 215 -53 215 -214c0 -199 -133 -235 -227 -235h-124v-126c-14 -8 -48 -13 -82 -13c-36 0 -66 13 -66 67v622c19 8 51 11 88 11zM334 469h-116v-205h102c68 0 109 26 109 98c0 76 -45 107 -95 107z" />
    <glyph glyph-name="germandbls" unicode="&#xdf;" horiz-adv-x="620" 
d="M484 362c-12 2 -46 5 -66 5c-35 0 -51 -11 -51 -30c0 -16 16 -19 66 -31c105 -25 151 -60 152 -156c1 -86 -51 -160 -180 -160c-109 0 -172 44 -172 94c0 39 9 54 21 73c33 -18 92 -36 153 -36c37 0 52 11 52 25c0 15 -10 23 -71 35c-95 19 -147 65 -147 157
c0 84 43 138 123 151c1 5 2 11 2 20c0 37 -26 58 -82 58c-54 0 -98 -26 -98 -130v-404c0 -20 -30 -33 -67 -33c-30 0 -60 5 -79 15v442c0 155 103 243 245 243c113 0 217 -53 217 -197c0 -70 -10 -127 -18 -141z" />
    <glyph glyph-name="agrave" unicode="&#xe0;" horiz-adv-x="495" 
d="M79 359c-7 16 -17 37 -17 59c0 76 106 92 172 92c126 0 194 -61 194 -178v-211c0 -14 6 -26 16 -26h28c4 -5 8 -19 8 -43c0 -32 -25 -52 -98 -52c-33 0 -62 23 -74 51c-43 -35 -94 -61 -146 -61c-91 0 -142 63 -142 163c0 92 55 154 164 155l117 1c-6 47 -30 70 -79 70
c-50 0 -107 -7 -143 -20zM189 112c38 0 67 7 114 35v65l-109 -12c-34 -4 -47 -22 -47 -46c0 -22 15 -42 42 -42zM321 579c-5 -28 -27 -45 -55 -45c-53 0 -132 87 -183 119c2 31 18 56 63 56c56 0 150 -120 175 -130z" />
    <glyph glyph-name="aacute" unicode="&#xe1;" horiz-adv-x="495" 
d="M79 359c-7 16 -17 37 -17 59c0 76 106 92 172 92c126 0 194 -61 194 -178v-211c0 -14 6 -26 16 -26h28c4 -5 8 -19 8 -43c0 -32 -25 -52 -98 -52c-33 0 -62 23 -74 51c-43 -35 -94 -61 -146 -61c-91 0 -142 63 -142 163c0 92 55 154 164 155l117 1c-6 47 -30 70 -79 70
c-50 0 -107 -7 -143 -20zM189 112c38 0 67 7 114 35v65l-109 -12c-34 -4 -47 -22 -47 -46c0 -22 15 -42 42 -42zM144 582c25 10 119 130 175 130c45 0 61 -25 63 -56c-51 -32 -130 -119 -183 -119c-28 0 -50 17 -55 45z" />
    <glyph glyph-name="acircumflex" unicode="&#xe2;" horiz-adv-x="495" 
d="M79 359c-7 16 -17 37 -17 59c0 76 106 92 172 92c126 0 194 -61 194 -178v-211c0 -14 6 -26 16 -26h28c4 -5 8 -19 8 -43c0 -32 -25 -52 -98 -52c-33 0 -62 23 -74 51c-43 -35 -94 -61 -146 -61c-91 0 -142 63 -142 163c0 92 55 154 164 155l117 1c-6 47 -30 70 -79 70
c-50 0 -107 -7 -143 -20zM189 112c38 0 67 7 114 35v65l-109 -12c-34 -4 -47 -22 -47 -46c0 -22 15 -42 42 -42zM410 584c-3 -19 -14 -33 -29 -40c-8 -4 -17 -5 -26 -5c-35 0 -80 37 -122 71c-42 -34 -88 -71 -122 -71c-9 0 -18 1 -26 5c-15 7 -26 21 -29 40
c25 9 118 130 174 130c60 0 150 -119 180 -130z" />
    <glyph glyph-name="atilde" unicode="&#xe3;" horiz-adv-x="495" 
d="M79 359c-7 16 -17 37 -17 59c0 76 106 92 172 92c126 0 194 -61 194 -178v-211c0 -14 6 -26 16 -26h28c4 -5 8 -19 8 -43c0 -32 -25 -52 -98 -52c-33 0 -62 23 -74 51c-43 -35 -94 -61 -146 -61c-91 0 -142 63 -142 163c0 92 55 154 164 155l117 1c-6 47 -30 70 -79 70
c-50 0 -107 -7 -143 -20zM189 112c38 0 67 7 114 35v65l-109 -12c-34 -4 -47 -22 -47 -46c0 -22 15 -42 42 -42zM159 681c66 0 103 -28 156 -28c40 0 58 16 60 23c13 -5 30 -30 30 -57c0 -36 -25 -62 -73 -62c-55 0 -123 27 -179 27c-23 0 -41 -9 -44 -24
c-22 6 -28 29 -28 51c0 29 21 70 78 70z" />
    <glyph glyph-name="adieresis" unicode="&#xe4;" horiz-adv-x="495" 
d="M79 359c-7 16 -17 37 -17 59c0 76 106 92 172 92c126 0 194 -61 194 -178v-211c0 -14 6 -26 16 -26h28c4 -5 8 -19 8 -43c0 -32 -25 -52 -98 -52c-33 0 -62 23 -74 51c-43 -35 -94 -61 -146 -61c-91 0 -142 63 -142 163c0 92 55 154 164 155l117 1c-6 47 -30 70 -79 70
c-50 0 -107 -7 -143 -20zM189 112c38 0 67 7 114 35v65l-109 -12c-34 -4 -47 -22 -47 -46c0 -22 15 -42 42 -42zM60 631c0 48 22 72 72 72c48 0 72 -24 72 -72c0 -49 -24 -72 -72 -72c-49 0 -72 24 -72 72zM264 631c0 48 22 72 72 72c48 0 72 -24 72 -72
c0 -49 -24 -72 -72 -72c-49 0 -72 24 -72 72z" />
    <glyph glyph-name="aring" unicode="&#xe5;" horiz-adv-x="495" 
d="M79 359c-7 16 -17 37 -17 59c0 76 106 92 172 92c126 0 194 -61 194 -178v-211c0 -14 6 -26 16 -26h28c4 -5 8 -19 8 -43c0 -32 -25 -52 -98 -52c-33 0 -62 23 -74 51c-43 -35 -94 -61 -146 -61c-91 0 -142 63 -142 163c0 92 55 154 164 155l117 1c-6 47 -30 70 -79 70
c-50 0 -107 -7 -143 -20zM189 112c38 0 67 7 114 35v65l-109 -12c-34 -4 -47 -22 -47 -46c0 -22 15 -42 42 -42zM137 634c0 62 32 94 94 94s94 -32 94 -94s-32 -94 -94 -94s-94 32 -94 94zM196 634c0 -23 12 -35 35 -35s35 12 35 35s-12 35 -35 35s-35 -12 -35 -35z" />
    <glyph glyph-name="ae" unicode="&#xe6;" horiz-adv-x="767" 
d="M79 359c-7 16 -17 37 -17 59c0 76 106 92 172 92c69 0 120 -19 153 -54c42 35 95 54 151 54c124 0 194 -89 194 -225c0 -28 -3 -56 -10 -77h-277c11 -61 49 -88 100 -88c15 0 31 0 46 2c46 5 89 17 112 32c11 -10 24 -29 24 -57c0 -68 -73 -107 -196 -107
c-77 0 -137 31 -176 83c-54 -47 -127 -83 -193 -83c-91 0 -142 63 -142 163c0 74 35 127 105 147c44 12 117 9 176 9c-6 48 -31 70 -79 70c-50 0 -107 -7 -143 -20zM189 112c41 0 70 11 125 49c-3 11 -5 22 -7 34l-2 18l-111 -13c-34 -4 -47 -22 -47 -46
c0 -22 15 -42 42 -42zM537 382c-34 0 -76 -26 -91 -81h160c0 55 -24 81 -69 81z" />
    <glyph glyph-name="ccedilla" unicode="&#xe7;" horiz-adv-x="448" 
d="M419 420c0 -19 -12 -50 -32 -73c-46 12 -67 20 -116 20s-100 -30 -100 -124c0 -81 46 -122 105 -122c55 0 96 14 130 32c9 -11 17 -31 17 -60c0 -34 -14 -58 -39 -74c-17 -11 -60 -29 -120 -29c-144 0 -229 103 -229 254c0 201 127 266 232 266c66 0 95 -14 123 -33
c15 -10 29 -26 29 -57zM311 -113c0 26 -44 35 -70 35c-5 6 -9 16 -9 25l1 70l76 -1l-5 -46c62 -12 79 -44 79 -90c0 -52 -33 -92 -104 -92c-64 0 -96 29 -96 56c0 19 8 33 20 41c17 -15 44 -28 71 -28c28 0 37 13 37 30z" />
    <glyph glyph-name="egrave" unicode="&#xe8;" horiz-adv-x="499" 
d="M454 208h-277c12 -62 49 -88 100 -88c60 0 128 14 158 34c11 -10 24 -29 24 -57c0 -32 -14 -51 -32 -63c-39 -27 -75 -44 -164 -44c-146 0 -228 111 -228 266c0 163 113 254 235 254c124 0 194 -89 194 -225c0 -28 -3 -56 -10 -77zM269 382c-34 0 -76 -26 -91 -81h160
c0 55 -24 81 -69 81zM359 579c-5 -28 -27 -45 -55 -45c-53 0 -132 87 -183 119c2 31 18 56 63 56c56 0 150 -120 175 -130z" />
    <glyph glyph-name="eacute" unicode="&#xe9;" horiz-adv-x="499" 
d="M454 208h-277c12 -62 49 -88 100 -88c60 0 128 14 158 34c11 -10 24 -29 24 -57c0 -32 -14 -51 -32 -63c-39 -27 -75 -44 -164 -44c-146 0 -228 111 -228 266c0 163 113 254 235 254c124 0 194 -89 194 -225c0 -28 -3 -56 -10 -77zM269 382c-34 0 -76 -26 -91 -81h160
c0 55 -24 81 -69 81zM182 582c25 10 119 130 175 130c45 0 61 -25 63 -56c-51 -32 -130 -119 -183 -119c-28 0 -50 17 -55 45z" />
    <glyph glyph-name="ecircumflex" unicode="&#xea;" horiz-adv-x="499" 
d="M454 208h-277c12 -62 49 -88 100 -88c60 0 128 14 158 34c11 -10 24 -29 24 -57c0 -32 -14 -51 -32 -63c-39 -27 -75 -44 -164 -44c-146 0 -228 111 -228 266c0 163 113 254 235 254c124 0 194 -89 194 -225c0 -28 -3 -56 -10 -77zM269 382c-34 0 -76 -26 -91 -81h160
c0 55 -24 81 -69 81zM448 584c-3 -19 -14 -33 -29 -40c-8 -4 -17 -5 -26 -5c-35 0 -80 37 -122 71c-42 -34 -88 -71 -122 -71c-9 0 -18 1 -26 5c-15 7 -26 21 -29 40c25 9 118 130 174 130c60 0 150 -119 180 -130z" />
    <glyph glyph-name="edieresis" unicode="&#xeb;" horiz-adv-x="499" 
d="M454 208h-277c12 -62 49 -88 100 -88c60 0 128 14 158 34c11 -10 24 -29 24 -57c0 -32 -14 -51 -32 -63c-39 -27 -75 -44 -164 -44c-146 0 -228 111 -228 266c0 163 113 254 235 254c124 0 194 -89 194 -225c0 -28 -3 -56 -10 -77zM269 382c-34 0 -76 -26 -91 -81h160
c0 55 -24 81 -69 81zM98 631c0 48 22 72 72 72c48 0 72 -24 72 -72c0 -49 -24 -72 -72 -72c-49 0 -72 24 -72 72zM302 631c0 48 22 72 72 72c48 0 72 -24 72 -72c0 -49 -24 -72 -72 -72c-49 0 -72 24 -72 72z" />
    <glyph glyph-name="igrave" unicode="&#xec;" horiz-adv-x="302" 
d="M118 500c55 0 106 -17 106 -117v-247c0 -21 7 -30 22 -30h33c5 -11 8 -22 8 -43c0 -38 -29 -63 -105 -63c-66 0 -101 25 -101 112v231c0 24 -11 31 -24 31h-29c-6 12 -8 27 -8 51c0 53 37 75 98 75zM216 579c-5 -28 -27 -45 -55 -45c-53 0 -132 87 -183 119
c2 31 18 56 63 56c56 0 150 -120 175 -130z" />
    <glyph glyph-name="iacute" unicode="&#xed;" horiz-adv-x="302" 
d="M118 500c55 0 106 -17 106 -117v-247c0 -21 7 -30 22 -30h33c5 -11 8 -22 8 -43c0 -38 -29 -63 -105 -63c-66 0 -101 25 -101 112v231c0 24 -11 31 -24 31h-29c-6 12 -8 27 -8 51c0 53 37 75 98 75zM39 582c25 10 119 130 175 130c45 0 61 -25 63 -56
c-51 -32 -130 -119 -183 -119c-28 0 -50 17 -55 45z" />
    <glyph glyph-name="icircumflex" unicode="&#xee;" horiz-adv-x="302" 
d="M118 500c55 0 106 -17 106 -117v-247c0 -21 7 -30 22 -30h33c5 -11 8 -22 8 -43c0 -38 -29 -63 -105 -63c-66 0 -101 25 -101 112v231c0 24 -11 31 -24 31h-29c-6 12 -8 27 -8 51c0 53 37 75 98 75zM305 584c-3 -19 -14 -33 -29 -40c-8 -4 -17 -5 -26 -5
c-35 0 -80 37 -122 71c-42 -34 -88 -71 -122 -71c-9 0 -18 1 -26 5c-15 7 -26 21 -29 40c25 9 118 130 174 130c60 0 150 -119 180 -130z" />
    <glyph glyph-name="idieresis" unicode="&#xef;" horiz-adv-x="302" 
d="M118 500c55 0 106 -17 106 -117v-247c0 -21 7 -30 22 -30h33c5 -11 8 -22 8 -43c0 -38 -29 -63 -105 -63c-66 0 -101 25 -101 112v231c0 24 -11 31 -24 31h-29c-6 12 -8 27 -8 51c0 53 37 75 98 75zM-45 631c0 48 22 72 72 72c48 0 72 -24 72 -72c0 -49 -24 -72 -72 -72
c-49 0 -72 24 -72 72zM159 631c0 48 22 72 72 72c48 0 72 -24 72 -72c0 -49 -24 -72 -72 -72c-49 0 -72 24 -72 72z" />
    <glyph glyph-name="eth" unicode="&#xf0;" horiz-adv-x="513" 
d="M435 555l-10 -2c36 -85 63 -184 63 -279c0 -210 -102 -280 -232 -280s-231 70 -231 250c0 183 103 230 195 230c31 0 58 -7 81 -17c-9 24 -19 48 -30 69l-93 -16c-11 9 -18 21 -21 38c-5 29 -5 54 50 64l11 2c-10 13 -19 24 -27 32c12 23 33 46 50 55c30 16 77 30 95 7
c14 -19 29 -41 44 -66l81 15c14 -6 20 -18 23 -34c3 -21 0 -59 -49 -68zM337 272c0 21 -2 41 -5 62c-24 12 -56 22 -85 22c-34 0 -73 -19 -73 -114c0 -93 40 -122 82 -122c47 0 81 30 81 152z" />
    <glyph glyph-name="ntilde" unicode="&#xf1;" horiz-adv-x="607" 
d="M130 500c46 0 89 -27 106 -71c46 52 96 81 159 81c75 0 136 -43 136 -158v-231c0 -17 8 -26 21 -26h34c4 -7 6 -13 6 -33c0 -38 -40 -62 -114 -62c-64 0 -92 26 -92 97v215c0 29 -18 49 -49 49c-34 0 -65 -13 -93 -34v-313c-16 -10 -44 -14 -83 -14c-36 0 -69 15 -69 74
v269c0 21 -9 31 -28 31h-31c-8 17 -13 32 -13 56c0 48 36 70 110 70zM218 681c66 0 103 -28 156 -28c40 0 58 16 60 23c13 -5 30 -30 30 -57c0 -36 -25 -62 -73 -62c-55 0 -123 27 -179 27c-23 0 -41 -9 -44 -24c-22 6 -28 29 -28 51c0 29 21 70 78 70z" />
    <glyph glyph-name="ograve" unicode="&#xf2;" horiz-adv-x="553" 
d="M35 248c0 185 106 262 241 262c139 0 242 -77 242 -262c0 -186 -106 -258 -242 -258c-137 0 -241 76 -241 258zM187 246c0 -95 42 -128 89 -128c52 0 88 31 88 128s-38 133 -88 133c-48 0 -89 -36 -89 -133zM365 579c-5 -28 -27 -45 -55 -45c-53 0 -132 87 -183 119
c2 31 18 56 63 56c56 0 150 -120 175 -130z" />
    <glyph glyph-name="oacute" unicode="&#xf3;" horiz-adv-x="553" 
d="M35 248c0 185 106 262 241 262c139 0 242 -77 242 -262c0 -186 -106 -258 -242 -258c-137 0 -241 76 -241 258zM187 246c0 -95 42 -128 89 -128c52 0 88 31 88 128s-38 133 -88 133c-48 0 -89 -36 -89 -133zM188 582c25 10 119 130 175 130c45 0 61 -25 63 -56
c-51 -32 -130 -119 -183 -119c-28 0 -50 17 -55 45z" />
    <glyph glyph-name="ocircumflex" unicode="&#xf4;" horiz-adv-x="553" 
d="M35 248c0 185 106 262 241 262c139 0 242 -77 242 -262c0 -186 -106 -258 -242 -258c-137 0 -241 76 -241 258zM187 246c0 -95 42 -128 89 -128c52 0 88 31 88 128s-38 133 -88 133c-48 0 -89 -36 -89 -133zM454 584c-3 -19 -14 -33 -29 -40c-8 -4 -17 -5 -26 -5
c-35 0 -80 37 -122 71c-42 -34 -88 -71 -122 -71c-9 0 -18 1 -26 5c-15 7 -26 21 -29 40c25 9 118 130 174 130c60 0 150 -119 180 -130z" />
    <glyph glyph-name="otilde" unicode="&#xf5;" horiz-adv-x="553" 
d="M35 248c0 185 106 262 241 262c139 0 242 -77 242 -262c0 -186 -106 -258 -242 -258c-137 0 -241 76 -241 258zM187 246c0 -95 42 -128 89 -128c52 0 88 31 88 128s-38 133 -88 133c-48 0 -89 -36 -89 -133zM203 681c66 0 103 -28 156 -28c40 0 58 16 60 23
c13 -5 30 -30 30 -57c0 -36 -25 -62 -73 -62c-55 0 -123 27 -179 27c-23 0 -41 -9 -44 -24c-22 6 -28 29 -28 51c0 29 21 70 78 70z" />
    <glyph glyph-name="odieresis" unicode="&#xf6;" horiz-adv-x="553" 
d="M35 248c0 185 106 262 241 262c139 0 242 -77 242 -262c0 -186 -106 -258 -242 -258c-137 0 -241 76 -241 258zM187 246c0 -95 42 -128 89 -128c52 0 88 31 88 128s-38 133 -88 133c-48 0 -89 -36 -89 -133zM104 631c0 48 22 72 72 72c48 0 72 -24 72 -72
c0 -49 -24 -72 -72 -72c-49 0 -72 24 -72 72zM308 631c0 48 22 72 72 72c48 0 72 -24 72 -72c0 -49 -24 -72 -72 -72c-49 0 -72 24 -72 72z" />
    <glyph glyph-name="divide" unicode="&#xf7;" horiz-adv-x="499" 
d="M177 72c0 48 22 72 72 72c48 0 72 -24 72 -72c0 -49 -24 -72 -72 -72c-49 0 -72 24 -72 72zM177 427c0 48 22 72 72 72c48 0 72 -24 72 -72c0 -49 -24 -72 -72 -72c-49 0 -72 24 -72 72zM388 185h-327c-9 19 -16 37 -16 73c0 34 16 65 57 65h338c9 -17 14 -42 14 -68
c0 -31 -11 -70 -66 -70z" />
    <glyph glyph-name="oslash" unicode="&#xf8;" horiz-adv-x="553" 
d="M35 248c0 185 106 262 241 262c19 0 38 -2 55 -5l38 105c11 4 24 7 36 7c20 0 33 -6 33 -21c0 -8 -2 -17 -5 -25l-32 -88c72 -37 117 -112 117 -235c0 -186 -106 -258 -242 -258c-17 0 -34 1 -50 4l-31 -88c-13 -7 -20 -9 -40 -9c-14 0 -29 7 -29 20c0 9 2 20 6 31l24 67
c-73 35 -121 110 -121 233zM187 246c0 -40 7 -70 19 -90l80 222c-4 1 -7 1 -10 1c-48 0 -89 -36 -89 -133zM364 246c0 38 -6 66 -16 87l-77 -215h5c52 0 88 31 88 128z" />
    <glyph glyph-name="ugrave" unicode="&#xf9;" horiz-adv-x="611" 
d="M480 0c-34 0 -77 11 -96 59c-41 -43 -92 -69 -154 -69c-67 0 -139 43 -139 158v198c0 21 -8 28 -23 28h-45c-5 16 -8 29 -7 57c2 47 57 69 117 69c74 0 110 -24 110 -93v-219c0 -29 20 -49 43 -49c42 0 67 12 89 38v307c19 10 52 16 83 16c50 0 71 -19 71 -55l1 -298
c0 -24 12 -31 26 -31h36c2 -8 4 -17 4 -45c0 -41 -33 -71 -116 -71zM379 579c-5 -28 -27 -45 -55 -45c-53 0 -132 87 -183 119c2 31 18 56 63 56c56 0 150 -120 175 -130z" />
    <glyph glyph-name="uacute" unicode="&#xfa;" horiz-adv-x="611" 
d="M480 0c-34 0 -77 11 -96 59c-41 -43 -92 -69 -154 -69c-67 0 -139 43 -139 158v198c0 21 -8 28 -23 28h-45c-5 16 -8 29 -7 57c2 47 57 69 117 69c74 0 110 -24 110 -93v-219c0 -29 20 -49 43 -49c42 0 67 12 89 38v307c19 10 52 16 83 16c50 0 71 -19 71 -55l1 -298
c0 -24 12 -31 26 -31h36c2 -8 4 -17 4 -45c0 -41 -33 -71 -116 -71zM202 582c25 10 119 130 175 130c45 0 61 -25 63 -56c-51 -32 -130 -119 -183 -119c-28 0 -50 17 -55 45z" />
    <glyph glyph-name="ucircumflex" unicode="&#xfb;" horiz-adv-x="611" 
d="M480 0c-34 0 -77 11 -96 59c-41 -43 -92 -69 -154 -69c-67 0 -139 43 -139 158v198c0 21 -8 28 -23 28h-45c-5 16 -8 29 -7 57c2 47 57 69 117 69c74 0 110 -24 110 -93v-219c0 -29 20 -49 43 -49c42 0 67 12 89 38v307c19 10 52 16 83 16c50 0 71 -19 71 -55l1 -298
c0 -24 12 -31 26 -31h36c2 -8 4 -17 4 -45c0 -41 -33 -71 -116 -71zM468 584c-3 -19 -14 -33 -29 -40c-8 -4 -17 -5 -26 -5c-35 0 -80 37 -122 71c-42 -34 -88 -71 -122 -71c-9 0 -18 1 -26 5c-15 7 -26 21 -29 40c25 9 118 130 174 130c60 0 150 -119 180 -130z" />
    <glyph glyph-name="udieresis" unicode="&#xfc;" horiz-adv-x="611" 
d="M480 0c-34 0 -77 11 -96 59c-41 -43 -92 -69 -154 -69c-67 0 -139 43 -139 158v198c0 21 -8 28 -23 28h-45c-5 16 -8 29 -7 57c2 47 57 69 117 69c74 0 110 -24 110 -93v-219c0 -29 20 -49 43 -49c42 0 67 12 89 38v307c19 10 52 16 83 16c50 0 71 -19 71 -55l1 -298
c0 -24 12 -31 26 -31h36c2 -8 4 -17 4 -45c0 -41 -33 -71 -116 -71zM118 631c0 48 22 72 72 72c48 0 72 -24 72 -72c0 -49 -24 -72 -72 -72c-49 0 -72 24 -72 72zM322 631c0 48 22 72 72 72c48 0 72 -24 72 -72c0 -49 -24 -72 -72 -72c-49 0 -72 24 -72 72z" />
    <glyph glyph-name="yacute" unicode="&#xfd;" horiz-adv-x="560" 
d="M217 419l77 -241c4 -14 11 -23 19 -28c41 84 73 164 73 209c0 18 -8 29 -24 29h-31c-5 11 -9 30 -9 50c0 38 44 62 96 62c82 0 112 -39 112 -101c0 -94 -85 -278 -159 -411c-69 -124 -154 -158 -256 -158c-54 0 -84 20 -84 64c0 15 2 29 11 50h94c44 0 78 22 115 86
c-32 8 -57 34 -68 71l-95 261c-6 19 -15 26 -29 26h-35c-7 15 -9 34 -9 50c0 37 37 62 103 62c56 0 83 -27 99 -81zM188 582c25 10 119 130 175 130c45 0 61 -25 63 -56c-51 -32 -130 -119 -183 -119c-28 0 -50 17 -55 45z" />
    <glyph glyph-name="thorn" unicode="&#xfe;" horiz-adv-x="567" 
d="M164 700c39 0 67 -12 67 -51v-203c37 39 81 64 128 64c102 0 171 -69 172 -252c1 -171 -91 -268 -192 -268c-41 0 -77 13 -108 37v-183c-16 -10 -38 -14 -77 -14c-37 0 -70 15 -70 74v784c20 7 49 12 80 12zM310 358c-28 0 -53 -10 -79 -27v-172c18 -18 45 -32 72 -32
c56 0 85 47 85 115c0 86 -28 116 -78 116z" />
    <glyph glyph-name="ydieresis" unicode="&#xff;" horiz-adv-x="560" 
d="M217 419l77 -241c4 -14 11 -23 19 -28c41 84 73 164 73 209c0 18 -8 29 -24 29h-31c-5 11 -9 30 -9 50c0 38 44 62 96 62c82 0 112 -39 112 -101c0 -94 -85 -278 -159 -411c-69 -124 -154 -158 -256 -158c-54 0 -84 20 -84 64c0 15 2 29 11 50h94c44 0 78 22 115 86
c-32 8 -57 34 -68 71l-95 261c-6 19 -15 26 -29 26h-35c-7 15 -9 34 -9 50c0 37 37 62 103 62c56 0 83 -27 99 -81zM104 631c0 48 22 72 72 72c48 0 72 -24 72 -72c0 -49 -24 -72 -72 -72c-49 0 -72 24 -72 72zM308 631c0 48 22 72 72 72c48 0 72 -24 72 -72
c0 -49 -24 -72 -72 -72c-49 0 -72 24 -72 72z" />
    <glyph glyph-name="Amacron" unicode="&#x100;" horiz-adv-x="660" 
d="M87 0c-38 0 -58 6 -72 20l233 657c21 12 40 23 87 23c43 0 66 -20 77 -49l233 -620c-15 -26 -48 -31 -75 -31c-40 0 -71 15 -86 61l-27 73h-258l-28 -85c-12 -37 -35 -49 -84 -49zM322 496l-81 -239h170zM433 758h-262c-9 14 -16 28 -16 47c0 33 7 57 74 57h262
c7 -8 14 -20 14 -39c0 -24 -11 -65 -72 -65z" />
    <glyph glyph-name="amacron" unicode="&#x101;" horiz-adv-x="495" 
d="M79 359c-7 16 -17 37 -17 59c0 76 106 92 172 92c126 0 194 -61 194 -178v-211c0 -14 6 -26 16 -26h28c4 -5 8 -19 8 -43c0 -32 -25 -52 -98 -52c-33 0 -62 23 -74 51c-43 -35 -94 -61 -146 -61c-91 0 -142 63 -142 163c0 92 55 154 164 155l117 1c-6 47 -30 70 -79 70
c-50 0 -107 -7 -143 -20zM189 112c38 0 67 7 114 35v65l-109 -12c-34 -4 -47 -22 -47 -46c0 -22 15 -42 42 -42zM346 558h-262c-9 14 -16 28 -16 47c0 33 7 57 74 57h262c7 -8 14 -20 14 -39c0 -24 -11 -65 -72 -65z" />
    <glyph glyph-name="Abreve" unicode="&#x102;" horiz-adv-x="660" 
d="M87 0c-38 0 -58 6 -72 20l233 657c21 12 40 23 87 23c43 0 66 -20 77 -49l233 -620c-15 -26 -48 -31 -75 -31c-40 0 -71 15 -86 61l-27 73h-258l-28 -85c-12 -37 -35 -49 -84 -49zM322 496l-81 -239h170zM256 894c1 -12 5 -26 15 -38c11 -13 30 -22 59 -22
c27 0 43 7 53 18c11 11 15 26 19 38c10 8 29 12 54 11c33 -2 44 -23 38 -46c-9 -30 -22 -57 -48 -77c-25 -20 -62 -32 -115 -32c-56 0 -95 13 -122 34c-28 22 -41 51 -46 82c-3 24 9 37 37 40c22 2 42 -2 56 -8z" />
    <glyph glyph-name="abreve" unicode="&#x103;" horiz-adv-x="495" 
d="M79 359c-7 16 -17 37 -17 59c0 76 106 92 172 92c126 0 194 -61 194 -178v-211c0 -14 6 -26 16 -26h28c4 -5 8 -19 8 -43c0 -32 -25 -52 -98 -52c-33 0 -62 23 -74 51c-43 -35 -94 -61 -146 -61c-91 0 -142 63 -142 163c0 92 55 154 164 155l117 1c-6 47 -30 70 -79 70
c-50 0 -107 -7 -143 -20zM189 112c38 0 67 7 114 35v65l-109 -12c-34 -4 -47 -22 -47 -46c0 -22 15 -42 42 -42zM157 694c1 -12 5 -26 15 -38c11 -13 30 -22 59 -22c27 0 43 7 53 18c11 11 15 26 19 38c10 8 29 12 54 11c33 -2 44 -23 38 -46c-9 -30 -22 -57 -48 -77
c-25 -20 -62 -32 -115 -32c-56 0 -95 13 -122 34c-28 22 -41 51 -46 82c-3 24 9 37 37 40c22 2 42 -2 56 -8z" />
    <glyph glyph-name="Aogonek" unicode="&#x104;" horiz-adv-x="660" 
d="M412 651l233 -620c-36 -51 -57 -84 -57 -113c0 -25 13 -34 46 -34c6 -11 8 -20 8 -34c0 -16 -4 -39 -51 -39c-53 0 -83 36 -83 85c0 54 29 99 35 106c-27 6 -47 23 -59 59l-27 73h-258l-28 -85c-12 -37 -35 -49 -84 -49c-38 0 -58 6 -72 20l233 657c21 12 40 23 87 23
c43 0 66 -20 77 -49zM322 496l-81 -239h170z" />
    <glyph glyph-name="aogonek" unicode="&#x105;" horiz-adv-x="495" 
d="M79 359c-7 16 -17 37 -17 59c0 76 106 92 172 92c125 0 194 -61 194 -178v-211c0 -14 6 -26 16 -26h28c4 -5 8 -19 8 -43c0 -16 -7 -24 -18 -35c-25 -24 -43 -59 -43 -85c0 -25 13 -34 46 -34c6 -11 8 -20 8 -34c0 -16 -4 -39 -51 -39c-53 0 -83 36 -83 85
c0 35 12 66 28 91c-26 6 -49 27 -59 50c-43 -35 -94 -61 -146 -61c-91 0 -142 63 -142 163c0 80 41 135 121 151c40 8 108 5 160 5c-8 47 -29 70 -79 70s-107 -7 -143 -20zM189 112c38 0 67 7 114 35v65l-109 -12c-34 -4 -47 -22 -47 -46c0 -22 15 -42 42 -42z" />
    <glyph glyph-name="Cacute" unicode="&#x106;" horiz-adv-x="609" 
d="M532 184c24 0 57 -18 57 -61c0 -36 -15 -57 -51 -82c-25 -17 -86 -51 -192 -51c-172 0 -306 106 -306 359c0 257 130 361 299 361c117 0 152 -21 194 -49c27 -18 43 -40 43 -76c0 -37 -18 -62 -41 -76c-40 31 -107 61 -189 61c-83 0 -160 -52 -160 -225
c0 -169 79 -221 168 -221c72 0 138 27 178 60zM218 782c25 10 119 130 175 130c45 0 61 -25 63 -56c-51 -32 -130 -119 -183 -119c-28 0 -50 17 -55 45z" />
    <glyph glyph-name="cacute" unicode="&#x107;" horiz-adv-x="448" 
d="M419 420c0 -19 -12 -50 -32 -73c-46 12 -67 20 -116 20s-100 -30 -100 -124c0 -81 46 -122 105 -122c55 0 96 14 130 32c9 -11 17 -31 17 -60c0 -34 -14 -58 -39 -74c-17 -11 -60 -29 -120 -29c-144 0 -229 103 -229 254c0 201 127 266 232 266c66 0 95 -14 123 -33
c15 -10 29 -26 29 -57zM178 582c25 10 119 130 175 130c45 0 61 -25 63 -56c-51 -32 -130 -119 -183 -119c-28 0 -50 17 -55 45z" />
    <glyph glyph-name="Ccircumflex" unicode="&#x108;" horiz-adv-x="609" 
d="M532 184c24 0 57 -18 57 -61c0 -36 -15 -57 -51 -82c-25 -17 -86 -51 -192 -51c-172 0 -306 106 -306 359c0 257 130 361 299 361c117 0 152 -21 194 -49c27 -18 43 -40 43 -76c0 -37 -18 -62 -41 -76c-40 31 -107 61 -189 61c-83 0 -160 -52 -160 -225
c0 -169 79 -221 168 -221c72 0 138 27 178 60zM521 784c-3 -19 -14 -33 -29 -40c-8 -4 -17 -5 -26 -5c-35 0 -80 37 -122 71c-42 -34 -88 -71 -122 -71c-9 0 -18 1 -26 5c-15 7 -26 21 -29 40c25 9 118 130 174 130c60 0 150 -119 180 -130z" />
    <glyph glyph-name="ccircumflex" unicode="&#x109;" horiz-adv-x="448" 
d="M419 420c0 -19 -12 -50 -32 -73c-46 12 -67 20 -116 20s-100 -30 -100 -124c0 -81 46 -122 105 -122c55 0 96 14 130 32c9 -11 17 -31 17 -60c0 -34 -14 -58 -39 -74c-17 -11 -60 -29 -120 -29c-144 0 -229 103 -229 254c0 201 127 266 232 266c66 0 95 -14 123 -33
c15 -10 29 -26 29 -57zM444 584c-3 -19 -14 -33 -29 -40c-8 -4 -17 -5 -26 -5c-35 0 -80 37 -122 71c-42 -34 -88 -71 -122 -71c-9 0 -18 1 -26 5c-15 7 -26 21 -29 40c25 9 118 130 174 130c60 0 150 -119 180 -130z" />
    <glyph glyph-name="Cdotaccent" unicode="&#x10a;" horiz-adv-x="609" 
d="M532 184c24 0 57 -18 57 -61c0 -36 -15 -57 -51 -82c-25 -17 -86 -51 -192 -51c-172 0 -306 106 -306 359c0 257 130 361 299 361c117 0 152 -21 194 -49c27 -18 43 -40 43 -76c0 -37 -18 -62 -41 -76c-40 31 -107 61 -189 61c-83 0 -160 -52 -160 -225
c0 -169 79 -221 168 -221c72 0 138 27 178 60zM275 824c0 48 22 72 72 72c48 0 72 -24 72 -72c0 -49 -24 -72 -72 -72c-49 0 -72 24 -72 72z" />
    <glyph glyph-name="cdotaccent" unicode="&#x10b;" horiz-adv-x="448" 
d="M419 420c0 -19 -12 -50 -32 -73c-46 12 -67 20 -116 20s-100 -30 -100 -124c0 -81 46 -122 105 -122c55 0 96 14 130 32c9 -11 17 -31 17 -60c0 -34 -14 -58 -39 -74c-17 -11 -60 -29 -120 -29c-144 0 -229 103 -229 254c0 201 127 266 232 266c66 0 95 -14 123 -33
c15 -10 29 -26 29 -57zM195 635c0 48 22 72 72 72c48 0 72 -24 72 -72c0 -49 -24 -72 -72 -72c-49 0 -72 24 -72 72z" />
    <glyph glyph-name="Ccaron" unicode="&#x10c;" horiz-adv-x="609" 
d="M532 184c24 0 57 -18 57 -61c0 -36 -15 -57 -51 -82c-25 -17 -86 -51 -192 -51c-172 0 -306 106 -306 359c0 257 130 361 299 361c117 0 152 -21 194 -49c27 -18 43 -40 43 -76c0 -37 -18 -62 -41 -76c-40 31 -107 61 -189 61c-83 0 -160 -52 -160 -225
c0 -169 79 -221 168 -221c72 0 138 27 178 60zM344 740c-13 0 -19 3 -25 6c-50 20 -113 86 -156 113c2 31 33 56 63 56c34 0 82 -44 120 -81c38 37 86 81 120 81c28 0 61 -25 63 -56c-43 -27 -105 -92 -157 -113c-5 -2 -12 -7 -28 -6z" />
    <glyph glyph-name="ccaron" unicode="&#x10d;" horiz-adv-x="448" 
d="M419 420c0 -19 -12 -50 -32 -73c-46 12 -67 20 -116 20s-100 -30 -100 -124c0 -81 46 -122 105 -122c55 0 96 14 130 32c9 -11 17 -31 17 -60c0 -34 -14 -58 -39 -74c-17 -11 -60 -29 -120 -29c-144 0 -229 103 -229 254c0 201 127 266 232 266c66 0 95 -14 123 -33
c15 -10 29 -26 29 -57zM264 540c-13 0 -19 3 -25 6c-50 20 -113 86 -156 113c2 31 33 56 63 56c34 0 82 -44 120 -81c38 37 86 81 120 81c28 0 61 -25 63 -56c-43 -27 -105 -92 -157 -113c-5 -2 -12 -7 -28 -6z" />
    <glyph glyph-name="Dcaron" unicode="&#x10e;" horiz-adv-x="676" 
d="M154 700h141c209 0 341 -103 341 -365c0 -244 -135 -335 -328 -335h-155c-38 0 -73 8 -73 67v621c13 7 37 12 74 12zM294 564h-66v-437h75c118 0 185 61 185 205c0 170 -81 232 -194 232zM309 740c-13 0 -19 3 -25 6c-50 20 -113 86 -156 113c2 31 33 56 63 56
c34 0 82 -44 120 -81c38 37 86 81 120 81c28 0 61 -25 63 -56c-43 -27 -105 -92 -157 -113c-5 -2 -12 -7 -28 -6z" />
    <glyph glyph-name="dcaron" unicode="&#x10f;" horiz-adv-x="548" 
d="M444 0c-35 0 -65 15 -85 40c-38 -34 -80 -50 -138 -50c-92 0 -186 72 -186 250c0 183 95 270 198 270c40 0 72 -11 98 -29v170c0 31 20 49 57 49c40 0 65 -9 78 -19v-544c0 -24 9 -33 26 -33h32c5 -14 9 -22 9 -44c0 -31 -23 -60 -89 -60zM256 123c30 0 54 4 75 14v204
c-21 15 -42 19 -74 19c-45 0 -82 -37 -82 -113c0 -81 26 -124 81 -124z" />
    <glyph glyph-name="Dcroat" unicode="&#x110;" horiz-adv-x="676" 
d="M154 700h141c209 0 341 -103 341 -365c0 -244 -135 -335 -328 -335h-155c-38 0 -73 8 -73 67v202h-65c-9 19 -16 37 -16 68c0 40 16 70 67 70h14v281c13 7 37 12 74 12zM304 269h-76v-142h75c118 0 185 61 185 205c0 170 -81 232 -194 232h-66v-157h133
c8 -12 14 -34 14 -65c0 -44 -16 -73 -71 -73z" />
    <glyph glyph-name="dcroat" unicode="&#x111;" horiz-adv-x="548" 
d="M510 543h-44v-406c0 -24 9 -33 26 -33h32c5 -14 9 -22 9 -44c0 -23 -13 -45 -47 -55c-11 -3 -26 -5 -42 -5c-35 0 -64 15 -85 40c-30 -27 -63 -43 -105 -48c-10 -1 -21 -2 -33 -2c-92 0 -186 72 -186 250c0 183 95 270 198 270c40 0 72 -11 98 -29v62h-105
c-7 18 -11 30 -11 55c0 26 11 45 32 45h84v8c0 31 20 49 57 49c40 0 65 -9 78 -19v-38h66c7 -12 10 -30 10 -56c0 -28 -9 -44 -32 -44zM256 123c30 0 54 4 75 14v204c-21 15 -42 19 -74 19c-45 0 -82 -37 -82 -113c0 -81 26 -124 81 -124z" />
    <glyph glyph-name="Emacron" unicode="&#x112;" horiz-adv-x="603" 
d="M473 286h-245v-148h319c7 -10 16 -30 16 -59c0 -45 -16 -79 -45 -79h-375c-31 0 -63 8 -63 67v620c13 8 32 13 69 13h398c7 -10 16 -30 16 -59c0 -45 -16 -79 -45 -79h-290v-139h270c7 -10 16 -37 16 -66c0 -45 -16 -71 -41 -71zM427 758h-262c-9 14 -16 28 -16 47
c0 33 7 57 74 57h262c7 -8 14 -20 14 -39c0 -24 -11 -65 -72 -65z" />
    <glyph glyph-name="emacron" unicode="&#x113;" horiz-adv-x="499" 
d="M454 208h-277c12 -62 49 -88 100 -88c60 0 128 14 158 34c11 -10 24 -29 24 -57c0 -32 -14 -51 -32 -63c-39 -27 -75 -44 -164 -44c-146 0 -228 111 -228 266c0 163 113 254 235 254c124 0 194 -89 194 -225c0 -28 -3 -56 -10 -77zM269 382c-34 0 -76 -26 -91 -81h160
c0 55 -24 81 -69 81zM384 558h-262c-9 14 -16 28 -16 47c0 33 7 57 74 57h262c7 -8 14 -20 14 -39c0 -24 -11 -65 -72 -65z" />
    <glyph glyph-name="Ebreve" unicode="&#x114;" horiz-adv-x="603" 
d="M473 286h-245v-148h319c7 -10 16 -30 16 -59c0 -45 -16 -79 -45 -79h-375c-31 0 -63 8 -63 67v620c13 8 32 13 69 13h398c7 -10 16 -30 16 -59c0 -45 -16 -79 -45 -79h-290v-139h270c7 -10 16 -37 16 -66c0 -45 -16 -71 -41 -71zM249 894c1 -12 5 -26 15 -38
c11 -13 30 -22 59 -22c27 0 43 7 53 18c11 11 15 26 19 38c10 8 29 12 54 11c33 -2 44 -23 38 -46c-9 -30 -22 -57 -48 -77c-25 -20 -62 -32 -115 -32c-56 0 -95 13 -122 34c-28 22 -41 51 -46 82c-3 24 9 37 37 40c22 2 42 -2 56 -8z" />
    <glyph glyph-name="ebreve" unicode="&#x115;" horiz-adv-x="499" 
d="M454 208h-277c12 -62 49 -88 100 -88c60 0 128 14 158 34c11 -10 24 -29 24 -57c0 -32 -14 -51 -32 -63c-39 -27 -75 -44 -164 -44c-146 0 -228 111 -228 266c0 163 113 254 235 254c124 0 194 -89 194 -225c0 -28 -3 -56 -10 -77zM269 382c-34 0 -76 -26 -91 -81h160
c0 55 -24 81 -69 81zM195 694c1 -12 5 -26 15 -38c11 -13 30 -22 59 -22c27 0 43 7 53 18c11 11 15 26 19 38c10 8 29 12 54 11c33 -2 44 -23 38 -46c-9 -30 -22 -57 -48 -77c-25 -20 -62 -32 -115 -32c-56 0 -95 13 -122 34c-28 22 -41 51 -46 82c-3 24 9 37 37 40
c22 2 42 -2 56 -8z" />
    <glyph glyph-name="Edotaccent" unicode="&#x116;" horiz-adv-x="603" 
d="M473 286h-245v-148h319c7 -10 16 -30 16 -59c0 -45 -16 -79 -45 -79h-375c-31 0 -63 8 -63 67v620c13 8 32 13 69 13h398c7 -10 16 -30 16 -59c0 -45 -16 -79 -45 -79h-290v-139h270c7 -10 16 -37 16 -66c0 -45 -16 -71 -41 -71zM254 824c0 48 22 72 72 72
c48 0 72 -24 72 -72c0 -49 -24 -72 -72 -72c-49 0 -72 24 -72 72z" />
    <glyph glyph-name="edotaccent" unicode="&#x117;" horiz-adv-x="499" 
d="M454 208h-277c12 -62 49 -88 100 -88c60 0 128 14 158 34c11 -10 24 -29 24 -57c0 -32 -14 -51 -32 -63c-39 -27 -75 -44 -164 -44c-146 0 -228 111 -228 266c0 163 113 254 235 254c124 0 194 -89 194 -225c0 -28 -3 -56 -10 -77zM269 382c-34 0 -76 -26 -91 -81h160
c0 55 -24 81 -69 81zM199 635c0 48 22 72 72 72c48 0 72 -24 72 -72c0 -49 -24 -72 -72 -72c-49 0 -72 24 -72 72z" />
    <glyph glyph-name="Eogonek" unicode="&#x118;" horiz-adv-x="603" 
d="M473 286h-245v-148h319c7 -10 16 -30 16 -59c0 -23 -9 -53 -25 -73c-28 -35 -44 -60 -44 -88c0 -25 13 -34 46 -34c6 -11 8 -20 8 -34c0 -16 -4 -39 -51 -39c-63 0 -98 33 -98 82c0 47 18 81 37 107h-293c-31 0 -63 8 -63 67v620c13 8 32 13 69 13h398
c7 -10 16 -30 16 -59c0 -45 -16 -79 -45 -79h-290v-139h270c7 -10 16 -37 16 -66c0 -45 -16 -71 -41 -71z" />
    <glyph glyph-name="eogonek" unicode="&#x119;" horiz-adv-x="499" 
d="M454 208h-277c11 -61 49 -88 100 -88c60 0 128 14 158 34c11 -10 24 -29 24 -57c0 -30 -15 -45 -28 -60c-24 -27 -39 -56 -39 -83c0 -25 13 -34 46 -34c6 -11 8 -20 8 -34c0 -16 -4 -39 -51 -39c-53 0 -83 36 -83 85c0 22 5 43 12 62c-17 -3 -37 -4 -61 -4
c-146 0 -228 111 -228 266c0 163 113 254 235 254c124 0 194 -89 194 -225c0 -28 -3 -56 -10 -77zM269 382c-34 0 -76 -26 -91 -81h160c0 55 -24 81 -69 81z" />
    <glyph glyph-name="Ecaron" unicode="&#x11a;" horiz-adv-x="603" 
d="M473 286h-245v-148h319c7 -10 16 -30 16 -59c0 -45 -16 -79 -45 -79h-375c-31 0 -63 8 -63 67v620c13 8 32 13 69 13h398c7 -10 16 -30 16 -59c0 -45 -16 -79 -45 -79h-290v-139h270c7 -10 16 -37 16 -66c0 -45 -16 -71 -41 -71zM312 740c-13 0 -19 3 -25 6
c-50 20 -113 86 -156 113c2 31 33 56 63 56c34 0 82 -44 120 -81c38 37 86 81 120 81c28 0 61 -25 63 -56c-43 -27 -105 -92 -157 -113c-5 -2 -12 -7 -28 -6z" />
    <glyph glyph-name="ecaron" unicode="&#x11b;" horiz-adv-x="499" 
d="M454 208h-277c12 -62 49 -88 100 -88c60 0 128 14 158 34c11 -10 24 -29 24 -57c0 -32 -14 -51 -32 -63c-39 -27 -75 -44 -164 -44c-146 0 -228 111 -228 266c0 163 113 254 235 254c124 0 194 -89 194 -225c0 -28 -3 -56 -10 -77zM269 382c-34 0 -76 -26 -91 -81h160
c0 55 -24 81 -69 81zM268 540c-13 0 -19 3 -25 6c-50 20 -113 86 -156 113c2 31 33 56 63 56c34 0 82 -44 120 -81c38 37 86 81 120 81c28 0 61 -25 63 -56c-43 -27 -105 -92 -157 -113c-5 -2 -12 -7 -28 -6z" />
    <glyph glyph-name="Gcircumflex" unicode="&#x11c;" horiz-adv-x="663" 
d="M492 274h-160c-9 19 -15 32 -15 59c0 29 7 56 74 56h133c75 0 89 -28 89 -108v-268c-16 -10 -32 -13 -66 -13c-31 0 -55 8 -55 55v14c-43 -52 -97 -79 -165 -79c-153 0 -287 106 -287 359c0 257 133 361 321 361c156 0 215 -74 215 -122c0 -38 -30 -59 -56 -66
c-42 40 -83 56 -158 56c-97 0 -185 -60 -185 -233c0 -169 88 -234 166 -234c67 0 114 31 149 91v72zM525 784c-3 -19 -14 -33 -29 -40c-8 -4 -17 -5 -26 -5c-35 0 -80 37 -122 71c-42 -34 -88 -71 -122 -71c-9 0 -18 1 -26 5c-15 7 -26 21 -29 40c25 9 118 130 174 130
c60 0 150 -119 180 -130z" />
    <glyph glyph-name="gcircumflex" unicode="&#x11d;" horiz-adv-x="511" 
d="M447 397h-31c8 -24 13 -51 13 -82c0 -139 -89 -193 -198 -193c-26 0 -50 3 -72 10c-3 -8 -4 -16 -4 -24c0 -28 21 -40 54 -40h134c81 0 131 -37 131 -120c0 -122 -104 -194 -247 -194c-108 0 -197 45 -197 110c0 22 15 52 37 73c40 -39 87 -61 158 -61
c83 0 123 28 123 53c0 12 -13 21 -34 21h-125c-108 0 -155 39 -155 110c0 46 24 87 48 116c-30 31 -48 77 -48 139c0 138 89 195 197 195c48 0 91 -11 126 -35c9 14 25 25 48 25h74c7 -9 12 -24 12 -46c0 -30 -7 -57 -44 -57zM177 311c0 -60 26 -81 55 -81c28 0 52 19 52 81
c0 63 -24 84 -52 84c-29 0 -55 -21 -55 -84zM412 584c-3 -19 -14 -33 -29 -40c-8 -4 -17 -5 -26 -5c-35 0 -80 37 -122 71c-42 -34 -88 -71 -122 -71c-9 0 -18 1 -26 5c-15 7 -26 21 -29 40c25 9 118 130 174 130c60 0 150 -119 180 -130z" />
    <glyph glyph-name="Gbreve" unicode="&#x11e;" horiz-adv-x="663" 
d="M492 274h-160c-9 19 -15 32 -15 59c0 29 7 56 74 56h133c75 0 89 -28 89 -108v-268c-16 -10 -32 -13 -66 -13c-31 0 -55 8 -55 55v14c-43 -52 -97 -79 -165 -79c-153 0 -287 106 -287 359c0 257 133 361 321 361c156 0 215 -74 215 -122c0 -38 -30 -59 -56 -66
c-42 40 -83 56 -158 56c-97 0 -185 -60 -185 -233c0 -169 88 -234 166 -234c67 0 114 31 149 91v72zM270 894c1 -12 5 -26 15 -38c11 -13 30 -22 59 -22c27 0 43 7 53 18c11 11 15 26 19 38c10 8 29 12 54 11c33 -2 44 -23 38 -46c-9 -30 -22 -57 -48 -77
c-25 -20 -62 -32 -115 -32c-56 0 -95 13 -122 34c-28 22 -41 51 -46 82c-3 24 9 37 37 40c22 2 42 -2 56 -8z" />
    <glyph glyph-name="gbreve" unicode="&#x11f;" horiz-adv-x="511" 
d="M447 397h-31c8 -24 13 -51 13 -82c0 -139 -89 -193 -198 -193c-26 0 -50 3 -72 10c-3 -8 -4 -16 -4 -24c0 -28 21 -40 54 -40h134c81 0 131 -37 131 -120c0 -122 -104 -194 -247 -194c-108 0 -197 45 -197 110c0 22 15 52 37 73c40 -39 87 -61 158 -61
c83 0 123 28 123 53c0 12 -13 21 -34 21h-125c-108 0 -155 39 -155 110c0 46 24 87 48 116c-30 31 -48 77 -48 139c0 138 89 195 197 195c48 0 91 -11 126 -35c9 14 25 25 48 25h74c7 -9 12 -24 12 -46c0 -30 -7 -57 -44 -57zM177 311c0 -60 26 -81 55 -81c28 0 52 19 52 81
c0 63 -24 84 -52 84c-29 0 -55 -21 -55 -84zM159 694c1 -12 5 -26 15 -38c11 -13 30 -22 59 -22c27 0 43 7 53 18c11 11 15 26 19 38c10 8 29 12 54 11c33 -2 44 -23 38 -46c-9 -30 -22 -57 -48 -77c-25 -20 -62 -32 -115 -32c-56 0 -95 13 -122 34c-28 22 -41 51 -46 82
c-3 24 9 37 37 40c22 2 42 -2 56 -8z" />
    <glyph glyph-name="Gdotaccent" unicode="&#x120;" horiz-adv-x="663" 
d="M492 274h-160c-9 19 -15 32 -15 59c0 29 7 56 74 56h133c75 0 89 -28 89 -108v-268c-16 -10 -32 -13 -66 -13c-31 0 -55 8 -55 55v14c-43 -52 -97 -79 -165 -79c-153 0 -287 106 -287 359c0 257 133 361 321 361c156 0 215 -74 215 -122c0 -38 -30 -59 -56 -66
c-42 40 -83 56 -158 56c-97 0 -185 -60 -185 -233c0 -169 88 -234 166 -234c67 0 114 31 149 91v72zM259 824c0 48 22 72 72 72c48 0 72 -24 72 -72c0 -49 -24 -72 -72 -72c-49 0 -72 24 -72 72z" />
    <glyph glyph-name="gdotaccent" unicode="&#x121;" horiz-adv-x="511" 
d="M447 397h-31c8 -24 13 -51 13 -82c0 -139 -89 -193 -198 -193c-26 0 -50 3 -72 10c-3 -8 -4 -16 -4 -24c0 -28 21 -40 54 -40h134c81 0 131 -37 131 -120c0 -122 -104 -194 -247 -194c-108 0 -197 45 -197 110c0 22 15 52 37 73c40 -39 87 -61 158 -61
c83 0 123 28 123 53c0 12 -13 21 -34 21h-125c-108 0 -155 39 -155 110c0 46 24 87 48 116c-30 31 -48 77 -48 139c0 138 89 195 197 195c48 0 91 -11 126 -35c9 14 25 25 48 25h74c7 -9 12 -24 12 -46c0 -30 -7 -57 -44 -57zM177 311c0 -60 26 -81 55 -81c28 0 52 19 52 81
c0 63 -24 84 -52 84c-29 0 -55 -21 -55 -84zM163 635c0 48 22 72 72 72c48 0 72 -24 72 -72c0 -49 -24 -72 -72 -72c-49 0 -72 24 -72 72z" />
    <glyph glyph-name="Gcommaaccent" unicode="&#x122;" horiz-adv-x="663" 
d="M333 -213c-44 0 -61 22 -61 65s20 65 65 65c43 0 69 -24 69 -92c0 -104 -32 -146 -69 -146c-26 0 -36 7 -39 25c23 13 35 67 35 83zM492 274h-160c-9 19 -15 32 -15 59c0 29 7 56 74 56h133c75 0 89 -28 89 -108v-268c-16 -10 -32 -13 -66 -13c-31 0 -55 8 -55 55v14
c-43 -52 -97 -79 -165 -79c-153 0 -287 106 -287 359c0 257 133 361 321 361c156 0 215 -74 215 -122c0 -38 -30 -59 -56 -66c-42 40 -83 56 -158 56c-97 0 -185 -60 -185 -233c0 -169 88 -234 166 -234c67 0 114 31 149 91v72z" />
    <glyph glyph-name="gcommaaccent" unicode="&#x123;" horiz-adv-x="511" 
d="M226 681c44 0 61 -22 61 -65s-20 -65 -65 -65c-43 0 -69 24 -69 92c0 104 32 146 69 146c26 0 36 -7 39 -25c-23 -13 -35 -67 -35 -83zM447 397h-31c8 -24 13 -51 13 -82c0 -139 -89 -193 -198 -193c-26 0 -50 3 -72 10c-3 -8 -4 -16 -4 -24c0 -28 21 -40 54 -40h134
c81 0 131 -37 131 -120c0 -122 -104 -194 -247 -194c-108 0 -197 45 -197 110c0 22 15 52 37 73c40 -39 87 -61 158 -61c83 0 123 28 123 53c0 12 -13 21 -34 21h-125c-108 0 -155 39 -155 110c0 46 24 87 48 116c-30 31 -48 77 -48 139c0 138 89 195 197 195
c48 0 91 -11 126 -35c9 14 25 25 48 25h74c7 -9 12 -24 12 -46c0 -30 -7 -57 -44 -57zM177 311c0 -60 26 -81 55 -81c28 0 52 19 52 81c0 63 -24 84 -52 84c-29 0 -55 -21 -55 -84z" />
    <glyph glyph-name="Hcircumflex" unicode="&#x124;" horiz-adv-x="711" 
d="M562 700c38 0 69 -12 69 -51v-636c-10 -7 -47 -13 -70 -13c-42 0 -79 9 -79 68v227h-254v-279c-9 -9 -51 -16 -85 -16c-31 0 -63 9 -63 68v619c16 8 50 13 81 13c37 0 67 -12 67 -51v-219h254v257c14 7 50 13 80 13zM532 784c-3 -19 -14 -33 -29 -40c-8 -4 -17 -5 -26 -5
c-35 0 -80 37 -122 71c-42 -34 -88 -71 -122 -71c-9 0 -18 1 -26 5c-15 7 -26 21 -29 40c25 9 118 130 174 130c60 0 150 -119 180 -130z" />
    <glyph glyph-name="hcircumflex" unicode="&#x125;" horiz-adv-x="529" 
d="M115 700c37 0 66 -13 66 -52v-201c37 38 83 63 138 63c87 0 144 -49 144 -174v-216c0 -17 7 -24 17 -24h27c5 -8 7 -17 7 -34c0 -34 -35 -62 -112 -62c-48 0 -82 26 -82 97v200c0 44 -18 66 -57 66c-27 0 -56 -13 -82 -32v-318c-13 -8 -41 -13 -75 -13
c-31 0 -66 9 -66 68v616c15 9 43 16 75 16zM285 757c-3 -19 -14 -33 -29 -40c-8 -4 -17 -5 -26 -5c-35 0 -80 37 -122 71c-42 -34 -88 -71 -122 -71c-9 0 -18 1 -26 5c-15 7 -26 21 -29 40c25 9 118 130 174 130c60 0 150 -119 180 -130z" />
    <glyph glyph-name="Hbar" unicode="&#x126;" horiz-adv-x="711" 
d="M562 700c38 0 69 -12 69 -51v-64h75c8 -12 14 -29 14 -60c0 -42 -15 -68 -71 -68h-18v-444c-10 -7 -47 -13 -70 -13c-42 0 -79 9 -79 68v181h-254v-233c-9 -9 -51 -16 -85 -16c-31 0 -63 9 -63 68v389h-71c-9 19 -16 32 -16 63c0 40 16 65 67 65h20v102c16 8 50 13 81 13
c37 0 67 -12 67 -51v-64h254v102c14 7 50 13 80 13zM228 457v-73h254v73h-254z" />
    <glyph glyph-name="hbar" unicode="&#x127;" horiz-adv-x="529" 
d="M115 700c37 0 66 -13 66 -52v-5h113c7 -12 10 -30 10 -56c0 -28 -9 -44 -32 -44h-91v-96c37 38 83 63 138 63c87 0 144 -49 144 -174v-216c0 -17 7 -24 17 -24h27c5 -8 7 -17 7 -34c0 -34 -35 -62 -112 -62c-48 0 -82 26 -82 97v200c0 44 -18 66 -57 66
c-27 0 -56 -13 -82 -32v-318c-13 -8 -41 -13 -75 -13c-31 0 -66 9 -66 68v475h-52c-7 18 -11 30 -11 55c0 26 11 45 32 45h31v41c15 9 43 16 75 16z" />
    <glyph glyph-name="Itilde" unicode="&#x128;" horiz-adv-x="308" 
d="M162 700c36 0 66 -12 66 -51v-633c-19 -10 -43 -16 -81 -16c-39 0 -67 15 -67 68v619c17 8 45 13 82 13zM70 881c66 0 103 -28 156 -28c40 0 58 16 60 23c13 -5 30 -30 30 -57c0 -36 -25 -62 -73 -62c-55 0 -123 27 -179 27c-23 0 -41 -9 -44 -24c-22 6 -28 29 -28 51
c0 29 21 70 78 70z" />
    <glyph glyph-name="itilde" unicode="&#x129;" horiz-adv-x="302" 
d="M118 500c55 0 106 -17 106 -117v-247c0 -21 7 -30 22 -30h33c5 -11 8 -22 8 -43c0 -38 -29 -63 -105 -63c-66 0 -101 25 -101 112v231c0 24 -11 31 -24 31h-29c-6 12 -8 27 -8 51c0 53 37 75 98 75zM54 681c66 0 103 -28 156 -28c40 0 58 16 60 23c13 -5 30 -30 30 -57
c0 -36 -25 -62 -73 -62c-55 0 -123 27 -179 27c-23 0 -41 -9 -44 -24c-22 6 -28 29 -28 51c0 29 21 70 78 70z" />
    <glyph glyph-name="Imacron" unicode="&#x12a;" horiz-adv-x="308" 
d="M162 700c36 0 66 -12 66 -51v-633c-19 -10 -43 -16 -81 -16c-39 0 -67 15 -67 68v619c17 8 45 13 82 13zM257 758h-262c-9 14 -16 28 -16 47c0 33 7 57 74 57h262c7 -8 14 -20 14 -39c0 -24 -11 -65 -72 -65z" />
    <glyph glyph-name="imacron" unicode="&#x12b;" horiz-adv-x="302" 
d="M118 500c55 0 106 -17 106 -117v-247c0 -21 7 -30 22 -30h33c5 -11 8 -22 8 -43c0 -38 -29 -63 -105 -63c-66 0 -101 25 -101 112v231c0 24 -11 31 -24 31h-29c-6 12 -8 27 -8 51c0 53 37 75 98 75zM241 558h-262c-9 14 -16 28 -16 47c0 33 7 57 74 57h262
c7 -8 14 -20 14 -39c0 -24 -11 -65 -72 -65z" />
    <glyph glyph-name="Ibreve" unicode="&#x12c;" horiz-adv-x="308" 
d="M162 700c36 0 66 -12 66 -51v-633c-19 -10 -43 -16 -81 -16c-39 0 -67 15 -67 68v619c17 8 45 13 82 13zM80 894c1 -12 5 -26 15 -38c11 -13 30 -22 59 -22c27 0 43 7 53 18c11 11 15 26 19 38c10 8 29 12 54 11c33 -2 44 -23 38 -46c-9 -30 -22 -57 -48 -77
c-25 -20 -62 -32 -115 -32c-56 0 -95 13 -122 34c-28 22 -41 51 -46 82c-3 24 9 37 37 40c22 2 42 -2 56 -8z" />
    <glyph glyph-name="ibreve" unicode="&#x12d;" horiz-adv-x="302" 
d="M118 500c55 0 106 -17 106 -117v-247c0 -21 7 -30 22 -30h33c5 -11 8 -22 8 -43c0 -38 -29 -63 -105 -63c-66 0 -101 25 -101 112v231c0 24 -11 31 -24 31h-29c-6 12 -8 27 -8 51c0 53 37 75 98 75zM52 694c1 -12 5 -26 15 -38c11 -13 30 -22 59 -22c27 0 43 7 53 18
c11 11 15 26 19 38c10 8 29 12 54 11c33 -2 44 -23 38 -46c-9 -30 -22 -57 -48 -77c-25 -20 -62 -32 -115 -32c-56 0 -95 13 -122 34c-28 22 -41 51 -46 82c-3 24 9 37 37 40c22 2 42 -2 56 -8z" />
    <glyph glyph-name="Iogonek" unicode="&#x12e;" horiz-adv-x="308" 
d="M94 -104c0 42 17 77 37 105c-30 5 -51 14 -51 67v619c17 8 45 13 82 13c36 0 66 -12 66 -51v-633c-29 -37 -54 -70 -54 -98c0 -25 13 -34 46 -34c6 -11 8 -20 8 -34c0 -16 -4 -39 -51 -39c-53 0 -83 36 -83 85z" />
    <glyph glyph-name="iogonek" unicode="&#x12f;" horiz-adv-x="302" 
d="M118 500c55 0 106 -16 106 -117v-247c0 -21 7 -30 22 -30h33c5 -11 8 -22 8 -43s-12 -33 -31 -50c-30 -27 -40 -55 -40 -82c0 -25 13 -34 46 -34c6 -11 8 -20 8 -34c0 -17 -6 -39 -51 -39c-53 0 -83 36 -83 85c0 35 12 66 28 91c-53 4 -83 31 -83 112v231
c0 24 -11 31 -24 31h-29c-6 12 -8 27 -8 51c0 53 37 75 98 75zM58 629c0 53 25 80 80 80c53 0 80 -27 80 -80c0 -54 -27 -80 -80 -80c-54 0 -80 27 -80 80z" />
    <glyph glyph-name="Idotaccent" unicode="&#x130;" horiz-adv-x="308" 
d="M162 700c36 0 66 -12 66 -51v-633c-19 -10 -43 -16 -81 -16c-39 0 -67 15 -67 68v619c17 8 45 13 82 13zM82 824c0 48 22 72 72 72c48 0 72 -24 72 -72c0 -49 -24 -72 -72 -72c-49 0 -72 24 -72 72z" />
    <glyph glyph-name="dotlessi" unicode="&#x131;" horiz-adv-x="302" 
d="M118 500c55 0 106 -17 106 -117v-247c0 -21 7 -30 22 -30h33c5 -11 8 -22 8 -43c0 -38 -29 -63 -105 -63c-66 0 -101 25 -101 112v231c0 24 -11 31 -24 31h-29c-6 12 -8 27 -8 51c0 53 37 75 98 75z" />
    <glyph glyph-name="IJ" unicode="&#x132;" horiz-adv-x="724" 
d="M162 700c36 0 66 -12 66 -51v-633c-19 -10 -43 -16 -81 -16c-39 0 -67 15 -67 68v619c17 8 45 13 82 13zM580 700c41 0 64 -14 64 -55v-481c0 -109 -58 -164 -156 -164c-116 0 -160 35 -160 83c0 22 1 34 10 50h104c46 0 65 18 65 54v500c17 9 39 13 73 13z" />
    <glyph glyph-name="ij" unicode="&#x133;" horiz-adv-x="583" 
d="M118 500c55 0 106 -17 106 -117v-247c0 -21 7 -30 22 -30h33c5 -11 8 -22 8 -43c0 -38 -29 -63 -105 -63c-66 0 -101 25 -101 112v231c0 24 -11 31 -24 31h-29c-6 12 -8 27 -8 51c0 53 37 75 98 75zM58 629c0 53 25 80 80 80c53 0 80 -27 80 -80c0 -54 -27 -80 -80 -80
c-54 0 -80 27 -80 80zM426 500c66 0 94 -28 94 -108v-407c0 -112 -44 -165 -134 -165c-71 0 -129 13 -129 69c0 22 1 38 10 58h74c34 0 46 30 46 66v330c0 24 -11 31 -24 31h-35c-4 15 -8 29 -8 58c0 42 36 68 106 68zM363 629c0 53 25 80 80 80c53 0 80 -27 80 -80
c0 -54 -27 -80 -80 -80c-54 0 -80 27 -80 80z" />
    <glyph glyph-name="Jcircumflex" unicode="&#x134;" horiz-adv-x="416" 
d="M272 700c41 0 64 -14 64 -55v-481c0 -109 -58 -164 -156 -164c-116 0 -160 35 -160 83c0 22 1 34 10 50h104c46 0 65 18 65 54v500c17 9 39 13 73 13zM445 784c-3 -19 -14 -33 -29 -40c-8 -4 -17 -5 -26 -5c-35 0 -80 37 -122 71c-42 -34 -88 -71 -122 -71
c-9 0 -18 1 -26 5c-15 7 -26 21 -29 40c25 9 118 130 174 130c60 0 150 -119 180 -130z" />
    <glyph glyph-name="jcircumflex" unicode="&#x135;" horiz-adv-x="281" 
d="M124 500c66 0 94 -28 94 -108v-407c0 -112 -44 -165 -134 -165c-71 0 -129 13 -129 69c0 22 1 38 10 58h74c34 0 46 30 46 66v330c0 24 -11 31 -24 31h-35c-4 15 -8 29 -8 58c0 42 36 68 106 68zM303 589c-3 -19 -14 -33 -29 -40c-8 -4 -17 -5 -26 -5
c-35 0 -80 37 -122 71c-42 -34 -88 -71 -122 -71c-9 0 -18 1 -26 5c-15 7 -26 21 -29 40c25 9 118 130 174 130c60 0 150 -119 180 -130z" />
    <glyph glyph-name="Kcommaaccent" unicode="&#x136;" horiz-adv-x="630" 
d="M314 -192c-44 0 -61 22 -61 65s20 65 65 65c43 0 69 -24 69 -92c0 -104 -32 -146 -69 -146c-26 0 -36 7 -39 25c23 13 35 67 35 83zM157 700c40 0 67 -11 67 -50v-238c94 78 180 199 202 277c15 8 35 11 64 11s54 -23 54 -52c0 -15 -4 -39 -13 -57
c-36 -69 -86 -145 -166 -214c66 -62 119 -250 185 -250h38c7 -8 12 -23 12 -48c0 -47 -30 -79 -97 -79c-125 0 -150 186 -237 305l-42 -24v-266c-17 -10 -47 -15 -81 -15c-38 0 -63 13 -63 67v619c18 8 46 14 77 14z" />
    <glyph glyph-name="kcommaaccent" unicode="&#x137;" horiz-adv-x="506" 
d="M112 701c34 0 77 -12 77 -51v-335c67 53 94 114 103 171c13 7 38 14 61 14c45 0 73 -16 73 -63c0 -51 -61 -128 -126 -158c47 -37 83 -140 144 -140h46c7 -9 11 -30 11 -54c0 -49 -37 -85 -92 -85c-116 0 -150 157 -220 224v-209c-12 -8 -47 -15 -81 -15
c-31 0 -63 8 -63 67v615c15 12 32 19 67 19z" />
    <glyph glyph-name="kgreenlandic" unicode="&#x138;" horiz-adv-x="506" 
d="M112 500c34 0 77 -12 77 -51v-134c67 53 94 114 103 171c13 7 38 14 61 14c45 0 73 -16 73 -63c0 -51 -61 -128 -126 -158c47 -37 83 -140 144 -140h46c7 -9 11 -30 11 -54c0 -49 -37 -85 -92 -85c-116 0 -150 157 -220 224v-209c-12 -8 -47 -15 -81 -15
c-31 0 -63 8 -63 67v414c15 12 32 19 67 19z" />
    <glyph glyph-name="Lacute" unicode="&#x139;" horiz-adv-x="539" 
d="M153 700c33 0 75 -11 75 -50v-512h280c7 -10 16 -30 16 -59c0 -45 -16 -79 -76 -79h-305c-39 0 -63 17 -63 64v624c14 6 41 12 73 12zM99 782c25 10 119 130 175 130c45 0 61 -25 63 -56c-51 -32 -130 -119 -183 -119c-28 0 -50 17 -55 45z" />
    <glyph glyph-name="lacute" unicode="&#x13a;" horiz-adv-x="308" 
d="M185 638v-470c0 -39 16 -52 46 -52h66c4 -12 6 -21 6 -40c0 -37 -34 -76 -136 -76c-88 0 -122 56 -122 137v543c15 13 30 23 69 22c53 -2 71 -30 71 -64zM24 776c25 10 119 130 175 130c45 0 61 -25 63 -56c-51 -32 -130 -119 -183 -119c-28 0 -50 17 -55 45z" />
    <glyph glyph-name="Lcommaaccent" unicode="&#x13b;" horiz-adv-x="539" 
d="M299 -203c-44 0 -61 22 -61 65s20 65 65 65c43 0 69 -24 69 -92c0 -104 -32 -146 -69 -146c-26 0 -36 7 -39 25c23 13 35 67 35 83zM153 700c33 0 75 -11 75 -50v-512h280c7 -10 16 -30 16 -59c0 -45 -16 -79 -76 -79h-305c-39 0 -63 17 -63 64v624c14 6 41 12 73 12z
" />
    <glyph glyph-name="lcommaaccent" unicode="&#x13c;" horiz-adv-x="308" 
d="M142 -177c-44 0 -61 22 -61 65s20 65 65 65c43 0 69 -24 69 -92c0 -104 -32 -146 -69 -146c-26 0 -36 7 -39 25c23 13 35 67 35 83zM185 638v-470c0 -39 16 -52 46 -52h66c4 -12 6 -21 6 -40c0 -37 -34 -76 -136 -76c-88 0 -122 56 -122 137v543c15 13 30 23 69 22
c53 -2 71 -30 71 -64z" />
    <glyph glyph-name="Lcaron" unicode="&#x13d;" horiz-adv-x="539" 
d="M153 700c33 0 75 -11 75 -50v-512h280c7 -10 16 -30 16 -59c0 -45 -16 -79 -76 -79h-305c-39 0 -63 17 -63 64v624c14 6 41 12 73 12zM344 556c-49 0 -68 24 -68 72s22 72 72 72c48 0 77 -26 77 -102c0 -115 -36 -162 -77 -162c-29 0 -40 8 -43 28c26 14 39 74 39 92z
" />
    <glyph glyph-name="lcaron" unicode="&#x13e;" horiz-adv-x="308" 
d="M273 595c-44 0 -61 22 -61 65s20 65 65 65c43 0 69 -24 69 -92c0 -104 -32 -146 -69 -146c-26 0 -36 7 -39 25c23 13 35 67 35 83zM185 638v-470c0 -39 16 -52 46 -52h66c4 -12 6 -21 6 -40c0 -37 -34 -76 -136 -76c-88 0 -122 56 -122 137v543c15 13 30 23 69 22
c53 -2 71 -30 71 -64z" />
    <glyph glyph-name="Ldot" unicode="&#x13f;" horiz-adv-x="539" 
d="M153 700c33 0 75 -11 75 -50v-512h280c7 -10 16 -30 16 -59c0 -45 -16 -79 -76 -79h-305c-39 0 -63 17 -63 64v624c14 6 41 12 73 12zM337 352c0 48 22 72 72 72c48 0 72 -24 72 -72c0 -49 -24 -72 -72 -72c-49 0 -72 24 -72 72z" />
    <glyph glyph-name="ldot" unicode="&#x140;" horiz-adv-x="348" 
d="M185 638v-470c0 -39 16 -52 46 -52h66c4 -12 6 -21 6 -40c0 -37 -34 -76 -136 -76c-88 0 -122 56 -122 137v543c15 13 30 23 69 22c53 -2 71 -30 71 -64zM220 360c0 48 22 72 72 72c48 0 72 -24 72 -72c0 -49 -24 -72 -72 -72c-49 0 -72 24 -72 72z" />
    <glyph glyph-name="Lslash" unicode="&#x141;" horiz-adv-x="539" 
d="M153 700c33 0 75 -11 75 -50v-203l100 64c14 -5 51 -36 51 -75c0 -25 -18 -40 -42 -55l-109 -69v-174h280c7 -10 16 -30 16 -59c0 -45 -16 -79 -76 -79h-305c-39 0 -63 17 -63 64v154l-43 -27c-26 16 -56 38 -56 70c0 20 10 35 36 52l63 40v335c14 6 41 12 73 12z" />
    <glyph glyph-name="lslash" unicode="&#x142;" horiz-adv-x="308" 
d="M185 638v-177l57 37c31 -8 56 -42 56 -72c0 -28 -6 -40 -25 -52l-88 -56v-150c0 -39 16 -52 46 -52h66c4 -12 6 -21 6 -40c0 -37 -34 -76 -136 -76c-88 0 -122 56 -122 137v91l-34 -21c-23 13 -49 40 -49 80c0 21 9 36 30 50l53 34v309c15 13 30 23 69 22
c53 -2 71 -30 71 -64z" />
    <glyph glyph-name="Nacute" unicode="&#x143;" horiz-adv-x="715" 
d="M493 38l-272 392l7 -415c-9 -9 -51 -16 -85 -16c-31 0 -63 9 -63 68v620c19 8 49 13 80 13c33 0 56 -18 69 -38l266 -394l-4 414c15 12 37 19 72 19c34 0 77 -12 77 -51v-638c-12 -7 -37 -12 -76 -12c-32 0 -55 15 -71 38zM238 782c25 10 119 130 175 130
c45 0 61 -25 63 -56c-51 -32 -130 -119 -183 -119c-28 0 -50 17 -55 45z" />
    <glyph glyph-name="nacute" unicode="&#x144;" horiz-adv-x="607" 
d="M130 500c46 0 89 -27 106 -71c46 52 96 81 159 81c75 0 136 -43 136 -158v-231c0 -17 8 -26 21 -26h34c4 -7 6 -13 6 -33c0 -38 -40 -62 -114 -62c-64 0 -92 26 -92 97v215c0 29 -18 49 -49 49c-34 0 -65 -13 -93 -34v-313c-16 -10 -44 -14 -83 -14c-36 0 -69 15 -69 74
v269c0 21 -9 31 -28 31h-31c-8 17 -13 32 -13 56c0 48 36 70 110 70zM203 582c25 10 119 130 175 130c45 0 61 -25 63 -56c-51 -32 -130 -119 -183 -119c-28 0 -50 17 -55 45z" />
    <glyph glyph-name="Ncommaaccent" unicode="&#x145;" horiz-adv-x="715" 
d="M367 -188c-44 0 -61 22 -61 65s20 65 65 65c43 0 69 -24 69 -92c0 -104 -32 -146 -69 -146c-26 0 -36 7 -39 25c23 13 35 67 35 83zM493 38l-272 392l7 -415c-9 -9 -51 -16 -85 -16c-31 0 -63 9 -63 68v620c19 8 49 13 80 13c33 0 56 -18 69 -38l266 -394l-4 414
c15 12 37 19 72 19c34 0 77 -12 77 -51v-638c-12 -7 -37 -12 -76 -12c-32 0 -55 15 -71 38z" />
    <glyph glyph-name="ncommaaccent" unicode="&#x146;" horiz-adv-x="607" 
d="M320 -177c-44 0 -61 22 -61 65s20 65 65 65c43 0 69 -24 69 -92c0 -104 -32 -146 -69 -146c-26 0 -36 7 -39 25c23 13 35 67 35 83zM130 500c46 0 89 -27 106 -71c46 52 96 81 159 81c75 0 136 -43 136 -158v-231c0 -17 8 -26 21 -26h34c4 -7 6 -13 6 -33
c0 -38 -40 -62 -114 -62c-64 0 -92 26 -92 97v215c0 29 -18 49 -49 49c-34 0 -65 -13 -93 -34v-313c-16 -10 -44 -14 -83 -14c-36 0 -69 15 -69 74v269c0 21 -9 31 -28 31h-31c-8 17 -13 32 -13 56c0 48 36 70 110 70z" />
    <glyph glyph-name="Ncaron" unicode="&#x147;" horiz-adv-x="715" 
d="M493 38l-272 392l7 -415c-9 -9 -51 -16 -85 -16c-31 0 -63 9 -63 68v620c19 8 49 13 80 13c33 0 56 -18 69 -38l266 -394l-4 414c15 12 37 19 72 19c34 0 77 -12 77 -51v-638c-12 -7 -37 -12 -76 -12c-32 0 -55 15 -71 38zM355 740c-13 0 -19 3 -25 6
c-50 20 -113 86 -156 113c2 31 33 56 63 56c34 0 82 -44 120 -81c38 37 86 81 120 81c28 0 61 -25 63 -56c-43 -27 -105 -92 -157 -113c-5 -2 -12 -7 -28 -6z" />
    <glyph glyph-name="ncaron" unicode="&#x148;" horiz-adv-x="607" 
d="M130 500c46 0 89 -27 106 -71c46 52 96 81 159 81c75 0 136 -43 136 -158v-231c0 -17 8 -26 21 -26h34c4 -7 6 -13 6 -33c0 -38 -40 -62 -114 -62c-64 0 -92 26 -92 97v215c0 29 -18 49 -49 49c-34 0 -65 -13 -93 -34v-313c-16 -10 -44 -14 -83 -14c-36 0 -69 15 -69 74
v269c0 21 -9 31 -28 31h-31c-8 17 -13 32 -13 56c0 48 36 70 110 70zM289 540c-13 0 -19 3 -25 6c-50 20 -113 86 -156 113c2 31 33 56 63 56c34 0 82 -44 120 -81c38 37 86 81 120 81c28 0 61 -25 63 -56c-43 -27 -105 -92 -157 -113c-5 -2 -12 -7 -28 -6z" />
    <glyph glyph-name="napostrophe" unicode="&#x149;" horiz-adv-x="676" 
d="M24 643c-44 0 -61 22 -61 65s20 65 65 65c43 0 69 -24 69 -92c0 -104 -32 -146 -69 -146c-26 0 -36 7 -39 25c23 13 35 67 35 83zM199 500c46 0 89 -27 106 -71c46 52 96 81 159 81c75 0 136 -43 136 -158v-231c0 -17 8 -26 21 -26h34c4 -7 6 -13 6 -33
c0 -38 -40 -62 -114 -62c-64 0 -92 26 -92 97v215c0 29 -18 49 -49 49c-34 0 -65 -13 -93 -34v-313c-16 -10 -44 -14 -83 -14c-36 0 -69 15 -69 74v269c0 21 -9 31 -28 31h-31c-8 17 -13 32 -13 56c0 48 36 70 110 70z" />
    <glyph glyph-name="Eng" unicode="&#x14a;" horiz-adv-x="715" 
d="M498 3v28l-277 399l7 -415c-9 -9 -51 -16 -85 -16c-31 0 -63 9 -63 68v620c19 8 49 13 80 13c33 0 56 -18 69 -38l266 -394l-4 414c15 12 37 19 72 19c34 0 77 -12 77 -51v-665c0 -112 -44 -165 -134 -165c-71 0 -129 13 -129 69c0 22 1 38 10 58h65c34 0 46 20 46 56z
" />
    <glyph glyph-name="eng" unicode="&#x14b;" horiz-adv-x="592" 
d="M390 13v295c0 33 -20 53 -58 53c-35 0 -64 -13 -90 -33v-314c-16 -10 -44 -14 -83 -14c-37 0 -70 15 -70 74v269c0 21 -8 31 -27 31h-29c-8 17 -13 32 -13 56c0 48 36 70 109 70c46 0 88 -27 105 -71c46 52 99 81 158 81c78 0 138 -43 138 -158v-367
c0 -112 -44 -165 -134 -165c-71 0 -129 13 -129 69c0 22 1 38 10 58h67c34 0 46 30 46 66z" />
    <glyph glyph-name="Omacron" unicode="&#x14c;" horiz-adv-x="682" 
d="M40 349c0 257 135 361 300 361c172 0 302 -104 302 -361c0 -258 -133 -359 -301 -359c-169 0 -301 106 -301 359zM186 345c0 -169 77 -231 155 -231c88 0 153 58 153 231s-70 236 -154 236c-79 0 -154 -63 -154 -236zM444 758h-262c-9 14 -16 28 -16 47c0 33 7 57 74 57
h262c7 -8 14 -20 14 -39c0 -24 -11 -65 -72 -65z" />
    <glyph glyph-name="omacron" unicode="&#x14d;" horiz-adv-x="553" 
d="M35 248c0 185 106 262 241 262c139 0 242 -77 242 -262c0 -186 -106 -258 -242 -258c-137 0 -241 76 -241 258zM187 246c0 -95 42 -128 89 -128c52 0 88 31 88 128s-38 133 -88 133c-48 0 -89 -36 -89 -133zM378 558h-262c-9 14 -16 28 -16 47c0 33 7 57 74 57h262
c7 -8 14 -20 14 -39c0 -24 -11 -65 -72 -65z" />
    <glyph glyph-name="Obreve" unicode="&#x14e;" horiz-adv-x="682" 
d="M40 349c0 257 135 361 300 361c172 0 302 -104 302 -361c0 -258 -133 -359 -301 -359c-169 0 -301 106 -301 359zM186 345c0 -169 77 -231 155 -231c88 0 153 58 153 231s-70 236 -154 236c-79 0 -154 -63 -154 -236zM267 894c1 -12 5 -26 15 -38c11 -13 30 -22 59 -22
c27 0 43 7 53 18c11 11 15 26 19 38c10 8 29 12 54 11c33 -2 44 -23 38 -46c-9 -30 -22 -57 -48 -77c-25 -20 -62 -32 -115 -32c-56 0 -95 13 -122 34c-28 22 -41 51 -46 82c-3 24 9 37 37 40c22 2 42 -2 56 -8z" />
    <glyph glyph-name="obreve" unicode="&#x14f;" horiz-adv-x="553" 
d="M35 248c0 185 106 262 241 262c139 0 242 -77 242 -262c0 -186 -106 -258 -242 -258c-137 0 -241 76 -241 258zM187 246c0 -95 42 -128 89 -128c52 0 88 31 88 128s-38 133 -88 133c-48 0 -89 -36 -89 -133zM201 694c1 -12 5 -26 15 -38c11 -13 30 -22 59 -22
c27 0 43 7 53 18c11 11 15 26 19 38c10 8 29 12 54 11c33 -2 44 -23 38 -46c-9 -30 -22 -57 -48 -77c-25 -20 -62 -32 -115 -32c-56 0 -95 13 -122 34c-28 22 -41 51 -46 82c-3 24 9 37 37 40c22 2 42 -2 56 -8z" />
    <glyph glyph-name="Ohungarumlaut" unicode="&#x150;" horiz-adv-x="682" 
d="M40 349c0 257 135 361 300 361c172 0 302 -104 302 -361c0 -258 -133 -359 -301 -359c-169 0 -301 106 -301 359zM186 345c0 -169 77 -231 155 -231c88 0 153 58 153 231s-70 236 -154 236c-79 0 -154 -63 -154 -236zM142 786c47 34 91 158 161 158c40 0 56 -19 62 -46
c-50 -42 -116 -148 -170 -148c-28 0 -45 13 -53 36zM346 795c25 10 119 130 175 130c45 0 61 -25 63 -56c-51 -32 -130 -119 -183 -119c-28 0 -50 17 -55 45z" />
    <glyph glyph-name="ohungarumlaut" unicode="&#x151;" horiz-adv-x="553" 
d="M35 248c0 185 106 262 241 262c139 0 242 -77 242 -262c0 -186 -106 -258 -242 -258c-137 0 -241 76 -241 258zM187 246c0 -95 42 -128 89 -128c52 0 88 31 88 128s-38 133 -88 133c-48 0 -89 -36 -89 -133zM104 586c47 34 91 158 161 158c40 0 56 -19 62 -46
c-50 -42 -116 -148 -170 -148c-28 0 -45 13 -53 36zM308 595c25 10 119 130 175 130c45 0 61 -25 63 -56c-51 -32 -130 -119 -183 -119c-28 0 -50 17 -55 45z" />
    <glyph glyph-name="OE" unicode="&#x152;" horiz-adv-x="967" 
d="M882 0h-375c-12 0 -24 1 -34 5c-40 -10 -85 -15 -127 -15c-174 0 -306 106 -306 359c0 233 115 361 304 361c45 0 75 -5 118 -16c13 4 31 6 59 6h390c7 -10 16 -30 16 -59c0 -45 -16 -79 -45 -79h-290v-139h270c7 -10 16 -37 16 -66c0 -45 -16 -71 -41 -71h-245v-148h319
c7 -10 16 -30 16 -59c0 -45 -16 -79 -45 -79zM186 345c0 -169 77 -231 160 -231c28 0 68 4 98 20v423c-30 17 -65 24 -99 24c-84 0 -159 -63 -159 -236z" />
    <glyph glyph-name="oe" unicode="&#x153;" horiz-adv-x="839" 
d="M35 248c0 185 106 262 241 262c71 0 133 -21 176 -66c44 43 102 66 163 66c124 0 194 -89 194 -225c0 -28 -3 -56 -10 -77h-277c11 -61 49 -88 100 -88c60 0 128 14 158 34c11 -10 24 -29 24 -57c0 -68 -73 -107 -196 -107c-66 0 -119 23 -157 62
c-44 -44 -106 -62 -175 -62c-136 0 -241 76 -241 258zM187 246c0 -95 42 -128 89 -128c52 0 88 31 88 128s-38 133 -88 133c-48 0 -89 -36 -89 -133zM614 382c-34 0 -76 -26 -91 -81h160c0 55 -24 81 -69 81z" />
    <glyph glyph-name="Racute" unicode="&#x154;" horiz-adv-x="672" 
d="M154 700h210c105 0 215 -53 215 -205c0 -101 -65 -168 -140 -197c49 -69 89 -171 143 -171h38c7 -8 12 -23 12 -48c0 -47 -30 -79 -97 -79c-124 0 -141 166 -225 282h-82v-268c-12 -9 -48 -14 -75 -14c-38 0 -73 8 -73 67v622c15 8 42 11 74 11zM344 584h-116v-189h102
c68 0 109 36 109 98c0 57 -45 91 -95 91zM217 782c25 10 119 130 175 130c45 0 61 -25 63 -56c-51 -32 -130 -119 -183 -119c-28 0 -50 17 -55 45z" />
    <glyph glyph-name="racute" unicode="&#x155;" horiz-adv-x="455" 
d="M115 500c47 0 90 -10 107 -60c38 40 89 70 133 70c68 0 95 -38 95 -111c0 -86 -36 -117 -91 -117c-19 0 -40 8 -51 17c0 29 -7 47 -29 47c-19 0 -33 -1 -49 -12v-320c-10 -9 -43 -14 -80 -14c-33 0 -67 8 -67 67v276c0 24 -10 31 -24 31h-34c-7 20 -10 36 -10 60
c0 34 39 66 100 66zM143 582c25 10 119 130 175 130c45 0 61 -25 63 -56c-51 -32 -130 -119 -183 -119c-28 0 -50 17 -55 45z" />
    <glyph glyph-name="Rcommaaccent" unicode="&#x156;" horiz-adv-x="672" 
d="M333 -213c-44 0 -61 22 -61 65s20 65 65 65c43 0 69 -24 69 -92c0 -104 -32 -146 -69 -146c-26 0 -36 7 -39 25c23 13 35 67 35 83zM154 700h210c105 0 215 -53 215 -205c0 -101 -65 -168 -140 -197c49 -69 89 -171 143 -171h38c7 -8 12 -23 12 -48
c0 -47 -30 -79 -97 -79c-124 0 -141 166 -225 282h-82v-268c-12 -9 -48 -14 -75 -14c-38 0 -73 8 -73 67v622c15 8 42 11 74 11zM344 584h-116v-189h102c68 0 109 36 109 98c0 57 -45 91 -95 91z" />
    <glyph glyph-name="rcommaaccent" unicode="&#x157;" horiz-adv-x="455" 
d="M156 -177c-44 0 -61 22 -61 65s20 65 65 65c43 0 69 -24 69 -92c0 -104 -32 -146 -69 -146c-26 0 -36 7 -39 25c23 13 35 67 35 83zM115 500c47 0 90 -10 107 -60c38 40 89 70 133 70c68 0 95 -38 95 -111c0 -86 -36 -117 -91 -117c-19 0 -40 8 -51 17c0 29 -7 47 -29 47
c-19 0 -33 -1 -49 -12v-320c-10 -9 -43 -14 -80 -14c-33 0 -67 8 -67 67v276c0 24 -10 31 -24 31h-34c-7 20 -10 36 -10 60c0 34 39 66 100 66z" />
    <glyph glyph-name="Rcaron" unicode="&#x158;" horiz-adv-x="672" 
d="M154 700h210c105 0 215 -53 215 -205c0 -101 -65 -168 -140 -197c49 -69 89 -171 143 -171h38c7 -8 12 -23 12 -48c0 -47 -30 -79 -97 -79c-124 0 -141 166 -225 282h-82v-268c-12 -9 -48 -14 -75 -14c-38 0 -73 8 -73 67v622c15 8 42 11 74 11zM344 584h-116v-189h102
c68 0 109 36 109 98c0 57 -45 91 -95 91zM299 740c-13 0 -19 3 -25 6c-50 20 -113 86 -156 113c2 31 33 56 63 56c34 0 82 -44 120 -81c38 37 86 81 120 81c28 0 61 -25 63 -56c-43 -27 -105 -92 -157 -113c-5 -2 -12 -7 -28 -6z" />
    <glyph glyph-name="rcaron" unicode="&#x159;" horiz-adv-x="455" 
d="M115 500c47 0 90 -10 107 -60c38 40 89 70 133 70c68 0 95 -38 95 -111c0 -86 -36 -117 -91 -117c-19 0 -40 8 -51 17c0 29 -7 47 -29 47c-19 0 -33 -1 -49 -12v-320c-10 -9 -43 -14 -80 -14c-33 0 -67 8 -67 67v276c0 24 -10 31 -24 31h-34c-7 20 -10 36 -10 60
c0 34 39 66 100 66zM229 540c-13 0 -19 3 -25 6c-50 20 -113 86 -156 113c2 31 33 56 63 56c34 0 82 -44 120 -81c38 37 86 81 120 81c28 0 61 -25 63 -56c-43 -27 -105 -92 -157 -113c-5 -2 -12 -7 -28 -6z" />
    <glyph glyph-name="Sacute" unicode="&#x15a;" horiz-adv-x="580" 
d="M291 710c114 0 161 -26 193 -57c19 -19 26 -43 26 -65c0 -27 -13 -49 -27 -70c-40 21 -102 38 -191 38c-60 0 -97 -20 -97 -61c0 -32 21 -61 118 -82c155 -33 223 -75 226 -208c3 -122 -72 -215 -247 -215c-109 0 -176 19 -216 49c-28 21 -36 44 -36 74c0 28 10 57 19 72
c57 -29 142 -49 228 -49c82 0 103 34 103 61c0 36 -18 59 -121 77c-157 28 -222 86 -222 223c0 129 87 213 244 213zM171 782c25 10 119 130 175 130c45 0 61 -25 63 -56c-51 -32 -130 -119 -183 -119c-28 0 -50 17 -55 45z" />
    <glyph glyph-name="sacute" unicode="&#x15b;" horiz-adv-x="446" 
d="M226 510c127 0 171 -50 171 -93c0 -32 -4 -62 -17 -78c-29 16 -104 28 -156 28c-43 0 -60 -10 -60 -25c0 -16 16 -26 74 -33c125 -16 178 -64 178 -158c0 -99 -61 -161 -188 -161c-133 0 -198 37 -198 93c0 34 6 56 21 75c39 -19 113 -37 168 -37c52 0 66 12 66 27
c0 18 -21 29 -81 36c-130 17 -165 67 -165 162c0 101 64 164 187 164zM138 582c25 10 119 130 175 130c45 0 61 -25 63 -56c-51 -32 -130 -119 -183 -119c-28 0 -50 17 -55 45z" />
    <glyph glyph-name="Scircumflex" unicode="&#x15c;" horiz-adv-x="580" 
d="M291 710c114 0 161 -26 193 -57c19 -19 26 -43 26 -65c0 -27 -13 -49 -27 -70c-40 21 -102 38 -191 38c-60 0 -97 -20 -97 -61c0 -32 21 -61 118 -82c155 -33 223 -75 226 -208c3 -122 -72 -215 -247 -215c-109 0 -176 19 -216 49c-28 21 -36 44 -36 74c0 28 10 57 19 72
c57 -29 142 -49 228 -49c82 0 103 34 103 61c0 36 -18 59 -121 77c-157 28 -222 86 -222 223c0 129 87 213 244 213zM467 784c-3 -19 -14 -33 -29 -40c-8 -4 -17 -5 -26 -5c-35 0 -80 37 -122 71c-42 -34 -88 -71 -122 -71c-9 0 -18 1 -26 5c-15 7 -26 21 -29 40
c25 9 118 130 174 130c60 0 150 -119 180 -130z" />
    <glyph glyph-name="scircumflex" unicode="&#x15d;" horiz-adv-x="446" 
d="M226 510c127 0 171 -50 171 -93c0 -32 -4 -62 -17 -78c-29 16 -104 28 -156 28c-43 0 -60 -10 -60 -25c0 -16 16 -26 74 -33c125 -16 178 -64 178 -158c0 -99 -61 -161 -188 -161c-133 0 -198 37 -198 93c0 34 6 56 21 75c39 -19 113 -37 168 -37c52 0 66 12 66 27
c0 18 -21 29 -81 36c-130 17 -165 67 -165 162c0 101 64 164 187 164zM404 584c-3 -19 -14 -33 -29 -40c-8 -4 -17 -5 -26 -5c-35 0 -80 37 -122 71c-42 -34 -88 -71 -122 -71c-9 0 -18 1 -26 5c-15 7 -26 21 -29 40c25 9 118 130 174 130c60 0 150 -119 180 -130z" />
    <glyph glyph-name="Scedilla" unicode="&#x15e;" horiz-adv-x="580" 
d="M291 710c114 0 161 -26 193 -57c19 -19 26 -43 26 -65c0 -27 -13 -49 -27 -70c-40 21 -102 38 -191 38c-60 0 -97 -20 -97 -61c0 -32 21 -61 118 -82c155 -33 223 -75 226 -208c3 -122 -72 -215 -247 -215c-109 0 -176 19 -216 49c-28 21 -36 44 -36 74c0 28 10 57 19 72
c57 -29 142 -49 228 -49c82 0 103 34 103 61c0 36 -18 59 -121 77c-157 28 -222 86 -222 223c0 129 87 213 244 213zM318 -120c0 26 -44 35 -70 35c-5 6 -9 16 -9 25l1 70l76 -1l-5 -46c62 -12 79 -44 79 -90c0 -52 -33 -92 -104 -92c-64 0 -96 29 -96 56c0 19 8 33 20 41
c17 -15 44 -28 71 -28c28 0 37 13 37 30z" />
    <glyph glyph-name="scedilla" unicode="&#x15f;" horiz-adv-x="446" 
d="M226 510c127 0 171 -50 171 -93c0 -32 -4 -62 -17 -78c-29 16 -104 28 -156 28c-43 0 -60 -10 -60 -25c0 -16 16 -26 74 -33c125 -16 178 -64 178 -158c0 -99 -61 -161 -188 -161c-133 0 -198 37 -198 93c0 34 6 56 21 75c39 -19 113 -37 168 -37c52 0 66 12 66 27
c0 18 -21 29 -81 36c-130 17 -165 67 -165 162c0 101 64 164 187 164zM266 -113c0 26 -44 35 -70 35c-5 6 -9 16 -9 25l1 70l76 -1l-5 -46c62 -12 79 -44 79 -90c0 -52 -33 -92 -104 -92c-64 0 -96 29 -96 56c0 19 8 33 20 41c17 -15 44 -28 71 -28c28 0 37 13 37 30z" />
    <glyph glyph-name="Scaron" unicode="&#x160;" horiz-adv-x="580" 
d="M291 710c114 0 161 -26 193 -57c19 -19 26 -43 26 -65c0 -27 -13 -49 -27 -70c-40 21 -102 38 -191 38c-60 0 -97 -20 -97 -61c0 -32 21 -61 118 -82c155 -33 223 -75 226 -208c3 -122 -72 -215 -247 -215c-109 0 -176 19 -216 49c-28 21 -36 44 -36 74c0 28 10 57 19 72
c57 -29 142 -49 228 -49c82 0 103 34 103 61c0 36 -18 59 -121 77c-157 28 -222 86 -222 223c0 129 87 213 244 213zM288 740c-13 0 -19 3 -25 6c-50 20 -113 86 -156 113c2 31 33 56 63 56c34 0 82 -44 120 -81c38 37 86 81 120 81c28 0 61 -25 63 -56
c-43 -27 -105 -92 -157 -113c-5 -2 -12 -7 -28 -6z" />
    <glyph glyph-name="scaron" unicode="&#x161;" horiz-adv-x="446" 
d="M226 510c127 0 171 -50 171 -93c0 -32 -4 -62 -17 -78c-29 16 -104 28 -156 28c-43 0 -60 -10 -60 -25c0 -16 16 -26 74 -33c125 -16 178 -64 178 -158c0 -99 -61 -161 -188 -161c-133 0 -198 37 -198 93c0 34 6 56 21 75c39 -19 113 -37 168 -37c52 0 66 12 66 27
c0 18 -21 29 -81 36c-130 17 -165 67 -165 162c0 101 64 164 187 164zM224 540c-13 0 -19 3 -25 6c-50 20 -113 86 -156 113c2 31 33 56 63 56c34 0 82 -44 120 -81c38 37 86 81 120 81c28 0 61 -25 63 -56c-43 -27 -105 -92 -157 -113c-5 -2 -12 -7 -28 -6z" />
    <glyph glyph-name="Tcommaaccent" unicode="&#x162;" horiz-adv-x="573" 
d="M289 -202c-44 0 -61 22 -61 65s20 65 65 65c43 0 69 -24 69 -92c0 -104 -32 -146 -69 -146c-26 0 -36 7 -39 25c23 13 35 67 35 83zM518 562h-159v-550c-15 -8 -42 -12 -82 -12c-34 0 -62 15 -62 67v495h-189c-9 19 -16 43 -16 70c0 34 15 68 66 68h471
c7 -10 16 -30 16 -59c0 -45 -16 -79 -45 -79z" />
    <glyph glyph-name="tcommaaccent" unicode="&#x163;" horiz-adv-x="386" 
d="M187 -177c-44 0 -61 22 -61 65s20 65 65 65c43 0 69 -24 69 -92c0 -104 -32 -146 -69 -146c-26 0 -36 7 -39 25c23 13 35 67 35 83zM304 383h-75v-210c0 -40 13 -52 42 -52h86c5 -12 9 -20 9 -42c0 -43 -24 -79 -146 -79c-71 0 -128 34 -128 145v238h-59
c-8 14 -13 30 -13 51c0 42 11 66 49 66h23v106c15 8 44 15 75 15c36 0 62 -15 62 -57v-64h116c11 -10 15 -26 15 -45c0 -27 -9 -72 -56 -72z" />
    <glyph glyph-name="Tcaron" unicode="&#x164;" horiz-adv-x="573" 
d="M518 562h-159v-550c-15 -8 -42 -12 -82 -12c-34 0 -62 15 -62 67v495h-189c-9 19 -16 43 -16 70c0 34 15 68 66 68h471c7 -10 16 -30 16 -59c0 -45 -16 -79 -45 -79zM284 740c-13 0 -19 3 -25 6c-50 20 -113 86 -156 113c2 31 33 56 63 56c34 0 82 -44 120 -81
c38 37 86 81 120 81c28 0 61 -25 63 -56c-43 -27 -105 -92 -157 -113c-5 -2 -12 -7 -28 -6z" />
    <glyph glyph-name="tcaron" unicode="&#x165;" horiz-adv-x="386" 
d="M305 640c-44 0 -61 22 -61 65s20 65 65 65c43 0 69 -24 69 -92c0 -104 -32 -146 -69 -146c-26 0 -36 7 -39 25c23 13 35 67 35 83zM304 383h-75v-210c0 -40 13 -52 42 -52h86c5 -12 9 -20 9 -42c0 -43 -24 -79 -146 -79c-71 0 -128 34 -128 145v238h-59
c-8 14 -13 30 -13 51c0 42 11 66 49 66h23v106c15 8 44 15 75 15c36 0 62 -15 62 -57v-64h116c11 -10 15 -26 15 -45c0 -27 -9 -72 -56 -72z" />
    <glyph glyph-name="Tbar" unicode="&#x166;" horiz-adv-x="573" 
d="M518 562h-159v-165h120c9 -17 14 -42 14 -68c0 -31 -11 -70 -66 -70h-68v-247c-15 -8 -42 -12 -82 -12c-34 0 -62 15 -62 67v192h-123c-9 19 -16 37 -16 73c0 34 16 65 57 65h82v165h-189c-9 19 -16 43 -16 70c0 34 15 68 66 68h471c7 -10 16 -30 16 -59
c0 -45 -16 -79 -45 -79z" />
    <glyph glyph-name="tbar" unicode="&#x167;" horiz-adv-x="386" 
d="M304 383h-75v-50h111c8 -12 14 -28 14 -59c0 -42 -15 -66 -63 -66h-62v-35c0 -40 13 -52 42 -52h86c5 -12 9 -20 9 -42c0 -43 -24 -79 -146 -79c-71 0 -128 34 -128 145v63h-59c-8 19 -14 38 -14 61c0 40 11 64 51 64h22v50h-59c-8 14 -13 30 -13 51c0 42 11 66 49 66h23
v106c15 8 44 15 75 15c36 0 62 -15 62 -57v-64h116c11 -10 15 -26 15 -45c0 -27 -9 -72 -56 -72z" />
    <glyph glyph-name="Utilde" unicode="&#x168;" horiz-adv-x="674" 
d="M460 271v416c13 8 38 13 75 13c41 0 73 -12 73 -51l1 -394c0 -182 -101 -265 -273 -265s-265 83 -265 265l-1 433c13 8 45 12 77 12c43 0 71 -11 71 -50v-379c0 -96 37 -149 118 -149c92 0 124 52 124 149zM253 881c66 0 103 -28 156 -28c40 0 58 16 60 23
c13 -5 30 -30 30 -57c0 -36 -25 -62 -73 -62c-55 0 -123 27 -179 27c-23 0 -41 -9 -44 -24c-22 6 -28 29 -28 51c0 29 21 70 78 70z" />
    <glyph glyph-name="utilde" unicode="&#x169;" horiz-adv-x="611" 
d="M480 0c-34 0 -77 11 -96 59c-41 -43 -92 -69 -154 -69c-67 0 -139 43 -139 158v198c0 21 -8 28 -23 28h-45c-5 16 -8 29 -7 57c2 47 57 69 117 69c74 0 110 -24 110 -93v-219c0 -29 20 -49 43 -49c42 0 67 12 89 38v307c19 10 52 16 83 16c50 0 71 -19 71 -55l1 -298
c0 -24 12 -31 26 -31h36c2 -8 4 -17 4 -45c0 -41 -33 -71 -116 -71zM217 681c66 0 103 -28 156 -28c40 0 58 16 60 23c13 -5 30 -30 30 -57c0 -36 -25 -62 -73 -62c-55 0 -123 27 -179 27c-23 0 -41 -9 -44 -24c-22 6 -28 29 -28 51c0 29 21 70 78 70z" />
    <glyph glyph-name="Umacron" unicode="&#x16a;" horiz-adv-x="674" 
d="M460 271v416c13 8 38 13 75 13c41 0 73 -12 73 -51l1 -394c0 -182 -101 -265 -273 -265s-265 83 -265 265l-1 433c13 8 45 12 77 12c43 0 71 -11 71 -50v-379c0 -96 37 -149 118 -149c92 0 124 52 124 149zM440 758h-262c-9 14 -16 28 -16 47c0 33 7 57 74 57h262
c7 -8 14 -20 14 -39c0 -24 -11 -65 -72 -65z" />
    <glyph glyph-name="umacron" unicode="&#x16b;" horiz-adv-x="611" 
d="M480 0c-34 0 -77 11 -96 59c-41 -43 -92 -69 -154 -69c-67 0 -139 43 -139 158v198c0 21 -8 28 -23 28h-45c-5 16 -8 29 -7 57c2 47 57 69 117 69c74 0 110 -24 110 -93v-219c0 -29 20 -49 43 -49c42 0 67 12 89 38v307c19 10 52 16 83 16c50 0 71 -19 71 -55l1 -298
c0 -24 12 -31 26 -31h36c2 -8 4 -17 4 -45c0 -41 -33 -71 -116 -71zM404 558h-262c-9 14 -16 28 -16 47c0 33 7 57 74 57h262c7 -8 14 -20 14 -39c0 -24 -11 -65 -72 -65z" />
    <glyph glyph-name="Ubreve" unicode="&#x16c;" horiz-adv-x="674" 
d="M460 271v416c13 8 38 13 75 13c41 0 73 -12 73 -51l1 -394c0 -182 -101 -265 -273 -265s-265 83 -265 265l-1 433c13 8 45 12 77 12c43 0 71 -11 71 -50v-379c0 -96 37 -149 118 -149c92 0 124 52 124 149zM263 894c1 -12 5 -26 15 -38c11 -13 30 -22 59 -22
c27 0 43 7 53 18c11 11 15 26 19 38c10 8 29 12 54 11c33 -2 44 -23 38 -46c-9 -30 -22 -57 -48 -77c-25 -20 -62 -32 -115 -32c-56 0 -95 13 -122 34c-28 22 -41 51 -46 82c-3 24 9 37 37 40c22 2 42 -2 56 -8z" />
    <glyph glyph-name="ubreve" unicode="&#x16d;" horiz-adv-x="611" 
d="M480 0c-34 0 -77 11 -96 59c-41 -43 -92 -69 -154 -69c-67 0 -139 43 -139 158v198c0 21 -8 28 -23 28h-45c-5 16 -8 29 -7 57c2 47 57 69 117 69c74 0 110 -24 110 -93v-219c0 -29 20 -49 43 -49c42 0 67 12 89 38v307c19 10 52 16 83 16c50 0 71 -19 71 -55l1 -298
c0 -24 12 -31 26 -31h36c2 -8 4 -17 4 -45c0 -41 -33 -71 -116 -71zM215 694c1 -12 5 -26 15 -38c11 -13 30 -22 59 -22c27 0 43 7 53 18c11 11 15 26 19 38c10 8 29 12 54 11c33 -2 44 -23 38 -46c-9 -30 -22 -57 -48 -77c-25 -20 -62 -32 -115 -32c-56 0 -95 13 -122 34
c-28 22 -41 51 -46 82c-3 24 9 37 37 40c22 2 42 -2 56 -8z" />
    <glyph glyph-name="Uring" unicode="&#x16e;" horiz-adv-x="674" 
d="M460 271v416c13 8 38 13 75 13c41 0 73 -12 73 -51l1 -394c0 -182 -101 -265 -273 -265s-265 83 -265 265l-1 433c13 8 45 12 77 12c43 0 71 -11 71 -50v-379c0 -96 37 -149 118 -149c92 0 124 52 124 149zM243 834c0 62 32 94 94 94s94 -32 94 -94s-32 -94 -94 -94
s-94 32 -94 94zM302 834c0 -23 12 -35 35 -35s35 12 35 35s-12 35 -35 35s-35 -12 -35 -35z" />
    <glyph glyph-name="uring" unicode="&#x16f;" horiz-adv-x="611" 
d="M480 0c-34 0 -77 11 -96 59c-41 -43 -92 -69 -154 -69c-67 0 -139 43 -139 158v198c0 21 -8 28 -23 28h-45c-5 16 -8 29 -7 57c2 47 57 69 117 69c74 0 110 -24 110 -93v-219c0 -29 20 -49 43 -49c42 0 67 12 89 38v307c19 10 52 16 83 16c50 0 71 -19 71 -55l1 -298
c0 -24 12 -31 26 -31h36c2 -8 4 -17 4 -45c0 -41 -33 -71 -116 -71zM195 634c0 62 32 94 94 94s94 -32 94 -94s-32 -94 -94 -94s-94 32 -94 94zM254 634c0 -23 12 -35 35 -35s35 12 35 35s-12 35 -35 35s-35 -12 -35 -35z" />
    <glyph glyph-name="Uhungarumlaut" unicode="&#x170;" horiz-adv-x="674" 
d="M460 271v416c13 8 38 13 75 13c41 0 73 -12 73 -51l1 -394c0 -182 -101 -265 -273 -265s-265 83 -265 265l-1 433c13 8 45 12 77 12c43 0 71 -11 71 -50v-379c0 -96 37 -149 118 -149c92 0 124 52 124 149zM144 786c47 34 91 158 161 158c40 0 56 -19 62 -46
c-50 -42 -116 -148 -170 -148c-28 0 -45 13 -53 36zM348 795c25 10 119 130 175 130c45 0 61 -25 63 -56c-51 -32 -130 -119 -183 -119c-28 0 -50 17 -55 45z" />
    <glyph glyph-name="uhungarumlaut" unicode="&#x171;" horiz-adv-x="611" 
d="M480 0c-34 0 -77 11 -96 59c-41 -43 -92 -69 -154 -69c-67 0 -139 43 -139 158v198c0 21 -8 28 -23 28h-45c-5 16 -8 29 -7 57c2 47 57 69 117 69c74 0 110 -24 110 -93v-219c0 -29 20 -49 43 -49c42 0 67 12 89 38v307c19 10 52 16 83 16c50 0 71 -19 71 -55l1 -298
c0 -24 12 -31 26 -31h36c2 -8 4 -17 4 -45c0 -41 -33 -71 -116 -71zM118 586c47 34 91 158 161 158c40 0 56 -19 62 -46c-50 -42 -116 -148 -170 -148c-28 0 -45 13 -53 36zM322 595c25 10 119 130 175 130c45 0 61 -25 63 -56c-51 -32 -130 -119 -183 -119
c-28 0 -50 17 -55 45z" />
    <glyph glyph-name="Uogonek" unicode="&#x172;" horiz-adv-x="674" 
d="M370 -9c-11 -1 -22 -1 -34 -1c-172 0 -265 83 -265 265l-1 433c13 8 45 12 77 12c43 0 71 -11 71 -50v-379c0 -96 37 -149 118 -149c92 0 124 52 124 149v416c13 8 38 13 75 13c41 0 73 -12 73 -51l1 -394c0 -132 -50 -200 -123 -236c-47 -23 -70 -73 -70 -101
c0 -25 13 -34 46 -34c6 -11 8 -20 8 -34c0 -16 -4 -39 -51 -39c-53 0 -83 36 -83 85c0 44 17 74 34 95z" />
    <glyph glyph-name="uogonek" unicode="&#x173;" horiz-adv-x="611" 
d="M286 139c42 0 67 12 89 38v307c19 10 52 16 83 16c50 0 71 -18 71 -55l1 -298c0 -24 12 -31 26 -31h36c2 -8 4 -17 4 -45c0 -20 -10 -35 -26 -51c-28 -27 -42 -55 -42 -82c0 -25 13 -34 46 -34c6 -11 8 -20 8 -34c0 -16 -4 -39 -51 -39c-53 0 -83 36 -83 85
c0 32 10 60 24 84c-31 0 -70 14 -88 59c-41 -43 -92 -69 -154 -69c-67 0 -139 43 -139 158v198c0 21 -8 28 -23 28h-45c-5 16 -8 29 -7 57c2 47 57 69 117 69c74 0 110 -24 110 -93v-219c0 -29 20 -49 43 -49z" />
    <glyph glyph-name="Wcircumflex" unicode="&#x174;" horiz-adv-x="972" 
d="M471 700c38 0 64 -13 76 -48l152 -448c92 156 116 387 123 480c22 11 43 16 81 16c27 0 54 -14 54 -38c0 -12 -1 -33 -11 -85c-13 -68 -61 -319 -206 -567c-20 -7 -36 -10 -60 -10c-35 0 -56 16 -71 57l-94 261c-39 -99 -88 -211 -143 -306c-20 -7 -36 -10 -60 -10
c-35 0 -56 16 -71 57l-226 625c17 9 50 16 88 16s64 -13 76 -48l152 -446c46 78 87 201 115 302l-63 176c17 9 50 16 88 16zM663 784c-3 -19 -14 -33 -29 -40c-8 -4 -17 -5 -26 -5c-35 0 -80 37 -122 71c-42 -34 -88 -71 -122 -71c-9 0 -18 1 -26 5c-15 7 -26 21 -29 40
c25 9 118 130 174 130c60 0 150 -119 180 -130z" />
    <glyph glyph-name="wcircumflex" unicode="&#x175;" horiz-adv-x="795" 
d="M502 12l-71 209c-18 -53 -41 -104 -68 -147c-34 -54 -55 -74 -97 -74c-25 0 -42 5 -54 12l-125 357c-4 12 -12 19 -25 19h-39c-5 15 -8 29 -8 50c0 39 38 62 112 62c57 0 78 -24 90 -59l78 -232c37 49 66 113 66 152c0 12 -6 27 -20 27h-27c-5 12 -9 27 -9 47
c0 37 39 65 106 65c40 0 65 -20 74 -50l77 -243c39 50 62 111 62 156c0 15 -13 25 -23 25h-26c-4 11 -8 27 -8 48c0 37 41 64 102 64c73 0 96 -43 96 -103c0 -81 -60 -235 -116 -325c-27 -44 -53 -72 -96 -72c-25 0 -38 4 -51 12zM563 584c-3 -19 -14 -33 -29 -40
c-8 -4 -17 -5 -26 -5c-35 0 -80 37 -122 71c-42 -34 -88 -71 -122 -71c-9 0 -18 1 -26 5c-15 7 -26 21 -29 40c25 9 118 130 174 130c60 0 150 -119 180 -130z" />
    <glyph glyph-name="Ycircumflex" unicode="&#x176;" horiz-adv-x="589" 
d="M379 246v-230c-12 -8 -40 -16 -82 -16s-65 13 -65 46v192c-87 144 -182 308 -217 444c19 10 48 18 81 18c39 0 60 -10 71 -48c28 -102 83 -201 142 -302c69 120 126 265 145 343c15 5 42 7 70 7c30 0 50 -20 50 -51c0 -72 -118 -289 -195 -403zM471 784
c-3 -19 -14 -33 -29 -40c-8 -4 -17 -5 -26 -5c-35 0 -80 37 -122 71c-42 -34 -88 -71 -122 -71c-9 0 -18 1 -26 5c-15 7 -26 21 -29 40c25 9 118 130 174 130c60 0 150 -119 180 -130z" />
    <glyph glyph-name="ycircumflex" unicode="&#x177;" horiz-adv-x="560" 
d="M217 419l77 -241c4 -14 11 -23 19 -28c41 84 73 164 73 209c0 18 -8 29 -24 29h-31c-5 11 -9 30 -9 50c0 38 44 62 96 62c82 0 112 -39 112 -101c0 -94 -85 -278 -159 -411c-69 -124 -154 -158 -256 -158c-54 0 -84 20 -84 64c0 15 2 29 11 50h94c44 0 78 22 115 86
c-32 8 -57 34 -68 71l-95 261c-6 19 -15 26 -29 26h-35c-7 15 -9 34 -9 50c0 37 37 62 103 62c56 0 83 -27 99 -81zM454 584c-3 -19 -14 -33 -29 -40c-8 -4 -17 -5 -26 -5c-35 0 -80 37 -122 71c-42 -34 -88 -71 -122 -71c-9 0 -18 1 -26 5c-15 7 -26 21 -29 40
c25 9 118 130 174 130c60 0 150 -119 180 -130z" />
    <glyph glyph-name="Ydieresis" unicode="&#x178;" horiz-adv-x="589" 
d="M379 246v-230c-12 -8 -40 -16 -82 -16s-65 13 -65 46v192c-87 144 -182 308 -217 444c19 10 48 18 81 18c39 0 60 -10 71 -48c28 -102 83 -201 142 -302c69 120 126 265 145 343c15 5 42 7 70 7c30 0 50 -20 50 -51c0 -72 -118 -289 -195 -403zM120 831c0 48 22 72 72 72
c48 0 72 -24 72 -72c0 -49 -24 -72 -72 -72c-49 0 -72 24 -72 72zM324 831c0 48 22 72 72 72c48 0 72 -24 72 -72c0 -49 -24 -72 -72 -72c-49 0 -72 24 -72 72z" />
    <glyph glyph-name="Zacute" unicode="&#x179;" horiz-adv-x="613" 
d="M550 574l-326 -451h357c6 -12 12 -29 12 -60c0 -30 -12 -63 -56 -63h-505c-9 17 -12 29 -12 52c0 26 7 48 22 68l326 446h-305c-9 19 -16 36 -16 66c0 33 16 68 48 68h473c7 -10 10 -26 10 -49c0 -29 -9 -51 -28 -77zM187 782c25 10 119 130 175 130c45 0 61 -25 63 -56
c-51 -32 -130 -119 -183 -119c-28 0 -50 17 -55 45z" />
    <glyph glyph-name="zacute" unicode="&#x17a;" horiz-adv-x="494" 
d="M30 55c0 22 3 39 17 56l221 272h-205c-8 14 -13 30 -13 51c0 35 5 66 55 66h333c5 -11 9 -26 9 -49c0 -26 -10 -43 -23 -60l-210 -269h239c6 -11 11 -25 11 -60c0 -27 -8 -62 -54 -62h-366c-8 14 -14 34 -14 55zM128 582c25 10 119 130 175 130c45 0 61 -25 63 -56
c-51 -32 -130 -119 -183 -119c-28 0 -50 17 -55 45z" />
    <glyph glyph-name="Zdotaccent" unicode="&#x17b;" horiz-adv-x="613" 
d="M550 574l-326 -451h357c6 -12 12 -29 12 -60c0 -30 -12 -63 -56 -63h-505c-9 17 -12 29 -12 52c0 26 7 48 22 68l326 446h-305c-9 19 -16 36 -16 66c0 33 16 68 48 68h473c7 -10 10 -26 10 -49c0 -29 -9 -51 -28 -77zM234 824c0 48 22 72 72 72c48 0 72 -24 72 -72
c0 -49 -24 -72 -72 -72c-49 0 -72 24 -72 72z" />
    <glyph glyph-name="zdotaccent" unicode="&#x17c;" horiz-adv-x="494" 
d="M30 55c0 22 3 39 17 56l221 272h-205c-8 14 -13 30 -13 51c0 35 5 66 55 66h333c5 -11 9 -26 9 -49c0 -26 -10 -43 -23 -60l-210 -269h239c6 -11 11 -25 11 -60c0 -27 -8 -62 -54 -62h-366c-8 14 -14 34 -14 55zM175 635c0 48 22 72 72 72c48 0 72 -24 72 -72
c0 -49 -24 -72 -72 -72c-49 0 -72 24 -72 72z" />
    <glyph glyph-name="Zcaron" unicode="&#x17d;" horiz-adv-x="613" 
d="M550 574l-326 -451h357c6 -12 12 -29 12 -60c0 -30 -12 -63 -56 -63h-505c-9 17 -12 29 -12 52c0 26 7 48 22 68l326 446h-305c-9 19 -16 36 -16 66c0 33 16 68 48 68h473c7 -10 10 -26 10 -49c0 -29 -9 -51 -28 -77zM304 740c-13 0 -19 3 -25 6c-50 20 -113 86 -156 113
c2 31 33 56 63 56c34 0 82 -44 120 -81c38 37 86 81 120 81c28 0 61 -25 63 -56c-43 -27 -105 -92 -157 -113c-5 -2 -12 -7 -28 -6z" />
    <glyph glyph-name="zcaron" unicode="&#x17e;" horiz-adv-x="494" 
d="M30 55c0 22 3 39 17 56l221 272h-205c-8 14 -13 30 -13 51c0 35 5 66 55 66h333c5 -11 9 -26 9 -49c0 -26 -10 -43 -23 -60l-210 -269h239c6 -11 11 -25 11 -60c0 -27 -8 -62 -54 -62h-366c-8 14 -14 34 -14 55zM245 540c-13 0 -19 3 -25 6c-50 20 -113 86 -156 113
c2 31 33 56 63 56c34 0 82 -44 120 -81c38 37 86 81 120 81c28 0 61 -25 63 -56c-43 -27 -105 -92 -157 -113c-5 -2 -12 -7 -28 -6z" />
    <glyph glyph-name="florin" unicode="&#x192;" horiz-adv-x="480" 
d="M376 276h-80l-40 -278c-17 -118 -78 -169 -194 -169c-69 0 -91 26 -91 67c0 23 5 47 12 64h74c27 0 49 10 56 57l37 259h-95c-9 19 -16 31 -16 71c0 33 15 61 74 61h56l19 134c15 111 79 158 200 158c64 0 84 -33 84 -66c0 -29 -4 -46 -10 -68h-76c-32 0 -50 -9 -55 -44
l-16 -114h119c7 -10 14 -30 14 -60c0 -43 -19 -72 -72 -72z" />
    <glyph glyph-name="aringacute" unicode="&#x1fb;" horiz-adv-x="495" 
d="M79 359c-7 16 -17 37 -17 59c0 76 106 92 172 92c126 0 194 -61 194 -178v-211c0 -14 6 -26 16 -26h28c4 -5 8 -19 8 -43c0 -32 -25 -52 -98 -52c-33 0 -62 23 -74 51c-43 -35 -94 -61 -146 -61c-91 0 -142 63 -142 163c0 92 55 154 164 155l117 1c-6 47 -30 70 -79 70
c-50 0 -107 -7 -143 -20zM189 112c38 0 67 7 114 35v65l-109 -12c-34 -4 -47 -22 -47 -46c0 -22 15 -42 42 -42zM153 634c0 62 32 94 94 94s94 -32 94 -94s-32 -94 -94 -94s-94 32 -94 94zM212 634c0 -23 12 -35 35 -35s35 12 35 35s-12 35 -35 35s-35 -12 -35 -35zM149 792
c25 10 119 130 175 130c45 0 61 -25 63 -56c-51 -32 -130 -119 -183 -119c-28 0 -50 17 -55 45z" />
    <glyph glyph-name="AEacute" unicode="&#x1fc;" horiz-adv-x="946" 
d="M861 0h-375c-31 0 -63 8 -63 67v67h-213l-32 -85c-12 -37 -35 -49 -84 -49c-38 0 -65 6 -79 20l254 656c23 16 55 24 90 24h531c7 -10 16 -30 16 -59c0 -45 -16 -79 -45 -79h-290v-139h270c7 -10 16 -37 16 -66c0 -45 -16 -71 -41 -71h-245v-148h319c7 -10 16 -30 16 -59
c0 -45 -16 -79 -45 -79zM370 562l-113 -301h166v301h-53zM429 782c25 10 119 130 175 130c45 0 61 -25 63 -56c-51 -32 -130 -119 -183 -119c-28 0 -50 17 -55 45z" />
    <glyph glyph-name="aeacute" unicode="&#x1fd;" horiz-adv-x="767" 
d="M79 359c-7 16 -17 37 -17 59c0 76 106 92 172 92c69 0 120 -19 153 -54c42 35 95 54 151 54c124 0 194 -89 194 -225c0 -28 -3 -56 -10 -77h-277c11 -61 49 -88 100 -88c15 0 31 0 46 2c46 5 89 17 112 32c11 -10 24 -29 24 -57c0 -68 -73 -107 -196 -107
c-77 0 -137 31 -176 83c-54 -47 -127 -83 -193 -83c-91 0 -142 63 -142 163c0 74 35 127 105 147c44 12 117 9 176 9c-6 48 -31 70 -79 70c-50 0 -107 -7 -143 -20zM189 112c41 0 70 11 125 49c-3 11 -5 22 -7 34l-2 18l-111 -13c-34 -4 -47 -22 -47 -46
c0 -22 15 -42 42 -42zM537 382c-34 0 -76 -26 -91 -81h160c0 55 -24 81 -69 81zM300 587c25 10 119 130 175 130c45 0 61 -25 63 -56c-51 -32 -130 -119 -183 -119c-28 0 -50 17 -55 45z" />
    <glyph glyph-name="Oslashacute" unicode="&#x1fe;" horiz-adv-x="682" 
d="M40 349c0 257 135 361 300 361c39 0 75 -6 109 -17l51 109c15 5 31 5 46 5c32 0 53 -21 53 -37c0 -8 -1 -14 -5 -23l-52 -109c62 -57 100 -151 100 -289c0 -258 -133 -359 -301 -359c-35 0 -69 5 -100 14l-59 -125c-13 -3 -23 -4 -36 -4c-26 0 -59 17 -59 38
c0 9 2 18 7 29l53 113c-66 56 -107 152 -107 294zM186 345c0 -64 10 -113 28 -148l177 375c-16 6 -33 9 -51 9c-79 0 -154 -63 -154 -236zM494 345c0 60 -9 107 -23 142l-174 -366c14 -5 29 -7 44 -7c88 0 153 58 153 231zM222 782c25 10 119 130 175 130
c45 0 61 -25 63 -56c-51 -32 -130 -119 -183 -119c-28 0 -50 17 -55 45z" />
    <glyph glyph-name="oslashacute" unicode="&#x1ff;" horiz-adv-x="553" 
d="M35 248c0 185 106 262 241 262c19 0 38 -2 55 -5l38 105c11 4 24 7 36 7c20 0 33 -6 33 -21c0 -8 -2 -17 -5 -25l-32 -88c72 -37 117 -112 117 -235c0 -186 -106 -258 -242 -258c-17 0 -34 1 -50 4l-31 -88c-13 -7 -20 -9 -40 -9c-14 0 -29 7 -29 20c0 9 2 20 6 31l24 67
c-73 35 -121 110 -121 233zM187 246c0 -40 7 -70 19 -90l80 222c-4 1 -7 1 -10 1c-48 0 -89 -36 -89 -133zM364 246c0 38 -6 66 -16 87l-77 -215h5c52 0 88 31 88 128zM157 582c25 10 119 130 175 130c45 0 61 -25 63 -56c-51 -32 -130 -119 -183 -119c-28 0 -50 17 -55 45z
" />
    <glyph glyph-name="Scommaaccent" unicode="&#x218;" horiz-adv-x="580" 
d="M272 -187c-44 0 -61 22 -61 65s20 65 65 65c43 0 69 -24 69 -92c0 -104 -32 -146 -69 -146c-26 0 -36 7 -39 25c23 13 35 67 35 83zM291 710c114 0 161 -26 193 -57c19 -19 26 -43 26 -65c0 -27 -13 -49 -27 -70c-40 21 -102 38 -191 38c-60 0 -97 -20 -97 -61
c0 -32 21 -61 118 -82c155 -33 223 -75 226 -208c3 -122 -72 -215 -247 -215c-109 0 -176 19 -216 49c-28 21 -36 44 -36 74c0 28 10 57 19 72c57 -29 142 -49 228 -49c82 0 103 34 103 61c0 36 -18 59 -121 77c-157 28 -222 86 -222 223c0 129 87 213 244 213z" />
    <glyph glyph-name="scommaaccent" unicode="&#x219;" horiz-adv-x="446" 
d="M217 -177c-44 0 -61 22 -61 65s20 65 65 65c43 0 69 -24 69 -92c0 -104 -32 -146 -69 -146c-26 0 -36 7 -39 25c23 13 35 67 35 83zM226 510c127 0 171 -50 171 -93c0 -32 -4 -62 -17 -78c-29 16 -104 28 -156 28c-43 0 -60 -10 -60 -25c0 -16 16 -26 74 -33
c125 -16 178 -64 178 -158c0 -99 -61 -161 -188 -161c-133 0 -198 37 -198 93c0 34 6 56 21 75c39 -19 113 -37 168 -37c52 0 66 12 66 27c0 18 -21 29 -81 36c-130 17 -165 67 -165 162c0 101 64 164 187 164z" />
    <glyph glyph-name="uni021A" unicode="&#x21a;" horiz-adv-x="573" 
d="M281 -195c-44 0 -61 22 -61 65s20 65 65 65c43 0 69 -24 69 -92c0 -104 -32 -146 -69 -146c-26 0 -36 7 -39 25c23 13 35 67 35 83zM518 562h-159v-550c-15 -8 -42 -12 -82 -12c-34 0 -62 15 -62 67v495h-189c-9 19 -16 43 -16 70c0 34 15 68 66 68h471
c7 -10 16 -30 16 -59c0 -45 -16 -79 -45 -79z" />
    <glyph glyph-name="uni021B" unicode="&#x21b;" horiz-adv-x="386" 
d="M187 -177c-44 0 -61 22 -61 65s20 65 65 65c43 0 69 -24 69 -92c0 -104 -32 -146 -69 -146c-26 0 -36 7 -39 25c23 13 35 67 35 83zM304 383h-75v-210c0 -40 13 -52 42 -52h86c5 -12 9 -20 9 -42c0 -43 -24 -79 -146 -79c-71 0 -128 34 -128 145v238h-59
c-8 14 -13 30 -13 51c0 42 11 66 49 66h23v106c15 8 44 15 75 15c36 0 62 -15 62 -57v-64h116c11 -10 15 -26 15 -45c0 -27 -9 -72 -56 -72z" />
    <glyph glyph-name="dotlessj" unicode="&#x237;" horiz-adv-x="281" 
d="M124 500c66 0 94 -28 94 -108v-407c0 -112 -44 -165 -134 -165c-71 0 -129 13 -129 69c0 22 1 38 10 58h74c34 0 46 30 46 66v330c0 24 -11 31 -24 31h-35c-4 15 -8 29 -8 58c0 42 36 68 106 68z" />
    <glyph glyph-name="hsuperior" unicode="&#x2b0;" horiz-adv-x="286" 
d="M66 700c21 0 38 -7 38 -28v-93c19 17 41 28 69 28c46 0 77 -24 77 -89v-104c0 -8 3 -12 8 -12h14c3 -4 4 -9 4 -18c0 -19 -20 -34 -64 -34c-26 0 -45 14 -45 51v96c0 19 -8 29 -27 29c-12 0 -24 -4 -36 -11v-158c-7 -4 -24 -7 -43 -7c-18 0 -38 5 -38 37v304
c8 5 25 9 43 9z" />
    <glyph glyph-name="circumflex" unicode="&#x2c6;" horiz-adv-x="481" 
d="M404 584c-3 -19 -14 -33 -29 -40c-8 -4 -17 -5 -26 -5c-35 0 -80 37 -122 71c-42 -34 -88 -71 -122 -71c-9 0 -18 1 -26 5c-15 7 -26 21 -29 40c25 9 118 130 174 130c60 0 150 -119 180 -130z" />
    <glyph glyph-name="caron" unicode="&#x2c7;" horiz-adv-x="474" 
d="M231 540c-13 0 -19 3 -25 6c-50 20 -113 86 -156 113c2 31 33 56 63 56c34 0 82 -44 120 -81c38 37 86 81 120 81c28 0 61 -25 63 -56c-43 -27 -105 -92 -157 -113c-5 -2 -12 -7 -28 -6z" />
    <glyph glyph-name="breve" unicode="&#x2d8;" horiz-adv-x="476" 
d="M155 694c1 -12 5 -26 15 -38c11 -13 30 -22 59 -22c27 0 43 7 53 18c11 11 15 26 19 38c10 8 29 12 54 11c33 -2 44 -23 38 -46c-9 -30 -22 -57 -48 -77c-25 -20 -62 -32 -115 -32c-56 0 -95 13 -122 34c-28 22 -41 51 -46 82c-3 24 9 37 37 40c22 2 42 -2 56 -8z" />
    <glyph glyph-name="dotaccent" unicode="&#x2d9;" horiz-adv-x="438" 
d="M143 635c0 48 22 72 72 72c48 0 72 -24 72 -72c0 -49 -24 -72 -72 -72c-49 0 -72 24 -72 72z" />
    <glyph glyph-name="ring" unicode="&#x2da;" horiz-adv-x="428" 
d="M120 634c0 62 32 94 94 94s94 -32 94 -94s-32 -94 -94 -94s-94 32 -94 94zM179 634c0 -23 12 -35 35 -35s35 12 35 35s-12 35 -35 35s-35 -12 -35 -35z" />
    <glyph glyph-name="ogonek" unicode="&#x2db;" horiz-adv-x="495" 
d="M340 38l56 -32c-24 -38 -44 -60 -44 -88c0 -25 13 -34 46 -34c6 -11 8 -20 8 -34c0 -16 -4 -39 -51 -39c-53 0 -83 36 -83 85c0 63 41 114 68 142z" />
    <glyph glyph-name="tilde" unicode="&#x2dc;" horiz-adv-x="484" 
d="M142 681c66 0 103 -28 156 -28c40 0 58 16 60 23c13 -5 30 -30 30 -57c0 -36 -25 -62 -73 -62c-55 0 -123 27 -179 27c-23 0 -41 -9 -44 -24c-22 6 -28 29 -28 51c0 29 21 70 78 70z" />
    <glyph glyph-name="hungarumlaut" unicode="&#x2dd;" horiz-adv-x="509" 
d="M41 586c47 34 91 158 161 158c40 0 56 -19 62 -46c-50 -42 -116 -148 -170 -148c-28 0 -45 13 -53 36zM245 595c25 10 119 130 175 130c45 0 61 -25 63 -56c-51 -32 -130 -119 -183 -119c-28 0 -50 17 -55 45z" />
    <glyph glyph-name="uni0394" unicode="&#x394;" horiz-adv-x="657" 
d="M93 0c-38 0 -65 6 -79 20l215 606c20 58 52 74 98 74c38 0 74 -22 93 -72l224 -597c-15 -26 -41 -31 -68 -31h-483zM326 496l-123 -369h262z" />
    <glyph glyph-name="uni03A9" unicode="&#x3a9;" horiz-adv-x="682" 
d="M161 114l2 4c-70 43 -123 139 -123 248c0 240 135 344 300 344c172 0 302 -103 302 -343c0 -110 -46 -203 -123 -249l1 -4h126c7 -9 16 -17 16 -43c0 -41 -16 -71 -45 -71h-237c-9 17 -16 33 -16 77c0 31 6 59 20 61c67 10 110 80 110 225c0 155 -70 218 -154 218
c-79 0 -154 -61 -154 -216c0 -137 70 -214 126 -228c7 -9 16 -40 16 -66c0 -41 -16 -71 -45 -71h-247c-9 17 -16 33 -16 57c0 38 17 57 74 57h67z" />
    <glyph glyph-name="uni03BC" unicode="&#x3bc;" horiz-adv-x="578" 
d="M464 0c-34 0 -77 11 -96 59c-33 -34 -72 -58 -118 -66c-12 -2 -24 -3 -36 -3v-145c-10 -9 -35 -15 -72 -15c-33 0 -67 10 -67 68v448c0 21 -8 28 -23 28h-45c-5 16 -8 29 -7 57c2 47 57 69 117 69c74 0 110 -25 110 -93v-146c0 -52 -10 -122 43 -122c42 0 67 12 89 38
v307c19 10 52 16 83 16c50 0 71 -18 71 -55c0 -99 1 -199 1 -298c0 -24 12 -31 26 -31h36c2 -8 4 -17 4 -45c0 -21 -8 -38 -27 -51s-48 -20 -89 -20z" />
    <glyph glyph-name="pi" unicode="&#x3c0;" horiz-adv-x="612" 
d="M94 142v220h-68c-9 19 -16 37 -16 63c0 43 7 75 74 75h502c7 -10 16 -30 16 -59c0 -45 -16 -79 -45 -79h-39v-349c-10 -7 -47 -13 -70 -13c-42 0 -79 9 -79 68v294h-127v-234c0 -109 -63 -133 -148 -133c-41 0 -75 20 -75 74c42 7 75 25 75 73z" />
    <glyph glyph-name="Wgrave" unicode="&#x1e80;" horiz-adv-x="972" 
d="M471 700c38 0 64 -13 76 -48l152 -448c92 156 116 387 123 480c22 11 43 16 81 16c27 0 54 -14 54 -38c0 -12 -1 -33 -11 -85c-13 -68 -61 -319 -206 -567c-20 -7 -36 -10 -60 -10c-35 0 -56 16 -71 57l-94 261c-39 -99 -88 -211 -143 -306c-20 -7 -36 -10 -60 -10
c-35 0 -56 16 -71 57l-226 625c17 9 50 16 88 16s64 -13 76 -48l152 -446c46 78 87 201 115 302l-63 176c17 9 50 16 88 16zM605 779c-5 -28 -27 -45 -55 -45c-53 0 -132 87 -183 119c2 31 18 56 63 56c56 0 150 -120 175 -130z" />
    <glyph glyph-name="wgrave" unicode="&#x1e81;" horiz-adv-x="795" 
d="M502 12l-71 209c-18 -53 -41 -104 -68 -147c-34 -54 -55 -74 -97 -74c-25 0 -42 5 -54 12l-125 357c-4 12 -12 19 -25 19h-39c-5 15 -8 29 -8 50c0 39 38 62 112 62c57 0 78 -24 90 -59l78 -232c37 49 66 113 66 152c0 12 -6 27 -20 27h-27c-5 12 -9 27 -9 47
c0 37 39 65 106 65c40 0 65 -20 74 -50l77 -243c39 50 62 111 62 156c0 15 -13 25 -23 25h-26c-4 11 -8 27 -8 48c0 37 41 64 102 64c73 0 96 -43 96 -103c0 -81 -60 -235 -116 -325c-27 -44 -53 -72 -96 -72c-25 0 -38 4 -51 12zM474 579c-5 -28 -27 -45 -55 -45
c-53 0 -132 87 -183 119c2 31 18 56 63 56c56 0 150 -120 175 -130z" />
    <glyph glyph-name="Wacute" unicode="&#x1e82;" horiz-adv-x="972" 
d="M471 700c38 0 64 -13 76 -48l152 -448c92 156 116 387 123 480c22 11 43 16 81 16c27 0 54 -14 54 -38c0 -12 -1 -33 -11 -85c-13 -68 -61 -319 -206 -567c-20 -7 -36 -10 -60 -10c-35 0 -56 16 -71 57l-94 261c-39 -99 -88 -211 -143 -306c-20 -7 -36 -10 -60 -10
c-35 0 -56 16 -71 57l-226 625c17 9 50 16 88 16s64 -13 76 -48l152 -446c46 78 87 201 115 302l-63 176c17 9 50 16 88 16zM367 782c25 10 119 130 175 130c45 0 61 -25 63 -56c-51 -32 -130 -119 -183 -119c-28 0 -50 17 -55 45z" />
    <glyph glyph-name="wacute" unicode="&#x1e83;" horiz-adv-x="795" 
d="M502 12l-71 209c-18 -53 -41 -104 -68 -147c-34 -54 -55 -74 -97 -74c-25 0 -42 5 -54 12l-125 357c-4 12 -12 19 -25 19h-39c-5 15 -8 29 -8 50c0 39 38 62 112 62c57 0 78 -24 90 -59l78 -232c37 49 66 113 66 152c0 12 -6 27 -20 27h-27c-5 12 -9 27 -9 47
c0 37 39 65 106 65c40 0 65 -20 74 -50l77 -243c39 50 62 111 62 156c0 15 -13 25 -23 25h-26c-4 11 -8 27 -8 48c0 37 41 64 102 64c73 0 96 -43 96 -103c0 -81 -60 -235 -116 -325c-27 -44 -53 -72 -96 -72c-25 0 -38 4 -51 12zM297 582c25 10 119 130 175 130
c45 0 61 -25 63 -56c-51 -32 -130 -119 -183 -119c-28 0 -50 17 -55 45z" />
    <glyph glyph-name="Wdieresis" unicode="&#x1e84;" horiz-adv-x="972" 
d="M471 700c38 0 64 -13 76 -48l152 -448c92 156 116 387 123 480c22 11 43 16 81 16c27 0 54 -14 54 -38c0 -12 -1 -33 -11 -85c-13 -68 -61 -319 -206 -567c-20 -7 -36 -10 -60 -10c-35 0 -56 16 -71 57l-94 261c-39 -99 -88 -211 -143 -306c-20 -7 -36 -10 -60 -10
c-35 0 -56 16 -71 57l-226 625c17 9 50 16 88 16s64 -13 76 -48l152 -446c46 78 87 201 115 302l-63 176c17 9 50 16 88 16zM312 831c0 48 22 72 72 72c48 0 72 -24 72 -72c0 -49 -24 -72 -72 -72c-49 0 -72 24 -72 72zM516 831c0 48 22 72 72 72c48 0 72 -24 72 -72
c0 -49 -24 -72 -72 -72c-49 0 -72 24 -72 72z" />
    <glyph glyph-name="wdieresis" unicode="&#x1e85;" horiz-adv-x="795" 
d="M502 12l-71 209c-18 -53 -41 -104 -68 -147c-34 -54 -55 -74 -97 -74c-25 0 -42 5 -54 12l-125 357c-4 12 -12 19 -25 19h-39c-5 15 -8 29 -8 50c0 39 38 62 112 62c57 0 78 -24 90 -59l78 -232c37 49 66 113 66 152c0 12 -6 27 -20 27h-27c-5 12 -9 27 -9 47
c0 37 39 65 106 65c40 0 65 -20 74 -50l77 -243c39 50 62 111 62 156c0 15 -13 25 -23 25h-26c-4 11 -8 27 -8 48c0 37 41 64 102 64c73 0 96 -43 96 -103c0 -81 -60 -235 -116 -325c-27 -44 -53 -72 -96 -72c-25 0 -38 4 -51 12zM213 631c0 48 22 72 72 72
c48 0 72 -24 72 -72c0 -49 -24 -72 -72 -72c-49 0 -72 24 -72 72zM417 631c0 48 22 72 72 72c48 0 72 -24 72 -72c0 -49 -24 -72 -72 -72c-49 0 -72 24 -72 72z" />
    <glyph glyph-name="uni1E8A" unicode="&#x1e8a;" horiz-adv-x="670" 
d="M114 700c59 0 86 -23 119 -70l104 -149l112 167c22 35 51 52 103 52c48 0 70 -12 81 -29l-211 -312l233 -334c-24 -18 -43 -25 -99 -25c-43 0 -92 23 -122 65l-118 169l-124 -190c-18 -29 -59 -44 -101 -44c-43 0 -62 11 -76 28l212 332l-211 303c16 21 43 37 98 37z
M263 824c0 48 22 72 72 72c48 0 72 -24 72 -72c0 -49 -24 -72 -72 -72c-49 0 -72 24 -72 72z" />
    <glyph glyph-name="uni1E8B" unicode="&#x1e8b;" horiz-adv-x="533" 
d="M134 500c56 0 82 -22 110 -70l33 -57l38 68c19 34 57 59 85 59c76 0 97 -47 92 -89l-145 -159l51 -87c24 -42 43 -52 64 -52h43c7 -12 8 -25 8 -44c0 -43 -38 -69 -113 -69c-42 0 -82 21 -108 64l-41 68l-55 -79c-24 -35 -60 -53 -94 -53c-51 0 -78 41 -82 90l160 160
l-74 122c-6 9 -17 16 -34 16h-40c-4 13 -6 26 -6 41c0 45 50 71 108 71zM194 624c0 48 22 72 72 72c48 0 72 -24 72 -72c0 -49 -24 -72 -72 -72c-49 0 -72 24 -72 72z" />
    <glyph glyph-name="Ygrave" unicode="&#x1ef2;" horiz-adv-x="589" 
d="M379 246v-230c-12 -8 -40 -16 -82 -16s-65 13 -65 46v192c-87 144 -182 308 -217 444c19 10 48 18 81 18c39 0 60 -10 71 -48c28 -102 83 -201 142 -302c69 120 126 265 145 343c15 5 42 7 70 7c30 0 50 -20 50 -51c0 -72 -118 -289 -195 -403zM413 779
c-5 -28 -27 -45 -55 -45c-53 0 -132 87 -183 119c2 31 18 56 63 56c56 0 150 -120 175 -130z" />
    <glyph glyph-name="ygrave" unicode="&#x1ef3;" horiz-adv-x="560" 
d="M217 419l77 -241c4 -14 11 -23 19 -28c41 84 73 164 73 209c0 18 -8 29 -24 29h-31c-5 11 -9 30 -9 50c0 38 44 62 96 62c82 0 112 -39 112 -101c0 -94 -85 -278 -159 -411c-69 -124 -154 -158 -256 -158c-54 0 -84 20 -84 64c0 15 2 29 11 50h94c44 0 78 22 115 86
c-32 8 -57 34 -68 71l-95 261c-6 19 -15 26 -29 26h-35c-7 15 -9 34 -9 50c0 37 37 62 103 62c56 0 83 -27 99 -81zM365 579c-5 -28 -27 -45 -55 -45c-53 0 -132 87 -183 119c2 31 18 56 63 56c56 0 150 -120 175 -130z" />
    <glyph glyph-name="endash" unicode="&#x2013;" horiz-adv-x="499" 
d="M388 195h-327c-9 19 -16 37 -16 73c0 34 16 65 57 65h338c9 -17 14 -42 14 -68c0 -31 -11 -70 -66 -70z" />
    <glyph glyph-name="emdash" unicode="&#x2014;" horiz-adv-x="643" 
d="M546 195h-485c-9 19 -16 44 -16 70c0 31 15 68 59 68h480c7 -10 14 -39 14 -65c0 -31 -11 -73 -52 -73z" />
    <glyph glyph-name="quoteleft" unicode="&#x2018;" horiz-adv-x="229" 
d="M121 580c49 0 68 -24 68 -72s-22 -72 -72 -72c-48 0 -77 26 -77 102c0 115 36 162 77 162c29 0 40 -8 43 -28c-26 -14 -39 -74 -39 -92z" />
    <glyph glyph-name="quoteright" unicode="&#x2019;" horiz-adv-x="229" 
d="M108 556c-49 0 -68 24 -68 72s22 72 72 72c48 0 77 -26 77 -102c0 -115 -36 -162 -77 -162c-29 0 -40 8 -43 28c26 14 39 74 39 92z" />
    <glyph glyph-name="quotesinglbase" unicode="&#x201a;" horiz-adv-x="229" 
d="M108 0c-49 0 -68 24 -68 72s22 72 72 72c48 0 77 -26 77 -102c0 -115 -36 -162 -77 -162c-29 0 -40 8 -43 28c26 14 39 74 39 92z" />
    <glyph glyph-name="quotedblleft" unicode="&#x201c;" horiz-adv-x="408" 
d="M121 581c49 0 68 -24 68 -72s-22 -72 -72 -72c-48 0 -77 26 -77 102c0 115 36 162 77 162c29 0 40 -8 43 -28c-26 -14 -39 -74 -39 -92zM300 581c49 0 68 -24 68 -72s-22 -72 -72 -72c-48 0 -77 26 -77 102c0 115 36 162 77 162c29 0 40 -8 43 -28
c-26 -14 -39 -74 -39 -92z" />
    <glyph glyph-name="quotedblright" unicode="&#x201d;" horiz-adv-x="408" 
d="M108 557c-49 0 -68 24 -68 72s22 72 72 72c48 0 77 -26 77 -102c0 -115 -36 -162 -77 -162c-29 0 -40 8 -43 28c26 14 39 74 39 92zM287 557c-49 0 -68 24 -68 72s22 72 72 72c48 0 77 -26 77 -102c0 -115 -36 -162 -77 -162c-29 0 -40 8 -43 28c26 14 39 74 39 92z" />
    <glyph glyph-name="quotedblbase" unicode="&#x201e;" horiz-adv-x="408" 
d="M108 0c-49 0 -68 24 -68 72s22 72 72 72c48 0 77 -26 77 -102c0 -115 -36 -162 -77 -162c-29 0 -40 8 -43 28c26 14 39 74 39 92zM287 0c-49 0 -68 24 -68 72s22 72 72 72c48 0 77 -26 77 -102c0 -115 -36 -162 -77 -162c-29 0 -40 8 -43 28c26 14 39 74 39 92z" />
    <glyph glyph-name="dagger" unicode="&#x2020;" horiz-adv-x="449" 
d="M227 713c42 0 71 -12 71 -51v-746c-19 -10 -45 -16 -85 -16c-37 0 -63 18 -63 59v741c14 8 45 13 77 13zM363 404h-327c-9 19 -16 37 -16 73c0 34 16 65 57 65h338c9 -17 14 -42 14 -68c0 -31 -11 -70 -66 -70z" />
    <glyph glyph-name="daggerdbl" unicode="&#x2021;" horiz-adv-x="449" 
d="M227 713c42 0 71 -12 71 -51v-746c-19 -10 -45 -16 -85 -16c-37 0 -63 18 -63 59v741c14 8 45 13 77 13zM363 404h-327c-9 19 -16 37 -16 73c0 34 16 65 57 65h338c9 -17 14 -42 14 -68c0 -31 -11 -70 -66 -70zM363 65h-327c-9 19 -16 37 -16 73c0 34 16 65 57 65h338
c9 -17 14 -42 14 -68c0 -31 -11 -70 -66 -70z" />
    <glyph glyph-name="bullet" unicode="&#x2022;" horiz-adv-x="302" 
d="M50 263c0 67 31 101 101 101c67 0 101 -34 101 -101c0 -69 -34 -101 -101 -101c-69 0 -101 34 -101 101z" />
    <glyph glyph-name="ellipsis" unicode="&#x2026;" horiz-adv-x="672" 
d="M40 72c0 48 22 72 72 72c48 0 72 -24 72 -72c0 -49 -24 -72 -72 -72c-49 0 -72 24 -72 72zM264 72c0 48 22 72 72 72c48 0 72 -24 72 -72c0 -49 -24 -72 -72 -72c-49 0 -72 24 -72 72zM488 72c0 48 22 72 72 72c48 0 72 -24 72 -72c0 -49 -24 -72 -72 -72
c-49 0 -72 24 -72 72z" />
    <glyph glyph-name="perthousand" unicode="&#x2030;" horiz-adv-x="1257" 
d="M571 700c43 0 63 -19 49 -56l-244 -635c-12 -6 -16 -11 -49 -11c-42 0 -64 18 -43 74l233 621c16 5 27 7 54 7zM529 203c0 152 78 211 169 211c96 0 174 -59 174 -211c0 -150 -77 -207 -171 -207c-95 0 -172 60 -172 207zM630 200c0 -92 41 -124 71 -124
c38 0 68 29 68 124c0 98 -36 130 -71 130c-31 0 -68 -32 -68 -130zM899 203c0 152 78 211 169 211c96 0 174 -59 174 -211c0 -150 -77 -207 -171 -207c-95 0 -172 60 -172 207zM1000 200c0 -92 41 -124 71 -124c38 0 68 29 68 124c0 98 -36 130 -71 130
c-31 0 -68 -32 -68 -130zM28 490c0 152 78 211 169 211c96 0 174 -59 174 -211c0 -150 -77 -207 -171 -207c-95 0 -172 60 -172 207zM129 487c0 -92 41 -124 71 -124c38 0 68 29 68 124c0 98 -36 130 -71 130c-31 0 -68 -32 -68 -130z" />
    <glyph glyph-name="guilsinglleft" unicode="&#x2039;" horiz-adv-x="284" 
d="M47 317l119 138c10 4 21 6 29 6c40 0 64 -34 64 -62c0 -21 -7 -35 -18 -48l-89 -108l100 -129c3 -7 5 -13 5 -28c0 -36 -38 -56 -65 -56c-19 0 -37 7 -53 27l-99 127c-9 16 -15 37 -15 66c0 27 8 50 22 67z" />
    <glyph glyph-name="guilsinglright" unicode="&#x203a;" horiz-adv-x="284" 
d="M237 174l-119 -138c-10 -4 -21 -6 -29 -6c-40 0 -64 34 -64 62c0 21 7 35 18 48l89 108l-100 129c-3 7 -5 13 -5 28c0 36 38 56 65 56c19 0 37 -7 53 -27l99 -127c9 -16 15 -37 15 -66c0 -27 -8 -50 -22 -67z" />
    <glyph glyph-name="fraction" unicode="&#x2044;" horiz-adv-x="180" 
d="M213 700c43 0 63 -19 49 -56l-244 -635c-12 -6 -16 -11 -49 -11c-42 0 -64 18 -43 74l233 621c16 5 27 7 54 7z" />
    <glyph glyph-name="uni2070" unicode="&#x2070;" horiz-adv-x="399" 
d="M28 488c0 152 78 211 169 211c96 0 174 -59 174 -211c0 -150 -77 -207 -171 -207c-95 0 -172 60 -172 207zM129 485c0 -92 41 -124 71 -124c38 0 68 29 68 124c0 98 -36 130 -71 130c-31 0 -68 -32 -68 -130z" />
    <glyph glyph-name="uni2074" unicode="&#x2074;" horiz-adv-x="383" 
d="M256 587c26 0 45 -8 45 -33v-114h60c5 -6 10 -19 10 -41c0 -26 -11 -38 -31 -38h-38v-69c-9 -4 -29 -7 -52 -7c-24 0 -41 10 -41 32l-1 44h-188c-6 7 -8 18 -8 29s4 28 9 43l84 257c11 5 29 9 56 9c25 0 38 -15 32 -34l-69 -225h84l-1 134c11 7 28 13 49 13z" />
    <glyph glyph-name="uni2075" unicode="&#x2075;" horiz-adv-x="356" 
d="M291 606h-160l-5 -69c16 4 34 7 58 7c73 0 146 -32 146 -130c0 -74 -59 -135 -161 -135c-110 0 -151 39 -151 73c0 20 13 38 36 52c20 -18 57 -44 111 -44c39 0 68 17 68 57c0 37 -34 51 -87 51c-28 0 -47 -3 -84 -3c-18 0 -29 16 -28 40l10 179c13 7 29 10 59 10h207
c5 -6 11 -19 11 -37c0 -29 -11 -51 -30 -51z" />
    <glyph glyph-name="uni2076" unicode="&#x2076;" horiz-adv-x="368" 
d="M28 503c0 130 75 199 184 199c59 0 115 -12 115 -52c0 -21 -11 -45 -26 -51c-21 8 -54 14 -86 14c-60 0 -83 -25 -88 -88c24 10 50 16 78 16c83 0 144 -28 144 -121c0 -69 -40 -141 -155 -141c-92 0 -166 49 -166 224zM193 470c-27 0 -49 -6 -66 -14c4 -69 24 -94 65 -94
c37 0 60 20 60 54c0 42 -20 54 -59 54z" />
    <glyph glyph-name="uni2077" unicode="&#x2077;" horiz-adv-x="333" 
d="M133 285c-31 0 -43 15 -36 34l104 289h-187c-5 6 -11 19 -11 45c0 21 11 46 30 46h277c5 -9 7 -21 7 -33s-3 -31 -10 -50l-122 -323c-10 -5 -24 -8 -52 -8z" />
    <glyph glyph-name="uni2078" unicode="&#x2078;" horiz-adv-x="367" 
d="M25 408c0 41 23 75 58 95c-24 19 -41 46 -41 84c0 73 46 113 138 113c94 0 143 -36 143 -112c0 -34 -17 -59 -42 -77c37 -17 61 -47 61 -105c0 -63 -46 -127 -153 -127c-113 0 -164 54 -164 129zM247 408c0 34 -35 44 -84 58c-28 -10 -41 -32 -41 -57
c0 -28 27 -48 65 -48s60 17 60 47zM131 587c0 -37 33 -49 66 -55c19 9 39 25 39 54s-24 42 -51 42c-30 0 -54 -14 -54 -41z" />
    <glyph glyph-name="uni2079" unicode="&#x2079;" horiz-adv-x="365" 
d="M337 485c0 -145 -75 -206 -169 -206c-86 0 -136 26 -136 62c0 22 9 37 21 47c21 -8 65 -20 94 -20c60 0 84 23 89 86c-24 -13 -50 -19 -78 -19c-67 0 -139 31 -139 119c0 83 43 148 151 148c94 0 167 -42 167 -217zM169 512c30 0 51 5 67 13c-5 65 -24 93 -59 93
c-38 0 -64 -16 -64 -55c0 -37 24 -51 56 -51z" />
    <glyph glyph-name="nsuperior" unicode="&#x207f;" horiz-adv-x="318" 
d="M74 602c23 0 46 -13 57 -34c23 26 48 39 78 39c37 0 68 -21 68 -78v-115c0 -8 5 -13 11 -13h16c3 -3 4 -6 4 -17c0 -21 -23 -34 -64 -34c-35 0 -51 14 -51 51v105c0 11 -6 19 -18 19c-13 0 -25 -4 -37 -11v-156c-10 -6 -26 -8 -48 -8s-41 8 -41 41v126c0 11 -4 16 -14 16
h-15c-4 9 -7 18 -7 31c0 26 20 38 61 38z" />
    <glyph glyph-name="uni2080" unicode="&#x2080;" horiz-adv-x="399" 
d="M28 73c0 152 78 211 169 211c96 0 174 -59 174 -211c0 -150 -77 -207 -171 -207c-95 0 -172 60 -172 207zM129 70c0 -92 41 -124 71 -124c38 0 68 29 68 124c0 98 -36 130 -71 130c-31 0 -68 -32 -68 -130z" />
    <glyph glyph-name="uni2081" unicode="&#x2081;" horiz-adv-x="357" 
d="M318 -130h-270c-6 12 -11 24 -11 40c0 28 5 48 51 48h62v200c-24 -15 -51 -22 -72 -22c-25 0 -42 14 -42 44c0 18 3 28 10 39c42 3 93 29 104 60c10 4 32 7 51 7c30 0 48 -11 48 -33v-295h89c4 -6 11 -19 11 -37c0 -29 -11 -51 -31 -51z" />
    <glyph glyph-name="uni2082" unicode="&#x2082;" horiz-adv-x="359" 
d="M27 211c0 37 49 72 142 72c110 0 155 -53 155 -123c0 -76 -85 -152 -173 -203v-4l178 4c4 -7 7 -26 7 -45c0 -29 -7 -42 -31 -42h-273c-5 11 -9 21 -9 49s5 47 31 67c62 47 165 123 165 158c0 30 -18 43 -58 43c-39 0 -79 -14 -105 -33c-16 12 -29 32 -29 57z" />
    <glyph glyph-name="uni2083" unicode="&#x2083;" horiz-adv-x="347" 
d="M203 148c0 24 -15 37 -51 37s-73 -10 -102 -27c-15 12 -26 27 -26 53c0 36 45 72 134 72c107 0 147 -52 147 -114c0 -43 -28 -83 -65 -91v-1c38 -5 75 -38 75 -93c0 -58 -43 -120 -154 -120c-105 0 -143 40 -143 74c0 28 10 43 31 56c24 -22 59 -42 107 -42
c36 0 59 17 59 41c0 27 -13 40 -54 40h-24c-14 0 -22 16 -22 38c0 18 2 26 7 35c40 1 81 14 81 42z" />
    <glyph glyph-name="uni2084" unicode="&#x2084;" horiz-adv-x="383" 
d="M256 172c26 0 45 -8 45 -33v-114h60c5 -6 10 -19 10 -41c0 -26 -11 -38 -31 -38h-38v-69c-9 -4 -29 -7 -52 -7c-24 0 -41 10 -41 32l-1 44h-188c-6 7 -8 18 -8 29s4 28 9 43l84 257c11 5 29 9 56 9c25 0 38 -15 32 -34l-69 -225h84l-1 134c11 7 28 13 49 13z" />
    <glyph glyph-name="uni2085" unicode="&#x2085;" horiz-adv-x="356" 
d="M291 191h-160l-5 -69c16 4 34 7 58 7c73 0 146 -32 146 -130c0 -74 -59 -135 -161 -135c-110 0 -151 39 -151 73c0 20 13 38 36 52c20 -18 57 -44 111 -44c39 0 68 17 68 57c0 37 -34 51 -87 51c-28 0 -47 -3 -84 -3c-18 0 -29 16 -28 40l10 179c13 7 29 10 59 10h207
c5 -6 11 -19 11 -37c0 -29 -11 -51 -30 -51z" />
    <glyph glyph-name="uni2086" unicode="&#x2086;" horiz-adv-x="368" 
d="M28 88c0 130 75 199 184 199c59 0 115 -12 115 -52c0 -21 -11 -45 -26 -51c-21 8 -54 14 -86 14c-60 0 -83 -25 -88 -88c24 10 50 16 78 16c83 0 144 -28 144 -121c0 -69 -40 -141 -155 -141c-92 0 -166 49 -166 224zM193 55c-27 0 -49 -6 -66 -14c4 -69 24 -94 65 -94
c37 0 60 20 60 54c0 42 -20 54 -59 54z" />
    <glyph glyph-name="uni2087" unicode="&#x2087;" horiz-adv-x="333" 
d="M133 -130c-31 0 -43 15 -36 34l104 289h-187c-5 6 -11 19 -11 45c0 21 11 46 30 46h277c5 -9 7 -21 7 -33s-3 -31 -10 -50l-122 -323c-10 -5 -24 -8 -52 -8z" />
    <glyph glyph-name="uni2088" unicode="&#x2088;" horiz-adv-x="367" 
d="M25 -7c0 41 23 75 58 95c-24 19 -41 46 -41 84c0 73 46 113 138 113c94 0 143 -36 143 -112c0 -34 -17 -59 -42 -77c37 -17 61 -47 61 -105c0 -63 -46 -127 -153 -127c-113 0 -164 54 -164 129zM247 -7c0 34 -35 44 -84 58c-28 -10 -41 -32 -41 -57c0 -28 27 -48 65 -48
s60 17 60 47zM131 172c0 -37 33 -49 66 -55c19 9 39 25 39 54s-24 42 -51 42c-30 0 -54 -14 -54 -41z" />
    <glyph glyph-name="uni2089" unicode="&#x2089;" horiz-adv-x="365" 
d="M337 70c0 -145 -75 -206 -169 -206c-86 0 -136 26 -136 62c0 22 9 37 21 47c21 -8 65 -20 94 -20c60 0 84 23 89 86c-24 -13 -50 -19 -78 -19c-67 0 -139 31 -139 119c0 83 43 148 151 148c94 0 167 -42 167 -217zM169 97c30 0 51 5 67 13c-5 65 -24 93 -59 93
c-38 0 -64 -16 -64 -55c0 -37 24 -51 56 -51z" />
    <glyph glyph-name="Euro" unicode="&#x20ac;" horiz-adv-x="701" 
d="M388 215h-117c29 -65 83 -84 138 -84c69 0 137 34 164 84c15 2 37 2 60 -8c12 -5 21 -12 27 -21c13 -18 13 -44 -2 -75c-34 -67 -131 -117 -249 -117c-139 0 -253 64 -292 221h-87c-9 16 -13 26 -13 49c0 13 1 24 4 33c6 18 22 28 67 28h15v41h-73c-9 16 -13 26 -13 49
c0 38 4 61 71 61h28c38 163 149 233 286 233c109 0 214 -22 240 -92c8 -23 3 -47 -5 -62c-13 -26 -36 -43 -55 -48c-52 45 -86 64 -180 64c-56 0 -106 -26 -133 -95h226c7 -8 12 -18 12 -41c0 -26 -9 -69 -70 -69h-188v-41h197c7 -8 12 -18 12 -41c0 -26 -9 -69 -70 -69z
" />
    <glyph glyph-name="trademark" unicode="&#x2122;" horiz-adv-x="748" 
d="M523 345c-26 0 -45 7 -59 48l-41 139l-12 -167c-2 -25 -19 -34 -49 -34c-17 0 -35 2 -45 7l27 302c3 37 23 62 65 62c21 0 30 -2 43 -7l70 -224l42 181c8 36 29 50 59 50c28 0 39 -2 56 -9l55 -350c-11 -7 -29 -12 -50 -12c-26 0 -47 6 -50 34l-18 167l-32 -138
c-11 -49 -35 -49 -61 -49zM274 618h-78v-280c-10 -5 -27 -7 -52 -7c-21 0 -39 10 -39 41v246h-96c-6 12 -10 26 -10 43c0 7 1 14 3 20c5 12 16 21 37 21h252c4 -6 10 -18 10 -36c0 -26 -10 -48 -27 -48z" />
    <glyph glyph-name="Omega" unicode="&#x2126;" horiz-adv-x="682" 
d="M161 114l2 4c-70 43 -123 139 -123 248c0 240 135 344 300 344c172 0 302 -103 302 -343c0 -110 -46 -203 -123 -249l1 -4h126c7 -9 16 -17 16 -43c0 -41 -16 -71 -45 -71h-237c-9 17 -16 33 -16 77c0 31 6 59 20 61c67 10 110 80 110 225c0 155 -70 218 -154 218
c-79 0 -154 -61 -154 -216c0 -137 70 -214 126 -228c7 -9 16 -40 16 -66c0 -41 -16 -71 -45 -71h-247c-9 17 -16 33 -16 57c0 38 17 57 74 57h67z" />
    <glyph glyph-name="onethird" unicode="&#x2153;" horiz-adv-x="934" 
d="M602 700c43 0 63 -19 49 -56l-244 -635c-12 -6 -16 -11 -49 -11c-42 0 -64 18 -43 74l233 621c16 5 27 7 54 7zM318 285h-270c-6 12 -11 24 -11 40c0 28 5 48 51 48h62v200c-24 -15 -51 -22 -72 -22c-25 0 -42 14 -42 44c0 18 3 28 10 39c42 3 93 29 104 60
c10 4 32 7 51 7c30 0 48 -11 48 -33v-295h89c4 -6 11 -19 11 -37c0 -29 -11 -51 -31 -51zM790 278c0 24 -15 37 -51 37s-73 -10 -102 -27c-15 12 -26 27 -26 53c0 36 45 72 134 72c107 0 147 -52 147 -114c0 -43 -28 -83 -65 -91v-1c38 -5 75 -38 75 -93
c0 -58 -43 -120 -154 -120c-105 0 -143 40 -143 74c0 28 10 43 31 56c24 -22 59 -42 107 -42c36 0 59 17 59 41c0 27 -13 40 -54 40h-24c-14 0 -22 16 -22 38c0 18 2 26 7 35c40 1 81 14 81 42z" />
    <glyph glyph-name="twothirds" unicode="&#x2154;" horiz-adv-x="934" 
d="M602 700c43 0 63 -19 49 -56l-244 -635c-12 -6 -16 -11 -49 -11c-42 0 -64 18 -43 74l233 621c16 5 27 7 54 7zM27 626c0 37 49 72 142 72c110 0 155 -53 155 -123c0 -76 -85 -152 -173 -203v-4l178 4c4 -7 7 -26 7 -45c0 -29 -7 -42 -31 -42h-273c-5 11 -9 21 -9 49
s5 47 31 67c62 47 165 123 165 158c0 30 -18 43 -58 43c-39 0 -79 -14 -105 -33c-16 12 -29 32 -29 57zM790 278c0 24 -15 37 -51 37s-73 -10 -102 -27c-15 12 -26 27 -26 53c0 36 45 72 134 72c107 0 147 -52 147 -114c0 -43 -28 -83 -65 -91v-1c38 -5 75 -38 75 -93
c0 -58 -43 -120 -154 -120c-105 0 -143 40 -143 74c0 28 10 43 31 56c24 -22 59 -42 107 -42c36 0 59 17 59 41c0 27 -13 40 -54 40h-24c-14 0 -22 16 -22 38c0 18 2 26 7 35c40 1 81 14 81 42z" />
    <glyph glyph-name="oneeighth" unicode="&#x215b;" horiz-adv-x="944" 
d="M602 700c43 0 63 -19 49 -56l-244 -635c-12 -6 -16 -11 -49 -11c-42 0 -64 18 -43 74l233 621c16 5 27 7 54 7zM318 285h-270c-6 12 -11 24 -11 40c0 28 5 48 51 48h62v200c-24 -15 -51 -22 -72 -22c-25 0 -42 14 -42 44c0 18 3 28 10 39c42 3 93 29 104 60
c10 4 32 7 51 7c30 0 48 -11 48 -33v-295h89c4 -6 11 -19 11 -37c0 -29 -11 -51 -31 -51zM602 123c0 41 23 75 58 95c-24 19 -41 46 -41 84c0 73 46 113 138 113c94 0 143 -36 143 -112c0 -34 -17 -59 -42 -77c37 -17 61 -47 61 -105c0 -63 -46 -127 -153 -127
c-113 0 -164 54 -164 129zM824 123c0 34 -35 44 -84 58c-28 -10 -41 -32 -41 -57c0 -28 27 -48 65 -48s60 17 60 47zM708 302c0 -37 33 -49 66 -55c19 9 39 25 39 54s-24 42 -51 42c-30 0 -54 -14 -54 -41z" />
    <glyph glyph-name="threeeighths" unicode="&#x215c;" horiz-adv-x="941" 
d="M590 700c43 0 63 -19 49 -56l-244 -635c-12 -6 -16 -11 -49 -11c-42 0 -64 18 -43 74l233 621c16 5 27 7 54 7zM203 563c0 24 -15 37 -51 37s-73 -10 -102 -27c-15 12 -26 27 -26 53c0 36 45 72 134 72c107 0 147 -52 147 -114c0 -43 -28 -83 -65 -91v-1
c38 -5 75 -38 75 -93c0 -58 -43 -120 -154 -120c-105 0 -143 40 -143 74c0 28 10 43 31 56c24 -22 59 -42 107 -42c36 0 59 17 59 41c0 27 -13 40 -54 40h-24c-14 0 -22 16 -22 38c0 18 2 26 7 35c40 1 81 14 81 42zM590 123c0 41 23 75 58 95c-24 19 -41 46 -41 84
c0 73 46 113 138 113c94 0 143 -36 143 -112c0 -34 -17 -59 -42 -77c37 -17 61 -47 61 -105c0 -63 -46 -127 -153 -127c-113 0 -164 54 -164 129zM812 123c0 34 -35 44 -84 58c-28 -10 -41 -32 -41 -57c0 -28 27 -48 65 -48s60 17 60 47zM696 302c0 -37 33 -49 66 -55
c19 9 39 25 39 54s-24 42 -51 42c-30 0 -54 -14 -54 -41z" />
    <glyph glyph-name="fiveeighths" unicode="&#x215d;" horiz-adv-x="944" 
d="M602 700c43 0 63 -19 49 -56l-244 -635c-12 -6 -16 -11 -49 -11c-42 0 -64 18 -43 74l233 621c16 5 27 7 54 7zM291 606h-160l-5 -69c16 4 34 7 58 7c73 0 146 -32 146 -130c0 -74 -59 -135 -161 -135c-110 0 -151 39 -151 73c0 20 13 38 36 52c20 -18 57 -44 111 -44
c39 0 68 17 68 57c0 37 -34 51 -87 51c-28 0 -47 -3 -84 -3c-18 0 -29 16 -28 40l10 179c13 7 29 10 59 10h207c5 -6 11 -19 11 -37c0 -29 -11 -51 -30 -51zM602 123c0 41 23 75 58 95c-24 19 -41 46 -41 84c0 73 46 113 138 113c94 0 143 -36 143 -112
c0 -34 -17 -59 -42 -77c37 -17 61 -47 61 -105c0 -63 -46 -127 -153 -127c-113 0 -164 54 -164 129zM824 123c0 34 -35 44 -84 58c-28 -10 -41 -32 -41 -57c0 -28 27 -48 65 -48s60 17 60 47zM708 302c0 -37 33 -49 66 -55c19 9 39 25 39 54s-24 42 -51 42
c-30 0 -54 -14 -54 -41z" />
    <glyph glyph-name="seveneighths" unicode="&#x215e;" horiz-adv-x="870" 
d="M528 700c43 0 63 -19 49 -56l-244 -635c-12 -6 -16 -11 -49 -11c-42 0 -64 18 -43 74l233 621c16 5 27 7 54 7zM133 285c-31 0 -43 15 -36 34l104 289h-187c-5 6 -11 19 -11 45c0 21 11 46 30 46h277c5 -9 7 -21 7 -33s-3 -31 -10 -50l-122 -323c-10 -5 -24 -8 -52 -8z
M528 123c0 41 23 75 58 95c-24 19 -41 46 -41 84c0 73 46 113 138 113c94 0 143 -36 143 -112c0 -34 -17 -59 -42 -77c37 -17 61 -47 61 -105c0 -63 -46 -127 -153 -127c-113 0 -164 54 -164 129zM750 123c0 34 -35 44 -84 58c-28 -10 -41 -32 -41 -57c0 -28 27 -48 65 -48
s60 17 60 47zM634 302c0 -37 33 -49 66 -55c19 9 39 25 39 54s-24 42 -51 42c-30 0 -54 -14 -54 -41z" />
    <glyph glyph-name="partialdiff" unicode="&#x2202;" horiz-adv-x="587" 
d="M547 440c0 -297 -127 -450 -275 -450c-137 0 -232 69 -232 233c0 202 117 287 260 287c31 0 68 -10 102 -33c-7 159 -58 219 -150 219c-47 0 -115 -7 -152 -26c-8 14 -16 31 -16 53c0 18 4 43 23 55c34 21 83 35 160 35c197 0 280 -171 280 -373zM291 379
c-52 0 -99 -41 -99 -149c0 -83 37 -112 81 -112c47 0 106 80 124 225c-28 25 -62 36 -106 36z" />
    <glyph glyph-name="Delta" unicode="&#x2206;" horiz-adv-x="657" 
d="M106 0c-38 0 -65 6 -79 20l215 606c20 58 52 74 98 74c38 0 74 -22 93 -72l224 -597c-15 -26 -41 -31 -68 -31h-483zM339 496l-123 -369h262z" />
    <glyph glyph-name="product" unicode="&#x220f;" horiz-adv-x="767" 
d="M701 562h-75v-763c-10 -7 -47 -13 -70 -13c-42 0 -79 9 -79 68v708h-190v-760c-9 -9 -51 -16 -85 -16c-31 0 -63 9 -63 68v708h-104c-9 19 -16 37 -16 63c0 43 7 75 74 75h637c7 -10 16 -30 16 -59c0 -45 -16 -79 -45 -79z" />
    <glyph glyph-name="summation" unicode="&#x2211;" horiz-adv-x="665" 
d="M561 -179h-529c-10 19 -17 29 -17 66c0 17 2 31 12 41l268 340l-244 298c-6 19 -9 36 -9 61c0 42 7 73 72 73h494c7 -10 10 -18 10 -44c0 -37 -10 -90 -69 -90h-299l223 -268c0 -13 -4 -31 -23 -57l-221 -297h390c8 -8 14 -35 14 -53c0 -37 -12 -70 -72 -70z" />
    <glyph glyph-name="minus" unicode="&#x2212;" horiz-adv-x="499" 
d="M388 195h-327c-9 19 -16 37 -16 73c0 34 16 65 57 65h338c9 -17 14 -42 14 -68c0 -31 -11 -70 -66 -70z" />
    <glyph glyph-name="radical" unicode="&#x221a;" horiz-adv-x="659" 
d="M24 372h248l64 -218l147 500c10 30 32 46 80 46c39 0 58 -6 86 -20l-216 -664c-25 -10 -63 -16 -119 -16c-59 0 -84 24 -99 71l-55 171h-110c-24 0 -40 26 -40 66c0 21 8 46 14 64z" />
    <glyph glyph-name="infinity" unicode="&#x221e;" horiz-adv-x="711" 
d="M516 62c-66 0 -112 35 -152 99c-37 -52 -96 -99 -165 -99c-89 0 -169 81 -169 201c0 122 73 212 169 212c70 0 117 -37 158 -100c33 55 79 100 159 100c77 0 165 -61 165 -207c0 -140 -73 -206 -165 -206zM208 196c50 0 81 36 100 74c-32 47 -62 74 -98 74
s-59 -43 -59 -74c0 -35 25 -74 57 -74zM507 344c-35 0 -71 -32 -95 -80c28 -44 61 -68 96 -68c32 0 54 33 54 72c0 43 -22 76 -55 76z" />
    <glyph glyph-name="integral" unicode="&#x222b;" horiz-adv-x="393" 
d="M242 714c0 -239 53 -465 53 -668c0 -167 -78 -217 -174 -217c-81 0 -111 24 -111 65c0 23 5 42 12 59h74c27 0 54 10 57 71c9 236 -54 472 -54 690c0 141 79 184 177 184c87 0 107 -33 107 -66c0 -29 -4 -39 -10 -61h-76c-32 0 -55 -9 -55 -57z" />
    <glyph glyph-name="approxequal" unicode="&#x2248;" horiz-adv-x="484" 
d="M151 244c83 0 130 -35 196 -35c51 0 74 20 76 29c16 -7 38 -38 38 -72c0 -45 -32 -78 -92 -78c-69 0 -155 34 -226 34c-29 0 -51 -12 -55 -30c-28 7 -35 36 -35 64c0 36 26 88 98 88zM148 457c83 0 130 -35 196 -35c51 0 74 20 76 29c16 -7 38 -38 38 -72
c0 -45 -32 -78 -92 -78c-69 0 -155 34 -226 34c-29 0 -51 -12 -55 -30c-28 7 -35 36 -35 64c0 36 26 88 98 88z" />
    <glyph glyph-name="notequal" unicode="&#x2260;" horiz-adv-x="499" 
d="M348 542c35 0 62 -15 51 -46l-200 -519c-10 -5 -33 -9 -60 -9c-34 0 -52 15 -35 60l191 508c13 5 31 6 53 6zM388 71h-327c-9 19 -16 37 -16 73c0 34 16 65 57 65h338c9 -17 14 -42 14 -68c0 -31 -11 -70 -66 -70zM388 287h-327c-9 19 -16 37 -16 73c0 34 16 65 57 65
h338c9 -17 14 -42 14 -68c0 -31 -11 -70 -66 -70z" />
    <glyph glyph-name="lessequal" unicode="&#x2264;" horiz-adv-x="301" 
d="M57 377l151 121c9 3 18 4 29 4c24 0 43 -21 43 -42c0 -16 -12 -30 -22 -39l-130 -108l138 -116c2 -6 7 -12 7 -28c0 -29 -30 -44 -49 -44c-17 0 -31 6 -46 20l-140 118c-8 12 -21 24 -21 50c0 30 11 42 40 64zM232 0h-202c-7 15 -13 28 -13 52c0 30 13 53 56 53h207
c6 -9 11 -26 11 -49c0 -32 -12 -56 -59 -56z" />
    <glyph glyph-name="greaterequal" unicode="&#x2265;" horiz-adv-x="301" 
d="M240 251l-151 -121c-9 -3 -18 -5 -29 -5c-24 0 -43 22 -43 43c0 16 12 30 22 39l130 107l-138 116c-2 6 -7 13 -7 28c0 29 30 44 50 44c16 0 30 -6 45 -20l140 -118c8 -12 21 -24 21 -50c0 -29 -11 -41 -40 -63zM232 0h-202c-7 15 -13 28 -13 52c0 30 13 53 56 53h207
c6 -9 11 -26 11 -49c0 -32 -12 -56 -59 -56z" />
    <glyph glyph-name="lozenge" unicode="&#x25ca;" horiz-adv-x="447" 
d="M427 352l-136 -302c-18 -40 -45 -50 -88 -50c-18 0 -40 4 -54 12l-129 350l139 288c19 39 45 50 88 50c18 0 40 -4 54 -12zM162 361l63 -175l63 154l-63 174z" />
    <glyph glyph-name="asuperior" unicode="&#xf6e9;" horiz-adv-x="267" 
d="M45 527c-4 9 -9 20 -9 32c0 41 56 48 90 48c70 0 104 -33 104 -93v-100c0 -6 3 -12 8 -12h14c2 -3 5 -11 5 -24c0 -17 -14 -28 -56 -28c-17 0 -32 11 -39 23c-22 -16 -48 -28 -73 -28c-48 0 -76 32 -76 83c0 47 30 79 89 80l54 -1c-4 18 -15 28 -37 28
c-25 0 -54 -2 -74 -8zM105 412c17 0 30 1 53 13v29l-50 -5c-16 -2 -22 -10 -22 -20c0 -9 7 -17 19 -17z" />
    <glyph glyph-name="bsuperior" unicode="&#xf6ea;" horiz-adv-x="276" 
d="M104 670v-85c17 13 36 22 56 22c61 0 96 -43 96 -124c0 -93 -56 -138 -125 -138c-42 0 -66 8 -92 27c-6 4 -13 14 -13 25v294c10 5 22 9 39 9c22 0 39 -8 39 -30zM137 526c-10 0 -22 -2 -33 -6v-93c7 -5 18 -9 31 -9c29 0 41 26 41 54c0 33 -11 54 -39 54z" />
    <glyph glyph-name="dsuperior" unicode="&#xf6eb;" horiz-adv-x="296" 
d="M236 350c-19 0 -35 7 -46 19c-19 -17 -41 -24 -72 -24c-48 0 -98 36 -98 125c0 92 50 137 104 137c19 0 36 -5 49 -13v79c0 17 11 27 33 27c23 0 37 -5 45 -10v-267c0 -12 4 -16 13 -16h17c2 -8 5 -12 5 -24c0 -17 -13 -33 -50 -33zM139 418c13 0 24 1 34 5v94
c-10 6 -20 7 -35 7c-21 0 -37 -17 -37 -50c0 -36 11 -56 38 -56z" />
    <glyph glyph-name="esuperior" unicode="&#xf6ec;" horiz-adv-x="267" 
d="M244 451h-141c7 -25 24 -35 47 -35c30 0 67 6 83 16c6 -5 14 -16 14 -31c0 -17 -8 -28 -19 -34c-22 -15 -39 -22 -86 -22c-79 0 -122 57 -122 135c0 81 61 127 126 127s103 -44 103 -114c0 -15 -1 -30 -5 -42zM145 537c-14 0 -34 -12 -42 -35h74c0 25 -12 35 -32 35z" />
    <glyph glyph-name="isuperior" unicode="&#xf6ed;" horiz-adv-x="169" 
d="M67 602c30 0 60 -9 60 -63v-116c0 -11 3 -16 11 -16h18c3 -6 4 -11 4 -23c0 -20 -16 -34 -59 -34c-37 0 -57 13 -57 60v107c0 13 -6 16 -13 16h-15c-3 7 -4 15 -4 28c0 29 20 41 55 41zM32 665c0 29 14 44 45 44c30 0 46 -15 46 -44s-16 -43 -46 -43c-31 0 -45 15 -45 43
z" />
    <glyph glyph-name="lsuperior" unicode="&#xf6ee;" horiz-adv-x="167" 
d="M106 666v-229c0 -18 6 -24 20 -24h31c2 -6 4 -11 4 -22c0 -20 -14 -41 -75 -41c-43 0 -61 30 -61 70v269c9 7 17 13 40 12c30 -1 41 -16 41 -35z" />
    <glyph glyph-name="msuperior" unicode="&#xf6ef;" horiz-adv-x="455" 
d="M77 602c23 0 48 -14 57 -40c25 32 47 45 79 45c22 0 44 -11 55 -41c24 26 50 41 79 41c35 0 68 -21 68 -78v-115c0 -8 4 -13 11 -13h16c2 -3 3 -6 3 -17c0 -21 -23 -34 -63 -34c-36 0 -51 14 -51 51v105c0 11 -3 17 -16 17s-28 -3 -41 -10v-99c0 -8 2 -13 10 -13h16
c2 -3 3 -9 3 -18c0 -22 -23 -33 -67 -33c-32 0 -48 14 -48 51v105c0 11 -3 17 -16 17c-10 0 -23 -4 -34 -9v-156c-10 -6 -26 -8 -48 -8s-41 8 -41 41v126c0 11 -4 16 -14 16h-15c-4 9 -7 18 -7 31c0 26 26 38 64 38z" />
    <glyph glyph-name="osuperior" unicode="&#xf6f0;" horiz-adv-x="292" 
d="M20 475c0 94 56 132 126 132c71 0 126 -38 126 -132s-55 -130 -126 -130c-70 0 -126 39 -126 130zM108 474c0 -44 20 -59 38 -59c22 0 37 14 37 59s-17 61 -37 61c-19 0 -38 -15 -38 -61z" />
    <glyph glyph-name="rsuperior" unicode="&#xf6f1;" horiz-adv-x="252" 
d="M67 602c25 0 48 -5 58 -28c20 19 47 33 69 33c38 0 52 -20 52 -58c0 -48 -21 -65 -53 -65c-11 0 -23 4 -29 9c0 15 -4 24 -14 24c-8 0 -13 1 -19 -1v-158c-5 -5 -25 -9 -46 -9c-19 0 -38 5 -38 38v131c0 12 -6 15 -13 15h-18c-4 11 -6 20 -6 33c0 18 22 36 57 36z" />
    <glyph glyph-name="ssuperior" unicode="&#xf6f2;" horiz-adv-x="241" 
d="M123 607c68 0 91 -26 91 -48c0 -18 -2 -34 -9 -43c-16 7 -58 13 -83 13c-20 0 -27 -3 -27 -9c0 -5 6 -10 34 -12c66 -8 94 -32 94 -80c0 -51 -32 -83 -99 -83c-73 0 -106 18 -106 48c0 18 4 31 12 41c21 -9 60 -17 88 -17c24 0 30 4 30 9c0 6 -10 11 -39 13
c-69 9 -86 35 -86 83c0 53 34 85 100 85z" />
    <glyph glyph-name="tsuperior" unicode="&#xf6f3;" horiz-adv-x="215" 
d="M166 538h-36v-98c0 -18 6 -24 21 -24h44c3 -7 6 -11 6 -23c0 -23 -13 -43 -80 -43c-38 0 -69 18 -69 75v113h-32c-4 8 -7 16 -7 28c0 23 6 36 27 36h12v50c8 5 25 9 43 9c20 0 35 -9 35 -31v-28h58c7 -6 9 -14 9 -25c0 -14 -5 -39 -31 -39z" />
    <glyph glyph-name="exclam.sc" unicode="&#xf721;" horiz-adv-x="235" 
d="M113 554c34 0 73 -10 73 -45v-327c-8 -8 -39 -16 -70 -16c-40 0 -68 19 -68 72v304c12 8 30 12 65 12zM53 63c0 42 20 64 65 64c44 0 66 -22 66 -64c0 -43 -22 -63 -66 -63c-45 0 -65 21 -65 63z" />
    <glyph glyph-name="dollar.osf" unicode="&#xf724;" horiz-adv-x="571" 
d="M301 823c28 0 43 -10 42 -39l-2 -77c75 -7 111 -29 137 -54c19 -19 26 -43 26 -65c0 -27 -13 -49 -27 -70c-32 16 -77 31 -138 36l-3 -148c134 -32 194 -77 197 -201c2 -112 -60 -199 -204 -213l-1 -114c-10 -6 -22 -9 -49 -9c-31 0 -51 10 -50 59v64
c-76 5 -127 22 -159 47c-28 21 -36 44 -36 74c0 28 10 57 19 72c46 -24 110 -41 179 -47l2 142c-136 30 -193 88 -193 217c0 116 71 196 201 210l2 103c13 8 34 13 57 13zM384 197c0 25 -9 44 -50 59l-2 -115c40 11 52 36 52 56zM189 495c0 -22 10 -43 48 -61l2 116
c-32 -8 -50 -26 -50 -55z" />
    <glyph glyph-name="ampersand.sc" unicode="&#xf726;" horiz-adv-x="670" 
d="M580 240h-56c-9 -36 -21 -70 -37 -100c13 -2 27 -3 41 -3h91c9 -14 14 -35 14 -63c0 -55 -37 -74 -93 -74c-52 0 -102 12 -147 33c-40 -26 -90 -41 -149 -41c-123 0 -193 89 -193 184c0 93 55 143 111 166c0 8 -1 16 -1 24c0 129 66 185 192 185c106 0 145 -24 145 -70
c0 -26 -3 -48 -13 -65h-116c-46 0 -67 -14 -67 -62c0 -68 32 -133 88 -174c16 18 29 38 38 60h-66c-9 18 -12 34 -12 55c0 39 15 63 57 63h198c6 -9 15 -31 15 -57c0 -41 -15 -61 -40 -61zM280 112c-39 38 -69 83 -90 130c-14 -16 -17 -35 -17 -61c0 -32 28 -71 80 -71
c9 0 18 0 27 2z" />
    <glyph glyph-name="question.sc" unicode="&#xf73f;" horiz-adv-x="431" 
d="M260 360c0 33 -16 49 -61 49s-92 -18 -128 -42c-20 17 -37 45 -37 80c0 51 59 97 174 97c141 0 190 -71 190 -147c0 -70 -34 -140 -157 -156l8 -69c-9 -12 -28 -17 -62 -17s-56 19 -58 46l-5 67c-1 19 3 37 13 49c37 1 123 11 123 43zM130 63c0 42 20 64 66 64
c43 0 65 -22 65 -64c0 -43 -22 -63 -65 -63c-45 0 -66 21 -66 63z" />
    <glyph glyph-name="a.sc" unicode="&#xf761;" horiz-adv-x="570" 
d="M85 0c-36 0 -54 5 -67 18l191 514c19 11 37 21 81 21c40 0 61 -18 71 -43l191 -482c-14 -24 -45 -28 -70 -28c-37 0 -66 14 -80 56l-17 41h-204l-18 -52c-11 -34 -32 -45 -78 -45zM278 384l-57 -176h120z" />
    <glyph glyph-name="b.sc" unicode="&#xf762;" horiz-adv-x="567" 
d="M138 553h174c87 0 184 -39 184 -171c0 -34 -13 -62 -33 -84c40 -27 69 -72 69 -143c0 -108 -90 -155 -182 -155h-214c-35 0 -67 7 -67 60v483c12 7 34 10 69 10zM311 227h-105v-120h103c57 0 86 13 86 55c0 45 -36 65 -84 65zM294 444h-88v-112h85c49 1 75 19 75 57
c0 36 -36 55 -72 55z" />
    <glyph glyph-name="c.sc" unicode="&#xf763;" horiz-adv-x="517" 
d="M446 154c22 0 52 -16 52 -55c0 -33 -14 -51 -47 -73c-22 -13 -73 -34 -157 -34c-144 0 -259 84 -259 283c0 206 111 286 253 286c98 0 123 -13 159 -31c25 -15 40 -35 40 -68s-16 -56 -37 -69c-33 18 -90 41 -156 41c-61 0 -123 -31 -123 -162c0 -124 64 -159 131 -159
c57 0 112 21 144 41z" />
    <glyph glyph-name="d.sc" unicode="&#xf764;" horiz-adv-x="576" 
d="M138 553h119c170 0 284 -79 284 -290c0 -191 -116 -263 -276 -263h-129c-35 0 -67 7 -67 60v482c12 7 34 11 69 11zM255 430h-49v-316h55c90 0 142 46 142 146c0 128 -67 170 -148 170z" />
    <glyph glyph-name="e.sc" unicode="&#xf765;" horiz-adv-x="512" 
d="M399 217h-193v-92h254c6 -9 15 -28 15 -53c0 -41 -15 -72 -40 -72h-308c-29 0 -58 7 -58 60v481c12 7 29 12 64 12h327c6 -9 15 -28 15 -53c0 -41 -15 -72 -40 -72h-229v-87h215c6 -9 15 -34 15 -60c0 -40 -15 -64 -37 -64z" />
    <glyph glyph-name="f.sc" unicode="&#xf766;" horiz-adv-x="498" 
d="M399 210h-193v-196c-8 -9 -48 -14 -79 -14c-29 0 -58 7 -58 60v481c12 7 29 12 64 12h316c6 -9 15 -28 15 -53c0 -41 -15 -72 -41 -72h-217v-93h219c6 -10 15 -28 15 -54c0 -40 -15 -71 -41 -71z" />
    <glyph glyph-name="g.sc" unicode="&#xf767;" horiz-adv-x="561" 
d="M407 211h-129c-9 18 -14 29 -14 53c0 26 6 50 67 50h107c69 0 81 -25 81 -96v-207c-15 -8 -29 -11 -61 -11c-29 0 -51 7 -51 49v1c-34 -39 -77 -58 -131 -58c-129 0 -241 84 -241 283c0 206 112 286 273 286c132 0 178 -61 178 -102c0 -34 -27 -53 -51 -60
c-36 34 -69 43 -126 43c-76 0 -147 -39 -147 -170c0 -124 70 -171 129 -171c53 0 89 22 116 66v44z" />
    <glyph glyph-name="h.sc" unicode="&#xf768;" horiz-adv-x="605" 
d="M473 553c35 0 63 -10 63 -45v-497c-9 -6 -44 -11 -64 -11c-40 0 -74 8 -74 61v165h-192v-212c-8 -8 -48 -14 -79 -14c-29 0 -58 8 -58 61v481c14 7 46 11 75 11c34 0 62 -10 62 -45v-159h192v193c13 6 47 11 75 11z" />
    <glyph glyph-name="i.sc" unicode="&#xf769;" horiz-adv-x="275" 
d="M145 553c33 0 61 -10 61 -45v-494c-18 -9 -40 -14 -75 -14c-37 0 -62 14 -62 61v481c15 7 42 11 76 11z" />
    <glyph glyph-name="j.sc" unicode="&#xf76a;" horiz-adv-x="367" 
d="M239 553c38 0 59 -13 59 -49v-368c0 -89 -50 -136 -135 -136c-102 0 -140 31 -140 74c0 20 1 31 9 45h88c37 0 51 13 51 37v386c16 8 37 11 68 11z" />
    <glyph glyph-name="k.sc" unicode="&#xf76b;" horiz-adv-x="544" 
d="M140 553c37 0 62 -9 62 -44v-174c75 60 143 152 159 208c14 7 32 10 59 10s51 -21 51 -47c0 -13 -3 -33 -11 -47c-30 -54 -69 -111 -133 -162c52 -47 91 -183 143 -183h34c7 -7 11 -20 11 -43c0 -42 -27 -71 -88 -71c-109 0 -121 138 -195 235l-30 -15v-207
c-15 -8 -43 -13 -75 -13c-35 0 -58 12 -58 60v481c16 7 42 12 71 12z" />
    <glyph glyph-name="l.sc" unicode="&#xf76c;" horiz-adv-x="465" 
d="M136 553c31 0 70 -9 70 -44v-384h226c6 -9 15 -27 15 -53c0 -41 -15 -72 -70 -72h-250c-36 0 -58 15 -58 57v485c13 6 38 11 67 11z" />
    <glyph glyph-name="m.sc" unicode="&#xf76d;" horiz-adv-x="748" 
d="M370 21c-38 0 -66 10 -86 71l-72 222l-17 -264c-2 -37 -28 -50 -73 -50c-25 0 -52 3 -65 10l41 452c4 55 36 91 95 91c32 0 45 -4 64 -10l112 -336l70 272c14 55 42 74 86 74c42 0 59 -3 84 -13l82 -522c-15 -11 -43 -18 -73 -18c-38 0 -70 9 -74 50l-27 263l-56 -220
c-18 -71 -52 -72 -91 -72z" />
    <glyph glyph-name="n.sc" unicode="&#xf76e;" horiz-adv-x="609" 
d="M408 34l-208 279l6 -300c-8 -8 -47 -14 -79 -14c-29 0 -58 8 -58 61v481c17 8 45 12 74 12c31 0 52 -17 64 -35l203 -281l-3 300c13 11 34 17 67 17c31 0 71 -10 71 -45v-498c-11 -6 -34 -11 -71 -11c-30 0 -51 14 -66 34z" />
    <glyph glyph-name="o.sc" unicode="&#xf76f;" horiz-adv-x="579" 
d="M35 275c0 206 116 286 253 286c144 0 256 -80 256 -286c0 -203 -114 -283 -255 -283s-254 84 -254 283zM171 272c0 -124 62 -168 118 -168c66 0 118 40 118 168c0 130 -57 173 -119 173c-56 0 -117 -42 -117 -173z" />
    <glyph glyph-name="p.sc" unicode="&#xf770;" horiz-adv-x="542" 
d="M138 553h174c87 0 184 -39 184 -171c0 -164 -116 -190 -191 -190h-99v-181c-13 -7 -45 -11 -76 -11c-34 0 -61 12 -61 60v483c17 7 34 10 69 10zM294 445h-88v-140h79c52 0 81 18 81 66c0 54 -36 74 -72 74z" />
    <glyph glyph-name="r.sc" unicode="&#xf772;" horiz-adv-x="577" 
d="M138 553h174c87 0 183 -42 183 -165c0 -77 -51 -130 -111 -155c37 -50 69 -119 111 -119h34c6 -7 11 -20 11 -43c0 -42 -28 -71 -89 -71c-108 0 -117 122 -187 217h-58v-205c-11 -7 -45 -12 -70 -12c-35 0 -67 7 -67 60v483c14 7 39 10 69 10zM294 448h-88v-129h77
c54 0 82 27 82 67c0 36 -35 62 -71 62z" />
    <glyph glyph-name="s.sc" unicode="&#xf773;" horiz-adv-x="495" 
d="M249 561c95 0 132 -19 159 -44c18 -17 24 -38 24 -58c0 -24 -11 -43 -23 -63c-36 15 -88 26 -159 26c-42 0 -72 -10 -72 -38c0 -18 14 -40 88 -52c131 -24 188 -56 191 -165c3 -97 -60 -175 -208 -175c-95 0 -151 15 -184 39c-23 17 -29 36 -29 63c0 24 9 50 17 64
c49 -19 120 -34 191 -34c61 0 74 23 74 36c0 21 -11 36 -93 46c-129 18 -185 66 -185 180c0 108 76 175 209 175z" />
    <glyph glyph-name="t.sc" unicode="&#xf774;" horiz-adv-x="488" 
d="M435 428h-123v-417c-14 -7 -39 -11 -76 -11c-32 0 -58 13 -58 60v368h-150c-8 18 -15 40 -15 63c0 31 14 62 60 62h388c6 -9 14 -27 14 -53c0 -41 -14 -72 -40 -72z" />
    <glyph glyph-name="u.sc" unicode="&#xf775;" horiz-adv-x="573" 
d="M379 216v326c12 7 36 11 70 11c38 0 68 -10 68 -45l1 -306c0 -146 -88 -210 -232 -210c-145 0 -225 65 -225 210l-1 340c12 8 42 11 71 11c40 0 66 -9 66 -44v-293c0 -67 29 -105 89 -105c69 0 93 37 93 105z" />
    <glyph glyph-name="v.sc" unicode="&#xf776;" horiz-adv-x="552" 
d="M99 553c35 0 59 -12 70 -43l125 -325c78 127 112 291 116 354c20 9 40 14 75 14c25 0 50 -13 50 -34c0 -11 0 -29 -10 -76c-9 -42 -67 -227 -193 -434c-19 -6 -34 -9 -56 -9c-32 0 -52 14 -65 51l-194 487c16 9 46 15 82 15z" />
    <glyph glyph-name="w.sc" unicode="&#xf777;" horiz-adv-x="823" 
d="M405 553c35 0 60 -12 71 -43l114 -325c78 127 85 291 89 354c21 9 40 14 76 14c25 0 50 -13 50 -34c0 -11 -1 -29 -10 -76c-9 -42 -41 -227 -168 -434c-18 -6 -33 -9 -55 -9c-32 0 -52 14 -65 51l-71 187c-30 -73 -68 -155 -112 -227c-18 -7 -33 -9 -55 -9
c-32 0 -52 14 -66 51l-185 485c16 9 47 15 82 15s60 -12 71 -43l116 -323c36 59 66 145 86 218l-50 133c16 9 47 15 82 15z" />
    <glyph glyph-name="x.sc" unicode="&#xf778;" horiz-adv-x="575" 
d="M103 553c56 0 80 -21 111 -63l73 -99l85 115c20 32 47 47 96 47c44 0 65 -11 75 -26l-175 -244l194 -261c-23 -16 -40 -22 -93 -22c-40 0 -85 21 -113 59l-85 113l-93 -133c-16 -26 -55 -39 -94 -39c-40 0 -57 10 -71 24l174 261l-175 235c15 18 40 33 91 33z" />
    <glyph glyph-name="y.sc" unicode="&#xf779;" horiz-adv-x="507" 
d="M331 197v-183c-11 -7 -37 -14 -76 -14s-60 12 -60 41v149c-72 115 -153 244 -180 347c17 9 44 16 75 16c36 0 55 -9 66 -43c21 -75 64 -145 110 -219c54 92 98 196 114 256c14 4 39 6 65 6c28 0 47 -18 47 -46c0 -54 -97 -218 -161 -310z" />
    <glyph glyph-name="z.sc" unicode="&#xf77a;" horiz-adv-x="523" 
d="M466 439l-255 -329h280c5 -10 11 -26 11 -54c0 -26 -11 -56 -51 -56h-419c-9 15 -11 26 -11 47c0 23 6 43 20 61l253 324h-236c-8 17 -15 33 -15 60c0 29 15 61 43 61h397c6 -9 9 -23 9 -44c0 -27 -8 -46 -26 -70z" />
    <glyph glyph-name="exclamdown.sc" unicode="&#xf7a1;" horiz-adv-x="235" 
d="M121 0c-34 0 -73 10 -73 45v327c8 8 39 16 70 16c40 0 68 -19 68 -72v-304c-12 -8 -30 -12 -65 -12zM181 491c0 -42 -20 -64 -65 -64c-44 0 -66 22 -66 64c0 43 22 63 66 63c45 0 65 -21 65 -63z" />
    <glyph glyph-name="cent.osf" unicode="&#xf7a2;" horiz-adv-x="476" 
d="M424 420c0 -19 -12 -50 -32 -73c-25 6 -46 12 -68 15l-6 -238c36 6 69 16 93 29c9 -11 17 -31 17 -60c0 -34 -14 -58 -39 -74c-13 -8 -38 -19 -74 -25l-3 -93c-7 -7 -28 -11 -54 -11c-24 1 -41 8 -40 42l2 62c-114 21 -180 117 -180 250c0 176 98 248 193 263l3 89
c10 6 26 10 46 9c28 -1 49 -10 48 -41l-3 -59c30 -5 49 -16 68 -28c15 -10 29 -26 29 -57zM164 243c0 -59 24 -96 59 -113l6 231c-36 -12 -65 -46 -65 -118z" />
    <glyph glyph-name="questiondown.sc" unicode="&#xf7bf;" horiz-adv-x="431" 
d="M171 184c0 -33 16 -49 61 -49s92 18 128 42c20 -17 37 -45 37 -80c0 -51 -59 -97 -174 -97c-141 0 -190 71 -190 147c0 70 34 140 157 156l-8 69c9 12 28 17 62 17s56 -19 58 -46l5 -67c1 -19 -3 -37 -13 -49c-37 -1 -123 -11 -123 -43zM301 481c0 -42 -20 -64 -66 -64
c-43 0 -65 22 -65 64c0 43 22 63 65 63c45 0 66 -21 66 -63z" />
    <glyph glyph-name="Euro.lf" horiz-adv-x="701" 
d="M388 215h-117c29 -65 83 -84 138 -84c69 0 137 34 164 84c15 2 37 2 60 -8c12 -5 21 -12 27 -21c13 -18 13 -44 -2 -75c-34 -67 -131 -117 -249 -117c-139 0 -253 64 -292 221h-87c-9 16 -13 26 -13 49c0 13 1 24 4 33c6 18 22 28 67 28h15v41h-73c-9 16 -13 26 -13 49
c0 38 4 61 71 61h28c38 163 149 233 286 233c109 0 214 -22 240 -92c8 -23 3 -47 -5 -62c-13 -26 -36 -43 -55 -48c-52 45 -86 64 -180 64c-56 0 -106 -26 -133 -95h226c7 -8 12 -18 12 -41c0 -26 -9 -69 -70 -69h-188v-41h197c7 -8 12 -18 12 -41c0 -26 -9 -69 -70 -69z
" />
    <glyph glyph-name="Euro.sc" horiz-adv-x="614" 
d="M329 160h-79c26 -32 66 -38 100 -38c55 0 110 25 133 66c15 2 36 2 58 -8c11 -5 19 -11 25 -20c12 -16 11 -40 -2 -68c-31 -61 -118 -97 -214 -97c-114 0 -211 48 -246 165h-73c-9 15 -13 25 -12 46c0 13 1 23 4 31c6 15 20 23 61 23h7v23h-60c-9 15 -12 24 -12 45
c0 34 3 55 65 55h19c34 126 128 178 240 178c93 0 187 -17 209 -81c6 -21 0 -42 -7 -56c-12 -24 -33 -40 -51 -45c-46 38 -69 54 -151 54c-35 0 -72 -11 -95 -50h177c7 -7 12 -16 12 -37c0 -23 -8 -63 -63 -63h-145v-23h152c6 -7 11 -16 11 -37c0 -23 -8 -63 -63 -63z" />
    <glyph glyph-name="Euro.tf" horiz-adv-x="650" 
d="M354 215h-117c29 -65 83 -84 138 -84c69 0 137 34 164 84c15 2 37 2 60 -8c12 -5 21 -12 27 -21c13 -18 13 -44 -2 -75c-34 -67 -131 -117 -249 -117c-139 0 -253 64 -292 221h-87c-9 16 -13 26 -13 49c0 13 1 24 4 33c6 18 22 28 67 28h15v41h-73c-9 16 -13 26 -13 49
c0 38 4 61 71 61h28c38 163 149 233 286 233c109 0 214 -22 240 -92c8 -23 3 -47 -5 -62c-13 -26 -36 -43 -55 -48c-52 45 -86 64 -180 64c-56 0 -106 -26 -133 -95h226c7 -8 12 -18 12 -41c0 -26 -9 -69 -70 -69h-188v-41h197c7 -8 12 -18 12 -41c0 -26 -9 -69 -70 -69z
" />
    <glyph glyph-name="Euro.tosf" horiz-adv-x="650" 
d="M354 215h-117c29 -65 83 -84 138 -84c69 0 137 34 164 84c15 2 37 2 60 -8c12 -5 21 -12 27 -21c13 -18 13 -44 -2 -75c-34 -67 -131 -117 -249 -117c-139 0 -253 64 -292 221h-87c-9 16 -13 26 -13 49c0 13 1 24 4 33c6 18 22 28 67 28h15v41h-73c-9 16 -13 26 -13 49
c0 38 4 61 71 61h28c38 163 149 233 286 233c109 0 214 -22 240 -92c8 -23 3 -47 -5 -62c-13 -26 -36 -43 -55 -48c-52 45 -86 64 -180 64c-56 0 -106 -26 -133 -95h226c7 -8 12 -18 12 -41c0 -26 -9 -69 -70 -69h-188v-41h197c7 -8 12 -18 12 -41c0 -26 -9 -69 -70 -69z
" />
    <glyph glyph-name="Idotaccent.sc" horiz-adv-x="275" 
d="M145 553c33 0 61 -10 61 -45v-494c-18 -9 -40 -14 -75 -14c-37 0 -62 14 -62 61v481c15 7 42 11 76 11zM66 687c0 48 22 72 72 72c48 0 72 -24 72 -72c0 -49 -24 -72 -72 -72c-49 0 -72 24 -72 72z" />
    <glyph glyph-name="Ldot.latn_CAT" horiz-adv-x="539" 
d="M153 700c33 0 75 -11 75 -50v-512h280c7 -10 16 -30 16 -59c0 -45 -16 -79 -76 -79h-305c-39 0 -63 17 -63 64v624c14 6 41 12 73 12zM337 352c0 48 22 72 72 72c48 0 72 -24 72 -72c0 -49 -24 -72 -72 -72c-49 0 -72 24 -72 72z" />
    <glyph glyph-name="S_S" horiz-adv-x="1160" 
d="M291 710c114 0 161 -26 193 -57c19 -19 26 -43 26 -65c0 -27 -13 -49 -27 -70c-40 21 -102 38 -191 38c-60 0 -97 -20 -97 -61c0 -32 21 -61 118 -82c155 -33 223 -75 226 -208c3 -122 -72 -215 -247 -215c-109 0 -176 19 -216 49c-28 21 -36 44 -36 74c0 28 10 57 19 72
c57 -29 142 -49 228 -49c82 0 103 34 103 61c0 36 -18 59 -121 77c-157 28 -222 86 -222 223c0 129 87 213 244 213zM871 710c114 0 161 -26 193 -57c19 -19 26 -43 26 -65c0 -27 -13 -49 -27 -70c-40 21 -102 38 -191 38c-60 0 -97 -20 -97 -61c0 -32 21 -61 118 -82
c155 -33 223 -75 226 -208c3 -122 -72 -215 -247 -215c-109 0 -176 19 -216 49c-28 21 -36 44 -36 74c0 28 10 57 19 72c57 -29 142 -49 228 -49c82 0 103 34 103 61c0 36 -18 59 -121 77c-157 28 -222 86 -222 223c0 129 87 213 244 213z" />
    <glyph glyph-name="T_h" horiz-adv-x="1019" 
d="M530 68v494h-171v-550c-15 -8 -42 -12 -82 -12c-34 0 -62 15 -62 67v495h-189c-9 19 -16 43 -16 70c0 34 15 68 66 68h576c15 -12 19 -29 19 -61v-192c37 38 83 63 138 63c87 0 144 -49 144 -174v-216c0 -17 7 -24 17 -24h27c5 -8 7 -17 7 -34c0 -34 -35 -62 -112 -62
c-48 0 -82 26 -82 97v200c0 44 -18 66 -57 66c-27 0 -56 -13 -82 -32v-318c-13 -8 -41 -13 -75 -13c-31 0 -66 9 -66 68z" />
    <glyph glyph-name="Tbar_h" horiz-adv-x="1019" 
d="M422 259h-63v-247c-15 -8 -42 -12 -82 -12c-34 0 -62 15 -62 67v192h-119c-9 19 -16 37 -16 68c0 40 12 70 63 70h72v165h-189c-9 19 -16 43 -16 70c0 34 15 68 66 68h576c15 -12 19 -29 19 -61v-192c37 38 83 63 138 63c87 0 144 -49 144 -174v-216c0 -17 7 -24 17 -24
h27c5 -8 7 -17 7 -34c0 -34 -35 -62 -112 -62c-48 0 -82 26 -82 97v200c0 44 -18 66 -57 66c-27 0 -56 -13 -82 -32v-318c-13 -8 -41 -13 -75 -13c-31 0 -66 9 -66 68v494h-171v-165h116c8 -12 14 -34 14 -65c0 -42 -11 -73 -67 -73z" />
    <glyph glyph-name="Tcaron_h" horiz-adv-x="1019" 
d="M530 68v494h-171v-550c-15 -8 -42 -12 -82 -12c-34 0 -62 15 -62 67v495h-189c-9 19 -16 43 -16 70c0 34 15 68 66 68h576c15 -12 19 -29 19 -61v-192c37 38 83 63 138 63c87 0 144 -49 144 -174v-216c0 -17 7 -24 17 -24h27c5 -8 7 -17 7 -34c0 -34 -35 -62 -112 -62
c-48 0 -82 26 -82 97v200c0 44 -18 66 -57 66c-27 0 -56 -13 -82 -32v-318c-13 -8 -41 -13 -75 -13c-31 0 -66 9 -66 68zM284 740c-13 0 -19 3 -25 6c-50 20 -113 86 -156 113c2 31 33 56 63 56c34 0 82 -44 120 -81c38 37 86 81 120 81c28 0 61 -25 63 -56
c-43 -27 -105 -92 -157 -113c-5 -2 -12 -7 -28 -6z" />
    <glyph glyph-name="Tcommaaccent_h" horiz-adv-x="1019" 
d="M530 68v494h-171v-550c-15 -8 -42 -12 -82 -12c-34 0 -62 15 -62 67v495h-189c-9 19 -16 43 -16 70c0 34 15 68 66 68h576c15 -12 19 -29 19 -61v-192c37 38 83 63 138 63c87 0 144 -49 144 -174v-216c0 -17 7 -24 17 -24h27c5 -8 7 -17 7 -34c0 -34 -35 -62 -112 -62
c-48 0 -82 26 -82 97v200c0 44 -18 66 -57 66c-27 0 -56 -13 -82 -32v-318c-13 -8 -41 -13 -75 -13c-31 0 -66 9 -66 68zM291 -202c-49 0 -68 24 -68 72s22 72 72 72c48 0 77 -26 77 -102c0 -115 -36 -162 -77 -162c-29 0 -40 8 -43 28c26 14 39 74 39 92z" />
    <glyph glyph-name="aacute.sc" horiz-adv-x="570" 
d="M85 0c-36 0 -54 5 -67 18l191 514c19 11 37 21 81 21c40 0 61 -18 71 -43l191 -482c-14 -24 -45 -28 -70 -28c-37 0 -66 14 -80 56l-17 41h-204l-18 -52c-11 -34 -32 -45 -78 -45zM278 384l-57 -176h120zM166 652c25 10 119 130 175 130c45 0 61 -25 63 -56
c-51 -32 -130 -119 -183 -119c-28 0 -50 17 -55 45z" />
    <glyph glyph-name="abreve.sc" horiz-adv-x="570" 
d="M85 0c-36 0 -54 5 -67 18l191 514c19 11 37 21 81 21c40 0 61 -18 71 -43l191 -482c-14 -24 -45 -28 -70 -28c-37 0 -66 14 -80 56l-17 41h-204l-18 -52c-11 -34 -32 -45 -78 -45zM278 384l-57 -176h120zM211 764c1 -12 5 -26 15 -38c11 -13 30 -22 59 -22
c27 0 43 7 53 18c11 11 15 26 19 38c10 8 29 12 54 11c33 -2 44 -23 38 -46c-9 -30 -22 -57 -48 -77c-25 -20 -62 -32 -115 -32c-56 0 -95 13 -122 34c-28 22 -41 51 -46 82c-3 24 9 37 37 40c22 2 42 -2 56 -8z" />
    <glyph glyph-name="acircumflex.sc" horiz-adv-x="570" 
d="M85 0c-36 0 -54 5 -67 18l191 514c19 11 37 21 81 21c40 0 61 -18 71 -43l191 -482c-14 -24 -45 -28 -70 -28c-37 0 -66 14 -80 56l-17 41h-204l-18 -52c-11 -34 -32 -45 -78 -45zM278 384l-57 -176h120zM462 654c-3 -19 -14 -33 -29 -40c-8 -4 -17 -5 -26 -5
c-35 0 -80 37 -122 71c-42 -34 -88 -71 -122 -71c-9 0 -18 1 -26 5c-15 7 -26 21 -29 40c25 9 118 130 174 130c60 0 150 -119 180 -130z" />
    <glyph glyph-name="adieresis.sc" horiz-adv-x="570" 
d="M85 0c-36 0 -54 5 -67 18l191 514c19 11 37 21 81 21c40 0 61 -18 71 -43l191 -482c-14 -24 -45 -28 -70 -28c-37 0 -66 14 -80 56l-17 41h-204l-18 -52c-11 -34 -32 -45 -78 -45zM278 384l-57 -176h120zM107 701c0 48 22 72 72 72c48 0 72 -24 72 -72
c0 -49 -24 -72 -72 -72c-49 0 -72 24 -72 72zM311 701c0 48 22 72 72 72c48 0 72 -24 72 -72c0 -49 -24 -72 -72 -72c-49 0 -72 24 -72 72z" />
    <glyph glyph-name="ae.sc" horiz-adv-x="800" 
d="M723 0h-308c-28 0 -58 7 -58 60v37h-167l-20 -52c-11 -34 -33 -45 -78 -45c-36 0 -61 5 -74 18l210 513c21 15 51 22 83 22h437c7 -9 15 -28 15 -53c0 -41 -14 -72 -40 -72h-229v-87h215c7 -9 15 -34 15 -60c0 -40 -14 -64 -36 -64h-194v-92h254c7 -9 15 -28 15 -53
c0 -41 -14 -72 -40 -72zM322 428l-86 -216h121v216h-35z" />
    <glyph glyph-name="aeacute.sc" horiz-adv-x="800" 
d="M723 0h-308c-28 0 -58 7 -58 60v37h-167l-20 -52c-11 -34 -33 -45 -78 -45c-36 0 -61 5 -74 18l210 513c21 15 51 22 83 22h437c7 -9 15 -28 15 -53c0 -41 -14 -72 -40 -72h-229v-87h215c7 -9 15 -34 15 -60c0 -40 -14 -64 -36 -64h-194v-92h254c7 -9 15 -28 15 -53
c0 -41 -14 -72 -40 -72zM322 428l-86 -216h121v216h-35zM368 652c25 10 119 130 175 130c45 0 61 -25 63 -56c-51 -32 -130 -119 -183 -119c-28 0 -50 17 -55 45z" />
    <glyph glyph-name="agrave.sc" horiz-adv-x="570" 
d="M85 0c-36 0 -54 5 -67 18l191 514c19 11 37 21 81 21c40 0 61 -18 71 -43l191 -482c-14 -24 -45 -28 -70 -28c-37 0 -66 14 -80 56l-17 41h-204l-18 -52c-11 -34 -32 -45 -78 -45zM278 384l-57 -176h120zM401 649c-5 -28 -27 -45 -55 -45c-53 0 -132 87 -183 119
c2 31 18 56 63 56c56 0 150 -120 175 -130z" />
    <glyph glyph-name="amacron.sc" horiz-adv-x="570" 
d="M85 0c-36 0 -54 5 -67 18l191 514c19 11 37 21 81 21c40 0 61 -18 71 -43l191 -482c-14 -24 -45 -28 -70 -28c-37 0 -66 14 -80 56l-17 41h-204l-18 -52c-11 -34 -32 -45 -78 -45zM278 384l-57 -176h120zM388 628h-262c-9 14 -16 28 -16 47c0 33 7 57 74 57h262
c7 -8 14 -20 14 -39c0 -24 -11 -65 -72 -65z" />
    <glyph glyph-name="aogonek.sc" horiz-adv-x="570" 
d="M445 7c-21 5 -30 17 -43 49l-17 41h-204l-18 -52c-11 -34 -32 -45 -78 -45c-36 0 -54 5 -67 18l191 514c19 11 37 21 81 21c40 0 61 -18 71 -43l194 -489c-50 -29 -72 -75 -72 -103c0 -25 13 -34 46 -34c6 -11 8 -20 8 -34c0 -16 -4 -39 -51 -39c-53 0 -83 36 -83 85
c0 45 23 88 42 111zM278 368l-57 -160h120z" />
    <glyph glyph-name="aring.sc" horiz-adv-x="570" 
d="M85 0c-36 0 -54 5 -67 18l191 514c19 11 37 21 81 21c40 0 61 -18 71 -43l191 -482c-14 -24 -45 -28 -70 -28c-37 0 -66 14 -80 56l-17 41h-204l-18 -52c-11 -34 -32 -45 -78 -45zM278 384l-57 -176h120zM186 704c0 62 32 94 94 94s94 -32 94 -94s-32 -94 -94 -94
s-94 32 -94 94zM245 704c0 -23 12 -35 35 -35s35 12 35 35s-12 35 -35 35s-35 -12 -35 -35z" />
    <glyph glyph-name="at.case" horiz-adv-x="848" 
d="M626 -29c16 -10 28 -25 28 -50c0 -27 -13 -44 -40 -58c-25 -13 -78 -33 -180 -33c-250 0 -409 154 -409 402c0 228 165 392 399 392c239 0 399 -158 399 -383c0 -167 -91 -241 -220 -241c-62 0 -96 26 -108 62c-42 -33 -92 -60 -145 -60c-69 0 -114 55 -114 144
c0 74 49 117 145 121l107 5c-7 37 -30 52 -64 52c-53 0 -109 -8 -133 -16c-8 10 -13 30 -13 54c0 66 108 84 155 83c63 -1 163 -16 163 -156v-170c0 -23 16 -26 34 -26c45 0 74 46 74 151c0 150 -112 261 -280 261c-161 0 -280 -121 -280 -274c0 -183 112 -284 291 -284
c115 0 150 10 191 24zM387 111c34 0 58 6 103 31v46l-101 -12c-30 -4 -38 -15 -38 -32c0 -19 12 -33 36 -33z" />
    <glyph glyph-name="atilde.sc" horiz-adv-x="570" 
d="M85 0c-36 0 -54 5 -67 18l191 514c19 11 37 21 81 21c40 0 61 -18 71 -43l191 -482c-14 -24 -45 -28 -70 -28c-37 0 -66 14 -80 56l-17 41h-204l-18 -52c-11 -34 -32 -45 -78 -45zM278 384l-57 -176h120zM201 751c66 0 103 -28 156 -28c40 0 58 16 60 23
c13 -5 30 -30 30 -57c0 -36 -25 -62 -73 -62c-55 0 -123 27 -179 27c-23 0 -41 -9 -44 -24c-22 6 -28 29 -28 51c0 29 21 70 78 70z" />
    <glyph glyph-name="braceleft.case" horiz-adv-x="391" 
d="M238 761c81 0 123 -24 123 -83c0 -19 -3 -34 -7 -46h-87c-34 0 -52 -22 -52 -57v-133c0 -73 -38 -89 -53 -91v-7c14 -1 53 -22 53 -93v-113c0 -48 21 -65 51 -65h87c5 -9 8 -24 8 -42c0 -53 -35 -82 -132 -82c-62 0 -141 33 -141 128v157c0 48 -20 55 -40 58
c-18 2 -28 23 -28 58c0 20 2 40 8 48c29 1 60 10 60 54v155c0 120 74 154 150 154z" />
    <glyph glyph-name="braceright.case" horiz-adv-x="391" 
d="M143 -55c-81 0 -123 24 -123 83c0 19 3 34 7 46h87c34 0 52 22 52 57v133c0 73 38 89 53 91v7c-14 1 -53 22 -53 93v113c0 48 -21 65 -51 65h-87c-5 9 -8 24 -8 42c0 53 35 82 132 82c62 0 141 -33 141 -128v-157c0 -48 20 -55 40 -58c18 -2 28 -23 28 -58
c0 -20 -2 -40 -8 -48c-29 -1 -60 -10 -60 -54v-155c0 -120 -74 -154 -150 -154z" />
    <glyph glyph-name="bracketleft.case" horiz-adv-x="388" 
d="M57 30v722c19 13 49 20 88 20h188c7 -10 16 -30 16 -60c0 -45 -16 -80 -45 -80h-105v-533h134c7 -10 16 -30 16 -59c0 -46 -16 -80 -45 -80h-231c-9 19 -16 43 -16 70z" />
    <glyph glyph-name="bracketright.case" horiz-adv-x="388" 
d="M349 706v-722c-19 -13 -49 -20 -88 -20h-188c-7 10 -16 30 -16 60c0 45 16 80 45 80h105v533h-134c-7 10 -16 30 -16 59c0 46 16 80 45 80h231c9 -19 16 -43 16 -70z" />
    <glyph glyph-name="cacute.sc" horiz-adv-x="517" 
d="M446 154c22 0 52 -16 52 -55c0 -33 -14 -51 -47 -73c-22 -13 -73 -34 -157 -34c-144 0 -259 84 -259 283c0 206 111 286 253 286c98 0 123 -13 159 -31c25 -15 40 -35 40 -68s-16 -56 -37 -69c-33 18 -90 41 -156 41c-61 0 -123 -31 -123 -162c0 -124 64 -159 131 -159
c57 0 112 21 144 41zM184 652c25 10 119 130 175 130c45 0 61 -25 63 -56c-51 -32 -130 -119 -183 -119c-28 0 -50 17 -55 45z" />
    <glyph glyph-name="ccaron.sc" horiz-adv-x="517" 
d="M446 154c22 0 52 -16 52 -55c0 -33 -14 -51 -47 -73c-22 -13 -73 -34 -157 -34c-144 0 -259 84 -259 283c0 206 111 286 253 286c98 0 123 -13 159 -31c25 -15 40 -35 40 -68s-16 -56 -37 -69c-33 18 -90 41 -156 41c-61 0 -123 -31 -123 -162c0 -124 64 -159 131 -159
c57 0 112 21 144 41zM287 610c-13 0 -19 3 -25 6c-50 20 -113 86 -156 113c2 31 33 56 63 56c34 0 82 -44 120 -81c38 37 86 81 120 81c28 0 61 -25 63 -56c-43 -27 -105 -92 -157 -113c-5 -2 -12 -7 -28 -6z" />
    <glyph glyph-name="ccedilla.sc" horiz-adv-x="517" 
d="M446 154c22 0 52 -16 52 -55c0 -33 -14 -51 -47 -73c-22 -13 -73 -34 -157 -34c-144 0 -259 84 -259 283c0 206 111 286 253 286c98 0 123 -13 159 -31c25 -15 40 -35 40 -68s-16 -56 -37 -69c-33 18 -90 41 -156 41c-61 0 -123 -31 -123 -162c0 -124 64 -159 131 -159
c57 0 112 21 144 41zM337 -113c0 26 -44 35 -70 35c-5 6 -9 16 -9 25l1 70l76 -1l-5 -46c62 -12 79 -44 79 -90c0 -52 -33 -92 -104 -92c-64 0 -96 29 -96 56c0 19 8 33 20 41c17 -15 44 -28 71 -28c28 0 37 13 37 30z" />
    <glyph glyph-name="ccircumflex.sc" horiz-adv-x="517" 
d="M446 154c22 0 52 -16 52 -55c0 -33 -14 -51 -47 -73c-22 -13 -73 -34 -157 -34c-144 0 -259 84 -259 283c0 206 111 286 253 286c98 0 123 -13 159 -31c25 -15 40 -35 40 -68s-16 -56 -37 -69c-33 18 -90 41 -156 41c-61 0 -123 -31 -123 -162c0 -124 64 -159 131 -159
c57 0 112 21 144 41zM466 654c-3 -19 -14 -33 -29 -40c-8 -4 -17 -5 -26 -5c-35 0 -80 37 -122 71c-42 -34 -88 -71 -122 -71c-9 0 -18 1 -26 5c-15 7 -26 21 -29 40c25 9 118 130 174 130c60 0 150 -119 180 -130z" />
    <glyph glyph-name="cdotaccent.sc" horiz-adv-x="517" 
d="M446 154c22 0 52 -16 52 -55c0 -33 -14 -51 -47 -73c-22 -13 -73 -34 -157 -34c-144 0 -259 84 -259 283c0 206 111 286 253 286c98 0 123 -13 159 -31c25 -15 40 -35 40 -68s-16 -56 -37 -69c-33 18 -90 41 -156 41c-61 0 -123 -31 -123 -162c0 -124 64 -159 131 -159
c57 0 112 21 144 41zM223 692c0 48 22 72 72 72c48 0 72 -24 72 -72c0 -49 -24 -72 -72 -72c-49 0 -72 24 -72 72z" />
    <glyph glyph-name="cent.lf" horiz-adv-x="476" 
d="M424 420c0 -19 -12 -50 -32 -73c-25 6 -46 12 -68 15l-6 -238c36 6 69 16 93 29c9 -11 17 -31 17 -60c0 -34 -14 -58 -39 -74c-13 -8 -38 -19 -74 -25l-2 -78c-7 -7 -28 -11 -54 -11c-24 1 -41 8 -40 42l1 47c-114 21 -180 117 -180 250c0 176 98 248 193 263l2 79
c10 6 17 10 46 9c28 -1 49 -10 48 -41l-2 -49c30 -5 49 -16 68 -28c15 -10 29 -26 29 -57zM164 243c0 -59 24 -96 59 -113l6 231c-36 -12 -65 -46 -65 -118z" />
    <glyph glyph-name="cent.tf" horiz-adv-x="650" 
d="M515 420c0 -19 -12 -50 -32 -73c-25 6 -46 12 -68 15l-6 -238c36 6 69 16 93 29c9 -11 17 -31 17 -60c0 -34 -14 -58 -39 -74c-13 -8 -38 -19 -74 -25l-3 -93c-7 -7 -28 -11 -54 -11c-24 1 -41 8 -40 42l2 62c-114 21 -180 117 -180 250c0 176 98 248 193 263l3 89
c10 6 26 10 46 9c28 -1 49 -10 48 -41l-3 -59c30 -5 49 -16 68 -28c15 -10 29 -26 29 -57zM255 243c0 -59 24 -96 59 -113l6 231c-36 -12 -65 -46 -65 -118z" />
    <glyph glyph-name="cent.tosf" horiz-adv-x="650" 
d="M515 420c0 -19 -12 -50 -32 -73c-25 6 -46 12 -68 15l-6 -238c36 6 69 16 93 29c9 -11 17 -31 17 -60c0 -34 -14 -58 -39 -74c-13 -8 -38 -19 -74 -25l-3 -93c-7 -7 -28 -11 -54 -11c-24 1 -41 8 -40 42l2 62c-114 21 -180 117 -180 250c0 176 98 248 193 263l3 89
c10 6 26 10 46 9c28 -1 49 -10 48 -41l-3 -59c30 -5 49 -16 68 -28c15 -10 29 -26 29 -57zM255 243c0 -59 24 -96 59 -113l6 231c-36 -12 -65 -46 -65 -118z" />
    <glyph glyph-name="dcaron.sc" horiz-adv-x="576" 
d="M138 553h119c170 0 284 -79 284 -290c0 -191 -116 -263 -276 -263h-129c-35 0 -67 7 -67 60v482c12 7 34 11 69 11zM255 430h-49v-316h55c90 0 142 46 142 146c0 128 -67 170 -148 170zM258 610c-13 0 -19 3 -25 6c-50 20 -113 86 -156 113c2 31 33 56 63 56
c34 0 82 -44 120 -81c38 37 86 81 120 81c28 0 61 -25 63 -56c-43 -27 -105 -92 -157 -113c-5 -2 -12 -7 -28 -6z" />
    <glyph glyph-name="dcroat.sc" horiz-adv-x="576" 
d="M138 553h119c170 0 284 -79 284 -290c0 -191 -116 -263 -276 -263h-129c-35 0 -67 7 -67 60v151h-51c-8 17 -15 26 -15 54c0 36 15 59 62 59h4v218c12 7 34 11 69 11zM261 211h-55v-97h55c90 0 142 46 142 146c0 128 -67 170 -148 170h-49v-106h108c7 -11 13 -27 13 -55
c0 -38 -14 -58 -66 -58z" />
    <glyph glyph-name="dollar.lf" horiz-adv-x="571" 
d="M300 791c28 0 43 -10 42 -39l-1 -45c75 -7 111 -29 137 -54c19 -19 26 -43 26 -65c0 -27 -13 -49 -27 -70c-32 16 -77 31 -138 36l-3 -148c134 -32 194 -77 197 -201c2 -112 -60 -199 -204 -213l-1 -79c-10 -6 -22 -9 -49 -9c-31 0 -51 10 -50 59v29
c-76 5 -127 22 -159 47c-28 21 -36 44 -36 74c0 28 10 57 19 72c46 -24 110 -41 179 -47l2 142c-136 30 -193 88 -193 217c0 116 71 196 201 210l1 71c13 8 34 13 57 13zM384 197c0 25 -9 44 -50 59l-2 -115c40 11 52 36 52 56zM189 495c0 -22 10 -43 48 -61l2 116
c-32 -8 -50 -26 -50 -55z" />
    <glyph glyph-name="dollar.sc" horiz-adv-x="486" 
d="M255 627c26 0 40 -8 39 -34l-1 -35c61 -6 87 -21 109 -41c18 -17 24 -39 24 -59c0 -25 -11 -45 -24 -65c-28 11 -64 19 -111 23l-3 -90c111 -22 160 -56 163 -158c2 -89 -49 -162 -170 -174l-1 -67c-9 -5 -20 -7 -45 -7c-30 0 -48 9 -47 54v20c-64 5 -104 17 -130 37
c-23 18 -28 37 -28 63c0 25 9 53 17 67c39 -14 89 -26 144 -31l2 79c-111 19 -159 68 -159 175c0 97 61 161 167 174l1 58c12 7 32 11 53 11zM309 161c0 9 -2 20 -23 26l-2 -54c21 9 25 23 25 28zM174 383c0 -8 3 -22 22 -31l2 60c-12 -7 -24 -13 -24 -29z" />
    </font>
</defs>
</svg>
